<svg xmlns="http://www.w3.org/2000/svg" xmlns:xlink="http://www.w3.org/1999/xlink" viewBox="0 0 400 266.89"><defs><style>.cls-1{fill:#acd5ea;}.cls-1,.cls-11,.cls-12,.cls-13,.cls-14,.cls-15,.cls-16,.cls-17,.cls-19,.cls-2,.cls-20,.cls-21,.cls-22,.cls-23,.cls-24,.cls-25,.cls-26,.cls-27,.cls-28,.cls-3,.cls-4,.cls-5,.cls-6,.cls-7,.cls-8,.cls-9{fill-rule:evenodd;}.cls-2{fill:#0d3a4e;}.cls-3{fill:#6a603b;}.cls-4{fill:#397184;}.cls-5{fill:#d6cc70;}.cls-6{fill:#58595b;}.cls-7{fill:url(#GradientFill_40);}.cls-8{fill:#414042;}.cls-9{fill:url(#GradientFill_41);}.cls-10,.cls-17{fill:#808285;}.cls-11{fill:#5e8228;}.cls-12{fill:url(#GradientFill_42);}.cls-13{fill:#d1d3d4;}.cls-14{fill:#a7a9ac;}.cls-15{fill:#828487;}.cls-16{fill:#90c440;}.cls-18{fill:#6d6e71;}.cls-19{fill:#231f20;}.cls-20{fill:#aaa576;}.cls-21{fill:url(#GradientFill_43);}.cls-22{fill:url(#GradientFill_44);}.cls-23{fill:url(#GradientFill_44-2);}.cls-24{fill:url(#GradientFill_43-2);}.cls-25{fill:url(#GradientFill_44-3);}.cls-26{fill:url(#GradientFill_44-4);}.cls-27{fill:url(#GradientFill_45);}.cls-28{fill:url(#GradientFill_45-2);}</style><linearGradient id="GradientFill_40" x1="309.14" y1="-79.98" x2="102.49" y2="277.95" gradientUnits="userSpaceOnUse"><stop offset="0" stop-color="#808285"/><stop offset="0.58" stop-color="#808285"/><stop offset="1" stop-color="#bcbec0"/></linearGradient><linearGradient id="GradientFill_41" x1="370.74" y1="-185.37" x2="45.67" y2="377.68" gradientUnits="userSpaceOnUse"><stop offset="0" stop-color="#808285"/><stop offset="0.58" stop-color="#808285"/><stop offset="1" stop-color="#d1d3d4"/></linearGradient><linearGradient id="GradientFill_42" x1="-16.09" y1="115.1" x2="154.48" y2="298.01" gradientUnits="userSpaceOnUse"><stop offset="0" stop-color="#d1d3d4"/><stop offset="1" stop-color="#fff"/></linearGradient><linearGradient id="GradientFill_43" x1="74.73" y1="181.42" x2="107.56" y2="228.31" gradientUnits="userSpaceOnUse"><stop offset="0" stop-color="#cfd1d2"/><stop offset="0.12" stop-color="#fff"/><stop offset="0.66" stop-color="#cfd1d2"/><stop offset="0.82" stop-color="#939598"/><stop offset="1" stop-color="#808285"/></linearGradient><linearGradient id="GradientFill_44" x1="116.07" y1="210.59" x2="107.23" y2="222.75" gradientUnits="userSpaceOnUse"><stop offset="0" stop-color="#cfd1d2"/><stop offset="1" stop-color="#fff"/></linearGradient><linearGradient id="GradientFill_44-2" x1="70.44" y1="186.62" x2="62.9" y2="196.99" xlink:href="#GradientFill_44"/><linearGradient id="GradientFill_43-2" x1="73.64" y1="203.18" x2="106.47" y2="250.07" xlink:href="#GradientFill_43"/><linearGradient id="GradientFill_44-3" x1="114.98" y1="232.35" x2="106.14" y2="244.51" xlink:href="#GradientFill_44"/><linearGradient id="GradientFill_44-4" x1="69.34" y1="208.37" x2="61.8" y2="218.75" xlink:href="#GradientFill_44"/><linearGradient id="GradientFill_45" x1="298.31" y1="30.03" x2="286.78" y2="58.58" gradientUnits="userSpaceOnUse"><stop offset="0" stop-color="#adc942"/><stop offset="0.46" stop-color="#adc942"/><stop offset="1" stop-color="#fff"/></linearGradient><linearGradient id="GradientFill_45-2" x1="205.89" y1="82.02" x2="191.43" y2="117.81" xlink:href="#GradientFill_45"/></defs><g id="Layer_2" data-name="Layer 2"><g id="GraphicCard"><path class="cls-1" d="M397.75,115.32,280.31,49.25a12.42,12.42,0,0,0-12.54,0L51.45,172.84,16.07,152.62c-4.69,2.47-9.21,5.25-13.8,7.91L0,195.59l7.73,4.86L17.41,195,65.5,223.58l-4.68,2.71.53.3-.49-.27-.68.81-.69.82.7,1.59.7,1.6,1.39.78,1.38.78h0l2.42-1.4,1-.55v3.33A5.7,5.7,0,0,0,70,239.14l27.77,16a2.88,2.88,0,0,0,2.93,0l3.86-2.22.65,1.48.7,1.6,1.38.78,1.39.78h0l7.13-4.12,22.62,13.44,1.92-1v-3.41l.57.32a12.36,12.36,0,0,0,12.56,0l13.18-7.54a3.1,3.1,0,0,1,3.13,0l9.76,5.5a12.39,12.39,0,0,0,12.55,0l12.72-7.21a3.09,3.09,0,0,0,1.61-2.74,3.12,3.12,0,0,0-1.59-2.76l-7.72-4.46c-5.12-3-.9-7,5.59-3.21l7.84,4.53a9.28,9.28,0,0,0,9.45,0l94.55-53.56a4.45,4.45,0,0,0,0-7.72L308,179.93a3.17,3.17,0,0,1,0-5.52L397.76,123a4.37,4.37,0,0,0,2.24-3.87A4.32,4.32,0,0,0,397.75,115.32ZM67.14,229.86l-1,.61,1-.61Z"/><path class="cls-2" d="M17.6,177.34,262,37.73a12.37,12.37,0,0,1,12.54,0L392,103.78a4.44,4.44,0,0,1,0,7.72l-89.83,51.38a3.17,3.17,0,0,0,0,5.52l6.55,3.68a4.44,4.44,0,0,1,0,7.72l-94.54,53.57a9.3,9.3,0,0,1-9.45,0l-7.85-4.53c-6.48-3.75-10.7.25-5.58,3.2l7.72,4.47a3.17,3.17,0,0,1,0,5.5l-12.72,7.21a12.42,12.42,0,0,1-12.55,0l-9.76-5.5a3.1,3.1,0,0,0-3.14,0l-13.18,7.54a12.39,12.39,0,0,1-12.55,0L17.61,185.06a4.44,4.44,0,0,1,0-7.72Z"/><path class="cls-3" d="M305.14,170.07l3.57,2a4.44,4.44,0,0,1,0,7.72l-94.54,53.57a9.3,9.3,0,0,1-9.45,0l-6.21-3.59v-5.49l106.62-54.18ZM198.52,242.24v-6.06l.5.29a3.17,3.17,0,0,1,0,5.5Zm0-12.5-1.64-.94c-.14-.09-.29-.17-.44-.25v-3.24l2.08-1.06v5.49Zm0,6.44v6.06l-12.24,6.94a12.42,12.42,0,0,1-12.55,0l-6.75-3.8v-3.25l23.54-10.64a7,7,0,0,0,.78.5Z"/><path class="cls-4" d="M16.58,173.51,261,33.9a12.4,12.4,0,0,1,12.54,0L390.93,100a4.43,4.43,0,0,1,0,7.71l-89.83,51.38a3.18,3.18,0,0,0,0,5.52l6.56,3.69a4.43,4.43,0,0,1,0,7.71l-94.55,53.57a9.28,9.28,0,0,1-9.45,0L195.86,225c-6.49-3.75-10.71.25-5.59,3.21l7.72,4.46a3.16,3.16,0,0,1,0,5.5l-12.72,7.21a12.42,12.42,0,0,1-12.55,0l-9.76-5.5a3.1,3.1,0,0,0-3.13,0l-13.18,7.54a12.35,12.35,0,0,1-12.55,0L16.58,181.23a4.44,4.44,0,0,1,0-7.72Z"/><path class="cls-5" d="M302,165l5.73,3.22a4.43,4.43,0,0,1,0,7.71l-94.55,53.57a9.28,9.28,0,0,1-9.45,0L198,226.21v-1.8L302,165ZM198,238.12v-5.47a3.17,3.17,0,0,1,0,5.47Zm0-11.91-1.57-.9,1.57-.9v1.8Zm0,6.44v5.47l0,0-12.72,7.21a12.42,12.42,0,0,1-12.55,0L167,242.14l23.86-13.63,7.15,4.13Z"/><polygon class="cls-6" points="38.13 151.97 45.16 147.97 45.16 143.66 52.72 143.66 172.53 75.41 219.34 75.41 122.31 249.94 23.61 193.57 23.61 151.97 38.13 151.97"/><polygon class="cls-7" points="23.39 151.93 280.07 6.21 309.91 1.82 383.19 43.14 379.04 61.97 122.31 207.7 23.39 151.93"/><polygon class="cls-8" points="38.84 160.76 38.5 156.28 128.4 109.86 136.06 94.97 183.02 68.27 210.22 63.54 225.41 54.91 233.37 39.59 282.62 11.84 308.15 8.09 314.64 4.49 376.8 35.25 377.15 39.73 370.83 43.43 367.28 59.54 316.43 88.29 287.75 90.1 271.71 99.21 267.45 116.21 220.71 142.69 189.77 145.47 100.2 196.33 38.84 160.76"/><polygon class="cls-6" points="38.84 160.76 38.5 156.28 72.26 138.85 100.11 138.85 100.11 196.28 38.84 160.76"/><polygon class="cls-8" points="378.95 61.9 378.95 106.01 122.31 249.94 122.31 207.69 378.95 61.9"/><polygon class="cls-9" points="38.5 156.28 128.06 105.37 135.71 90.48 182.67 63.78 209.87 59.05 225.06 50.42 233.03 35.11 282.28 7.36 307.81 3.61 314.29 0 376.8 35.25 370.49 38.95 366.93 55.05 316.09 83.8 287.4 85.62 271.36 94.72 267.1 111.73 220.37 138.2 189.42 140.98 99.86 191.85 38.5 156.28"/><polygon class="cls-6" points="383.19 43.14 378.95 61.97 378.95 106.01 382.91 86.92 383.19 43.14"/><path class="cls-8" d="M199.43,73.29c25.65.68,46.1,14.15,45.68,30.08S223.55,131.66,197.9,131s-46.11-14.15-45.68-30.08S173.78,72.61,199.43,73.29Z"/><path class="cls-8" d="M199.37,75.45c23.74.63,42.67,13.09,42.28,27.83s-20,26.18-43.69,25.55S155.29,115.74,155.68,101,175.64,74.82,199.37,75.45Z"/><path class="cls-10" d="M231.31,85.29c-3,2.12-6.57,4.37-10.47,6.64-4.85,2.83-10.26,5.74-15.57,8.52,5.91.07,12,.06,17.55-.13,7.57-.25,14.21-.84,18.21-2a17.56,17.56,0,0,1,.62,4.21c-4.44,1.18-11.16,1.78-18.7,2-5.56.19-11.58.2-17.46.13,4.15,2.18,8.29,4.25,12.29,6.15l.08,0c5.9,2.8,11.43,5.22,16.14,7.06a34.8,34.8,0,0,1-3.95,3c-4.23-1.72-9-3.82-14-6.19l-.13-.06c-4.79-2.28-9.85-4.84-15-7.56,2.15,5.24,4.4,10.37,6.62,15.15q1.4,3,2.76,5.8c-1.44.23-2.92.41-4.43.55-.72-1.49-1.45-3-2.17-4.58-2.38-5.12-4.78-10.65-7.08-16.29-2.56,5.49-4.95,11-7.06,16.09h0c-.56,1.36-1.09,2.71-1.61,4-1.43-.25-2.83-.54-4.19-.88q.91-2.33,1.9-4.76h0c2-4.85,4.19-9.92,6.53-15-4.86,2.61-9.6,5.3-14,7.92-3.32,2-6.45,3.92-9.32,5.77a36,36,0,0,1-3.75-2.6c3.3-2.17,7-4.47,10.92-6.8s8.09-4.7,12.38-7c-4.79,0-9.52.14-14,.33-6.76.29-13,.76-18.11,1.36a17.28,17.28,0,0,1-.66-4.17c5.3-.63,11.69-1.11,18.61-1.41,4.55-.19,9.35-.31,14.24-.33-5.19-2.81-10.56-5.64-15.6-8.09-3.88-1.89-7.55-3.55-10.74-4.77a30.56,30.56,0,0,1,3.69-3.08c2.76,1.15,5.76,2.53,8.89,4.05,5.79,2.81,12.05,6.14,18,9.38-2.46-6.2-5.12-12.67-7.76-18.49-.38-.83-.75-1.64-1.13-2.44,1.41-.3,2.85-.55,4.32-.76l.67,1.46c2.79,6.16,5.62,13.08,8.22,19.63,3-6.27,6.11-13,8.72-19.17l.82-2c1.45.19,2.88.43,4.27.71-.38,1-.78,1.91-1.19,2.89-2.43,5.78-5.33,12.06-8.18,18,5.77-3,11.78-6.22,17.21-9.38,3.23-1.89,6.23-3.74,8.79-5.48A40.86,40.86,0,0,1,231.31,85.29Z"/><path class="cls-11" d="M199,88.33c12.28.32,22.07,6.77,21.87,14.4S210.58,116.27,198.3,116s-22.08-6.78-21.87-14.4S186.75,88,199,88.33Z"/><path class="cls-8" d="M293.31,17.68C319,18.36,339.42,31.83,339,47.76s-21.56,28.29-47.21,27.61S245.67,61.22,246.1,45.29,267.66,17,293.31,17.68Z"/><path class="cls-8" d="M293.25,19.83c23.74.63,42.67,13.1,42.28,27.84s-20,26.18-43.69,25.55-42.67-13.1-42.28-27.84S269.52,19.2,293.25,19.83Z"/><path class="cls-10" d="M325.2,29.68c-3,2.12-6.58,4.36-10.48,6.64-4.85,2.83-10.25,5.74-15.56,8.52,5.9.06,12,.06,17.54-.13,7.58-.26,14.21-.85,18.21-2a17.07,17.07,0,0,1,.62,4.21c-4.44,1.18-11.16,1.77-18.69,2-5.56.19-11.59.19-17.47.13,4.15,2.17,8.3,4.25,12.3,6.15l.07,0c5.9,2.8,11.43,5.21,16.15,7.06a34.07,34.07,0,0,1-4,3c-4.23-1.72-9-3.82-13.95-6.19l-.13-.06c-4.8-2.28-9.86-4.84-15-7.56,2.15,5.24,4.39,10.37,6.61,15.15q1.39,3,2.76,5.79c-1.44.24-2.92.42-4.43.55-.71-1.48-1.44-3-2.17-4.57-2.38-5.13-4.78-10.65-7.08-16.29-2.56,5.49-4.95,10.95-7.06,16.09h0c-.55,1.37-1.09,2.71-1.61,4-1.43-.25-2.83-.54-4.19-.88.61-1.56,1.24-3.14,1.9-4.76h0c2-4.85,4.19-9.92,6.53-15-4.86,2.6-9.6,5.29-14,7.92-3.31,2-6.45,3.91-9.32,5.77a38.79,38.79,0,0,1-3.75-2.6c3.31-2.17,7-4.47,10.92-6.81s8.09-4.7,12.38-7c-4.79,0-9.52.14-14,.33-6.76.29-13,.76-18.11,1.36a17.35,17.35,0,0,1-.66-4.17c5.3-.63,11.69-1.11,18.61-1.41,4.55-.19,9.35-.31,14.24-.33-5.19-2.81-10.56-5.64-15.59-8.09-3.89-1.89-7.56-3.55-10.75-4.78a31.45,31.45,0,0,1,3.69-3.07c2.77,1.15,5.77,2.53,8.89,4,5.79,2.81,12,6.14,18,9.38-2.46-6.2-5.12-12.68-7.76-18.49-.38-.83-.75-1.64-1.13-2.45q2.11-.43,4.32-.75l.67,1.46c2.79,6.16,5.62,13.08,8.22,19.63,3-6.27,6.11-13,8.72-19.17l.82-2c1.45.19,2.88.43,4.27.71-.38.94-.78,1.91-1.19,2.88-2.42,5.79-5.33,12.07-8.18,18,5.78-3,11.78-6.22,17.21-9.39,3.23-1.88,6.23-3.73,8.79-5.47A40.35,40.35,0,0,1,325.2,29.68Z"/><path class="cls-11" d="M292.91,32.72c12.28.32,22.08,6.77,21.87,14.4s-10.32,13.54-22.6,13.21-22.08-6.77-21.87-14.4S280.63,32.39,292.91,32.72Z"/><path class="cls-12" d="M138.05,217.15v42.24l-1.93,1-121-71.88L1.31,196.3,0,195.59V154.05c4.58-2.66,9.11-5.44,13.8-7.91Z"/><polygon class="cls-13" points="138.05 217.22 138.05 259.39 136.12 260.4 127.93 255.54 127.93 222.18 138.05 217.22"/><polygon class="cls-14" points="4.64 194.43 1.31 196.3 0 195.59 0 154.13 4.64 156.78 4.64 194.43"/><polygon class="cls-14" points="136.12 218.16 136.12 260.4 13.21 189.55 13.21 147.95 136.12 218.16"/><polygon class="cls-15" points="1.31 154.75 1.31 196.3 13.21 189.55 13.21 147.95 1.31 154.75"/><polygon class="cls-16" points="140.66 120.81 58.05 167.61 52.56 164.43 135.41 117.91 140.66 120.81"/><polygon class="cls-16" points="150.65 125.93 67.45 173.06 61.97 169.88 145.4 123.03 150.65 125.93"/><polygon class="cls-16" points="160.65 131.05 76.86 178.52 71.37 175.34 155.4 128.15 160.65 131.05"/><polygon class="cls-16" points="170.65 136.17 86.27 183.97 80.78 180.79 165.4 133.27 170.65 136.17"/><path class="cls-17" d="M28.67,181.92c1.32,1.86,1.46,4,.3,4.87s-3.17,0-4.5-1.89-1.46-4-.3-4.87S27.34,180.05,28.67,181.92Z"/><path class="cls-13" d="M28.23,182.23c1,1.48,1.15,3.2.24,3.85s-2.51,0-3.56-1.49-1.16-3.2-.24-3.85S27.18,180.76,28.23,182.23Z"/><path class="cls-14" d="M28,182.41c1.05,1.47,1.15,3.2.24,3.85s-2.51,0-3.56-1.49-1.15-3.2-.24-3.85S26.93,180.94,28,182.41Z"/><path class="cls-18" d="M26.12,185.67a.47.47,0,0,1-.47-.47v-3a.47.47,0,1,1,.94,0v3A.47.47,0,0,1,26.12,185.67Z"/><path class="cls-18" d="M27.43,184.89a.46.46,0,0,1-.23-.06l-2.62-1.43a.47.47,0,1,1,.45-.83L27.65,184a.47.47,0,0,1,.19.64A.47.47,0,0,1,27.43,184.89Z"/><path class="cls-13" d="M34.38,194.65v1.76a1.39,1.39,0,0,1-.71,1.23,1.36,1.36,0,0,1-1.43,0l-13.56-7.81a2.79,2.79,0,0,1-1.43-2.47v-1.69a1.41,1.41,0,0,1,.72-1.24,1.39,1.39,0,0,1,1.42,0l13.55,7.74A2.78,2.78,0,0,1,34.38,194.65Z"/><path class="cls-8" d="M34.38,194.65v1.76a1.43,1.43,0,0,1-.21.76,1.48,1.48,0,0,1-.72-.2L19.9,189.15a2.78,2.78,0,0,1-1.43-2.47V185a1.37,1.37,0,0,1,.21-.75,1.38,1.38,0,0,1,.71.19L33,192.17A2.79,2.79,0,0,1,34.38,194.65Z"/><path class="cls-14" d="M34.13,195.09v.14a.42.42,0,0,1-.21.37.45.45,0,0,1-.42,0l-14.2-8.2a.81.81,0,0,1-.42-.73v-.12a.4.4,0,0,1,.21-.37.45.45,0,0,1,.42,0l14.2,8.18A.81.81,0,0,1,34.13,195.09Z"/><path class="cls-17" d="M49.94,194c1.33,1.87,1.46,4.05.3,4.87s-3.17,0-4.5-1.88-1.46-4.05-.3-4.87S48.61,192.15,49.94,194Z"/><path class="cls-13" d="M49.5,194.33c1,1.47,1.16,3.19.24,3.85s-2.51,0-3.56-1.49-1.15-3.2-.24-3.85S48.45,192.85,49.5,194.33Z"/><path class="cls-14" d="M49.25,194.51c1,1.47,1.16,3.19.24,3.84s-2.51,0-3.55-1.49-1.16-3.19-.25-3.84S48.2,193,49.25,194.51Z"/><path class="cls-18" d="M47.39,197.76a.47.47,0,0,1-.47-.47v-3a.47.47,0,0,1,.94,0v3A.47.47,0,0,1,47.39,197.76Z"/><path class="cls-18" d="M48.7,197a.46.46,0,0,1-.22-.06l-2.63-1.44a.46.46,0,0,1-.18-.63.46.46,0,0,1,.63-.19l2.63,1.43a.47.47,0,0,1,.18.64A.45.45,0,0,1,48.7,197Z"/><path class="cls-13" d="M55.66,206.74v1.76a1.44,1.44,0,0,1-2.15,1.24L40,201.92a2.79,2.79,0,0,1-1.42-2.47v-1.68a1.43,1.43,0,0,1,2.13-1.25l13.56,7.75A2.78,2.78,0,0,1,55.66,206.74Z"/><path class="cls-8" d="M55.66,206.74v1.76a1.41,1.41,0,0,1-.22.76,1.4,1.4,0,0,1-.71-.19l-13.56-7.82a2.78,2.78,0,0,1-1.43-2.47v-1.69a1.41,1.41,0,0,1,.22-.76,1.54,1.54,0,0,1,.71.19l13.55,7.75A2.78,2.78,0,0,1,55.66,206.74Z"/><path class="cls-14" d="M55.4,207.19v.14a.39.39,0,0,1-.21.36.4.4,0,0,1-.42,0l-14.2-8.19a.82.82,0,0,1-.42-.73v-.12a.42.42,0,0,1,.21-.37.4.4,0,0,1,.42,0L55,206.45A.83.83,0,0,1,55.4,207.19Z"/><path class="cls-17" d="M231.13,153.1l5.86-3.26a1.87,1.87,0,0,1,2.16.22,1.85,1.85,0,0,1,.55,2.09l-10.45,28.74a9.22,9.22,0,0,1-4.32,5.07l-5.87,3.26a1.9,1.9,0,0,1-2.71-2.32l10.46-28.74A9.12,9.12,0,0,1,231.13,153.1Z"/><path class="cls-19" d="M231.13,153.1l5.86-3.26a2,2,0,0,1,.56-.21,1.87,1.87,0,0,1,.16,1.65L227.26,180a9.17,9.17,0,0,1-4.32,5.06l-5.87,3.26a2.07,2.07,0,0,1-.55.21,1.84,1.84,0,0,1-.17-1.65l10.46-28.74A9.12,9.12,0,0,1,231.13,153.1Z"/><path class="cls-17" d="M251,141.84l5.86-3.26a1.91,1.91,0,0,1,2.72,2.32l-10.46,28.74a9.2,9.2,0,0,1-4.32,5.06L239,178a1.91,1.91,0,0,1-2.71-2.31l10.46-28.74A9.18,9.18,0,0,1,251,141.84Z"/><path class="cls-19" d="M251,141.84l5.86-3.26a2,2,0,0,1,.56-.2,1.87,1.87,0,0,1,.16,1.65l-10.45,28.74a9.2,9.2,0,0,1-4.32,5.06L237,177.09a1.92,1.92,0,0,1-.55.2,1.85,1.85,0,0,1-.17-1.64l10.46-28.74A9.18,9.18,0,0,1,251,141.84Z"/><path class="cls-17" d="M270.91,130.59l5.87-3.26a1.9,1.9,0,0,1,2.71,2.31L269,158.38a9.09,9.09,0,0,1-4.32,5.06l-5.86,3.26a1.9,1.9,0,0,1-2.72-2.31l10.46-28.74A9.2,9.2,0,0,1,270.91,130.59Z"/><path class="cls-19" d="M270.91,130.59l5.87-3.26a2,2,0,0,1,.55-.21,1.88,1.88,0,0,1,.17,1.65L267,157.51a9.2,9.2,0,0,1-4.32,5.06l-5.87,3.26a1.84,1.84,0,0,1-.55.21,1.91,1.91,0,0,1-.17-1.65l10.46-28.74A9.2,9.2,0,0,1,270.91,130.59Z"/><path class="cls-17" d="M326.49,97.61l5.87-3.26a1.9,1.9,0,0,1,2.71,2.31L324.61,125.4a9.15,9.15,0,0,1-4.31,5.06l-5.87,3.26a1.9,1.9,0,0,1-2.71-2.31l10.46-28.74A9.11,9.11,0,0,1,326.49,97.61Z"/><path class="cls-19" d="M326.49,97.61l5.87-3.26a2,2,0,0,1,.56-.21,1.87,1.87,0,0,1,.16,1.65l-10.46,28.74a9.12,9.12,0,0,1-4.32,5.06l-5.86,3.26a1.71,1.71,0,0,1-.56.2,1.85,1.85,0,0,1-.16-1.64l10.46-28.74A9.11,9.11,0,0,1,326.49,97.61Z"/><path class="cls-17" d="M346.39,86.35l5.86-3.26a1.87,1.87,0,0,1,2.16.22A1.85,1.85,0,0,1,355,85.4l-10.45,28.74a9.22,9.22,0,0,1-4.32,5.07l-5.87,3.25a1.9,1.9,0,0,1-2.71-2.31l10.46-28.74A9.12,9.12,0,0,1,346.39,86.35Z"/><path class="cls-19" d="M346.39,86.35l5.86-3.26a2,2,0,0,1,.56-.21,1.87,1.87,0,0,1,.16,1.65l-10.46,28.74a9.11,9.11,0,0,1-4.31,5.06l-5.87,3.26a2,2,0,0,1-.56.21,1.87,1.87,0,0,1-.16-1.65l10.46-28.74A9.12,9.12,0,0,1,346.39,86.35Z"/><path class="cls-17" d="M366.28,75.09l5.86-3.26a1.91,1.91,0,0,1,2.72,2.32L364.4,102.89a9.2,9.2,0,0,1-4.32,5.06l-5.87,3.26a1.9,1.9,0,0,1-2.71-2.32L362,80.16A9.14,9.14,0,0,1,366.28,75.09Z"/><path class="cls-19" d="M366.28,75.09l5.86-3.26a2.35,2.35,0,0,1,.56-.2,1.87,1.87,0,0,1,.16,1.65L362.41,102a9.2,9.2,0,0,1-4.32,5.06l-5.87,3.26a1.92,1.92,0,0,1-.55.2,1.87,1.87,0,0,1-.17-1.65L362,80.16A9.14,9.14,0,0,1,366.28,75.09Z"/><path class="cls-20" d="M171.56,244.72l2.08,1.13a12.58,12.58,0,0,0,5.11,1.21l-10.45-5.68-1.32.76Z"/><path class="cls-20" d="M170.13,240.34l11.73,6.36a12.27,12.27,0,0,0,1.81-.58l-12.13-6.59Z"/><polygon class="cls-20" points="173.37 238.49 185.63 245.14 187.03 244.34 174.77 237.69 173.37 238.49"/><polygon class="cls-20" points="176.61 236.64 188.88 243.3 190.28 242.5 178.01 235.84 176.61 236.64"/><polygon class="cls-20" points="179.84 234.79 192.13 241.46 193.53 240.66 181.25 233.99 179.84 234.79"/><polygon class="cls-20" points="183.08 232.94 195.38 239.61 196.79 238.81 184.48 232.14 183.08 232.94"/><path class="cls-20" d="M186.32,231.09l12.23,6.64a3.2,3.2,0,0,0,.8-1.13l-11.63-6.31Z"/><path class="cls-20" d="M189.55,229.24l9.94,5.4a3.05,3.05,0,0,0-1.5-2l-7.15-4.13Z"/><path class="cls-20" d="M208.61,230.81l-11.18-6.07-1,.57,7.26,4.19A9.46,9.46,0,0,0,208.61,230.81Z"/><path class="cls-20" d="M199.26,223.7l12.19,6.61a10.12,10.12,0,0,0,1.59-.7l-12.37-6.72Z"/><polygon class="cls-20" points="202.5 221.85 214.88 228.56 216.29 227.76 203.91 221.04 202.5 221.85"/><polygon class="cls-20" points="205.74 220 218.13 226.72 219.54 225.92 207.14 219.2 205.74 220"/><polygon class="cls-20" points="208.97 218.15 221.38 224.88 222.79 224.08 210.38 217.35 208.97 218.15"/><polygon class="cls-20" points="212.21 216.3 224.63 223.04 226.04 222.24 213.62 215.5 212.21 216.3"/><polygon class="cls-20" points="215.45 214.45 227.88 221.2 229.29 220.4 216.85 213.65 215.45 214.45"/><polygon class="cls-20" points="218.69 212.6 231.13 219.36 232.54 218.56 220.09 211.8 218.69 212.6"/><polygon class="cls-20" points="221.92 210.75 234.38 217.51 235.79 216.72 223.33 209.95 221.92 210.75"/><polygon class="cls-20" points="225.16 208.9 237.63 215.67 239.04 214.87 226.56 208.1 225.16 208.9"/><polygon class="cls-20" points="228.4 207.06 240.88 213.83 242.29 213.03 229.8 206.25 228.4 207.06"/><polygon class="cls-20" points="231.63 205.21 244.13 211.99 245.54 211.19 233.04 204.4 231.63 205.21"/><polygon class="cls-20" points="234.87 203.36 247.38 210.15 248.79 209.35 236.28 202.56 234.87 203.36"/><polygon class="cls-20" points="238.11 201.51 250.63 208.31 252.04 207.51 239.51 200.71 238.11 201.51"/><polygon class="cls-20" points="241.34 199.66 253.88 206.47 255.29 205.67 242.75 198.86 241.34 199.66"/><polygon class="cls-20" points="244.58 197.81 257.13 204.62 258.54 203.82 245.99 197.01 244.58 197.81"/><polygon class="cls-20" points="247.82 195.96 260.38 202.78 261.79 201.98 249.22 195.16 247.82 195.96"/><polygon class="cls-20" points="251.06 194.11 263.63 200.94 265.04 200.14 252.46 193.31 251.06 194.11"/><polygon class="cls-20" points="254.29 192.26 266.88 199.1 268.3 198.3 255.7 191.46 254.29 192.26"/><polygon class="cls-20" points="257.53 190.41 270.13 197.26 271.55 196.46 258.93 189.61 257.53 190.41"/><polygon class="cls-20" points="260.77 188.56 273.39 195.41 274.8 194.62 262.17 187.76 260.77 188.56"/><polygon class="cls-20" points="264 186.72 276.64 193.57 278.05 192.77 265.41 185.91 264 186.72"/><polygon class="cls-20" points="267.24 184.87 279.89 191.73 281.3 190.93 268.64 184.06 267.24 184.87"/><polygon class="cls-20" points="270.48 183.02 283.14 189.89 284.55 189.09 271.88 182.22 270.48 183.02"/><polygon class="cls-20" points="273.71 181.17 286.39 188.05 287.8 187.25 275.12 180.37 273.71 181.17"/><polygon class="cls-20" points="276.95 179.32 289.64 186.21 291.05 185.41 278.36 178.52 276.95 179.32"/><polygon class="cls-20" points="280.19 177.47 292.89 184.36 294.3 183.57 281.59 176.67 280.19 177.47"/><polygon class="cls-20" points="283.43 175.62 296.14 182.52 297.55 181.72 284.83 174.82 283.43 175.62"/><polygon class="cls-20" points="286.66 173.77 299.39 180.68 300.8 179.88 288.07 172.97 286.66 173.77"/><polygon class="cls-20" points="289.9 171.93 302.64 178.84 304.05 178.04 291.3 171.12 289.9 171.93"/><polygon class="cls-20" points="293.14 170.08 305.89 177 307.3 176.2 294.54 169.27 293.14 170.08"/><path class="cls-20" d="M296.37,168.23l12.5,6.78a4.18,4.18,0,0,0,.73-1.17l-11.82-6.41Z"/><path class="cls-20" d="M299.61,166.38l10.32,5.6a4.44,4.44,0,0,0-.42-1.79l-8.5-4.61Z"/><polygon class="cls-17" points="61.23 193.38 62.62 194.17 64.01 194.95 64.71 196.54 65.41 198.14 64.72 198.95 64.04 199.77 62.65 198.99 61.27 198.21 60.56 196.61 59.86 195.01 60.55 194.2 61.23 193.38"/><polygon class="cls-14" points="73.56 193.43 65.41 198.14 64.01 194.95 72.15 190.24 73.56 193.43"/><polygon class="cls-17" points="72.19 195.06 64.04 199.77 65.41 198.14 73.56 193.43 72.19 195.06"/><path class="cls-8" d="M63.7,195.8c.7,1,.77,2.14.16,2.58s-1.69,0-2.39-1-.77-2.15-.16-2.58S63,194.81,63.7,195.8Z"/><path class="cls-21" d="M110.44,211.54v3.6a2.83,2.83,0,0,1-1.14,2.32h0a3.62,3.62,0,0,1-.32.22l-.35.17L101,222.22,68.56,195.37l8.46-4.9,0,0a2.83,2.83,0,0,1,2.69.11l27.76,15.86A5.7,5.7,0,0,1,110.44,211.54Z"/><path class="cls-17" d="M102.5,216.08v3.61a2.93,2.93,0,0,1-4.39,2.53l-27.77-16a5.7,5.7,0,0,1-2.92-5.06v-3.46a2.92,2.92,0,0,1,4.38-2.54L99.56,211A5.71,5.71,0,0,1,102.5,216.08Z"/><path class="cls-8" d="M101.58,216v3A2.42,2.42,0,0,1,98,221.1L70.75,205.39a4.7,4.7,0,0,1-2.41-4.17v-2.85A2.41,2.41,0,0,1,72,196.28l27.2,15.58A4.7,4.7,0,0,1,101.58,216Z"/><polygon class="cls-19" points="73.55 200.44 71.55 199.31 71.53 197.04 73.53 198.17 73.55 200.44"/><polygon class="cls-19" points="73.6 203.32 71.6 202.19 71.58 199.92 73.58 201.05 73.6 203.32"/><polygon class="cls-19" points="76.04 201.82 74.04 200.69 74.02 198.42 76.02 199.55 76.04 201.82"/><polygon class="cls-19" points="78.53 203.2 76.53 202.07 76.5 199.8 78.5 200.93 78.53 203.2"/><polygon class="cls-19" points="81.01 204.57 79.01 203.44 78.99 201.18 80.99 202.31 81.01 204.57"/><polygon class="cls-19" points="83.5 205.95 81.5 204.82 81.48 202.56 83.47 203.68 83.5 205.95"/><polygon class="cls-19" points="85.99 207.33 83.98 206.2 83.96 203.93 85.96 205.06 85.99 207.33"/><polygon class="cls-19" points="88.47 208.71 86.47 207.58 86.45 205.31 88.45 206.44 88.47 208.71"/><polygon class="cls-19" points="90.96 210.09 88.96 208.95 88.94 206.69 90.93 207.82 90.96 210.09"/><polygon class="cls-19" points="76.09 204.69 74.08 203.56 74.06 201.3 76.06 202.43 76.09 204.69"/><polygon class="cls-19" points="78.57 206.07 76.57 204.94 76.55 202.67 78.55 203.8 78.57 206.07"/><polygon class="cls-19" points="81.06 207.45 79.06 206.32 79.04 204.05 81.03 205.18 81.06 207.45"/><polygon class="cls-19" points="83.55 208.83 81.54 207.69 81.52 205.43 83.52 206.56 83.55 208.83"/><polygon class="cls-19" points="86.03 210.2 84.03 209.07 84.01 206.81 86.01 207.94 86.03 210.2"/><polygon class="cls-19" points="88.52 211.58 86.52 210.45 86.5 208.18 88.49 209.31 88.52 211.58"/><polygon class="cls-19" points="91 212.96 89 211.83 88.98 209.56 90.98 210.69 91 212.96"/><polygon class="cls-19" points="73.6 206.13 71.6 204.99 71.58 202.73 73.58 203.86 73.6 206.13"/><polygon class="cls-19" points="76.09 207.5 74.08 206.37 74.06 204.11 76.06 205.24 76.09 207.5"/><polygon class="cls-19" points="78.57 208.88 76.57 207.75 76.55 205.48 78.55 206.61 78.57 208.88"/><polygon class="cls-19" points="81.06 210.26 79.06 209.13 79.04 206.86 81.03 207.99 81.06 210.26"/><polygon class="cls-19" points="83.55 211.64 81.54 210.5 81.52 208.24 83.52 209.37 83.55 211.64"/><polygon class="cls-19" points="86.03 213.01 84.03 211.88 84.01 209.62 86.01 210.75 86.03 213.01"/><polygon class="cls-19" points="88.52 214.39 86.52 213.26 86.5 210.99 88.49 212.12 88.52 214.39"/><polygon class="cls-19" points="91 215.77 89 214.64 88.98 212.37 90.98 213.5 91 215.77"/><polygon class="cls-19" points="94.09 211.9 92.08 210.77 92.06 208.5 94.06 209.63 94.09 211.9"/><polygon class="cls-19" points="99.06 214.66 97.06 213.53 97.04 211.26 99.03 212.39 99.06 214.66"/><polygon class="cls-19" points="94.13 217.59 92.13 216.45 92.11 214.19 94.11 215.32 94.13 217.59"/><polygon class="cls-19" points="99.11 220.34 97.1 219.21 97.08 216.94 99.08 218.07 99.11 220.34"/><polygon class="cls-22" points="117.12 215.12 108.97 219.83 106.18 218.22 114.32 213.52 117.12 215.12"/><polygon class="cls-17" points="106.22 218.25 107.61 219.04 108.99 219.82 109.69 221.41 110.39 223.01 109.71 223.82 109.02 224.64 107.64 223.86 106.25 223.07 105.55 221.48 104.85 219.88 105.53 219.07 106.22 218.25"/><polygon class="cls-14" points="118.55 218.3 110.39 223.01 108.99 219.82 117.14 215.11 118.55 218.3"/><polygon class="cls-17" points="117.17 219.93 109.02 224.64 110.39 223.01 118.54 218.3 117.17 219.93"/><path class="cls-8" d="M108.68,220.66c.7,1,.77,2.15.16,2.59s-1.68,0-2.38-1-.78-2.15-.17-2.58S108,219.68,108.68,220.66Z"/><polygon class="cls-23" points="72.14 190.25 63.99 194.97 61.19 193.35 69.34 188.65 72.14 190.25"/><polygon class="cls-17" points="60.14 215.14 61.53 215.92 62.92 216.71 63.62 218.3 64.32 219.9 63.63 220.71 62.95 221.52 61.56 220.74 60.17 219.96 59.47 218.37 58.77 216.77 59.46 215.96 60.14 215.14"/><polygon class="cls-14" points="72.47 215.19 64.32 219.9 62.92 216.71 71.06 212 72.47 215.19"/><polygon class="cls-17" points="71.1 216.81 62.95 221.52 64.32 219.9 72.46 215.19 71.1 216.81"/><path class="cls-8" d="M62.6,217.55c.71,1,.78,2.15.17,2.58s-1.69,0-2.39-1-.77-2.14-.16-2.58S61.9,216.56,62.6,217.55Z"/><path class="cls-24" d="M109.35,233.3v3.6a2.85,2.85,0,0,1-1.14,2.32h0a2.2,2.2,0,0,1-.32.21l-.36.18L100,244,67.47,217.13l8.45-4.9,0,0a2.87,2.87,0,0,1,2.7.11l27.76,15.86A5.71,5.71,0,0,1,109.35,233.3Z"/><path class="cls-17" d="M101.41,237.84v3.6A2.86,2.86,0,0,1,100,244,2.9,2.9,0,0,1,97,244L69.25,228a5.72,5.72,0,0,1-2.92-5.07v-3.45a2.92,2.92,0,0,1,4.37-2.54l27.77,15.86A5.68,5.68,0,0,1,101.41,237.84Z"/><path class="cls-8" d="M100.48,237.8v3a2.41,2.41,0,0,1-3.61,2.09l-27.21-15.7A4.72,4.72,0,0,1,67.25,223v-2.85a2.41,2.41,0,0,1,3.61-2.1l27.2,15.58A4.72,4.72,0,0,1,100.48,237.8Z"/><polygon class="cls-19" points="72.46 222.2 70.46 221.07 70.44 218.8 72.44 219.93 72.46 222.2"/><polygon class="cls-19" points="72.51 225.07 70.51 223.94 70.49 221.68 72.48 222.8 72.51 225.07"/><polygon class="cls-19" points="74.95 223.58 72.95 222.44 72.93 220.18 74.92 221.31 74.95 223.58"/><polygon class="cls-19" points="77.44 224.95 75.43 223.82 75.41 221.56 77.41 222.69 77.44 224.95"/><polygon class="cls-19" points="79.92 226.33 77.92 225.2 77.9 222.94 79.9 224.06 79.92 226.33"/><polygon class="cls-19" points="82.41 227.71 80.41 226.58 80.39 224.31 82.38 225.44 82.41 227.71"/><polygon class="cls-19" points="84.89 229.09 82.89 227.96 82.87 225.69 84.87 226.82 84.89 229.09"/><polygon class="cls-19" points="87.38 230.47 85.38 229.33 85.36 227.07 87.36 228.2 87.38 230.47"/><polygon class="cls-19" points="89.87 231.84 87.87 230.71 87.84 228.44 89.84 229.57 89.87 231.84"/><polygon class="cls-19" points="75 226.45 72.99 225.32 72.97 223.05 74.97 224.18 75 226.45"/><polygon class="cls-19" points="77.48 227.83 75.48 226.7 75.46 224.43 77.46 225.56 77.48 227.83"/><polygon class="cls-19" points="79.97 229.21 77.97 228.07 77.94 225.81 79.94 226.94 79.97 229.21"/><polygon class="cls-19" points="82.45 230.58 80.45 229.45 80.43 227.19 82.43 228.31 82.45 230.58"/><polygon class="cls-19" points="84.94 231.96 82.94 230.83 82.92 228.56 84.92 229.69 84.94 231.96"/><polygon class="cls-19" points="87.43 233.34 85.42 232.21 85.4 229.94 87.4 231.07 87.43 233.34"/><polygon class="cls-19" points="89.91 234.72 87.91 233.58 87.89 231.32 89.89 232.45 89.91 234.72"/><polygon class="cls-19" points="72.51 227.88 70.51 226.75 70.49 224.49 72.48 225.61 72.51 227.88"/><polygon class="cls-19" points="75 229.26 72.99 228.13 72.97 225.86 74.97 226.99 75 229.26"/><polygon class="cls-19" points="77.48 230.64 75.48 229.51 75.46 227.24 77.46 228.37 77.48 230.64"/><polygon class="cls-19" points="79.97 232.02 77.97 230.88 77.94 228.62 79.94 229.75 79.97 232.02"/><polygon class="cls-19" points="82.45 233.39 80.45 232.26 80.43 230 82.43 231.13 82.45 233.39"/><polygon class="cls-19" points="84.94 234.77 82.94 233.64 82.92 231.37 84.92 232.5 84.94 234.77"/><polygon class="cls-19" points="87.43 236.15 85.42 235.02 85.4 232.75 87.4 233.88 87.43 236.15"/><polygon class="cls-19" points="89.91 237.53 87.91 236.39 87.89 234.13 89.89 235.26 89.91 237.53"/><polygon class="cls-19" points="93 233.66 90.99 232.53 90.97 230.26 92.97 231.39 93 233.66"/><polygon class="cls-19" points="97.97 236.41 95.97 235.28 95.94 233.01 97.94 234.14 97.97 236.41"/><polygon class="cls-19" points="93.04 239.34 91.04 238.21 91.02 235.94 93.02 237.07 93.04 239.34"/><polygon class="cls-19" points="98.01 242.1 96.01 240.97 95.99 238.7 97.99 239.83 98.01 242.1"/><polygon class="cls-25" points="116.03 236.88 107.88 241.59 105.08 239.98 113.23 235.27 116.03 236.88"/><polygon class="cls-17" points="105.13 240.01 106.51 240.79 107.9 241.57 108.6 243.17 109.3 244.76 108.62 245.58 107.93 246.39 106.54 245.61 105.16 244.83 104.46 243.24 103.76 241.64 104.44 240.82 105.13 240.01"/><polygon class="cls-14" points="117.45 240.06 109.3 244.76 107.9 241.57 116.05 236.87 117.45 240.06"/><polygon class="cls-17" points="116.08 241.68 107.93 246.39 109.3 244.76 117.45 240.06 116.08 241.68"/><path class="cls-8" d="M107.59,242.42c.7,1,.77,2.15.16,2.58s-1.68,0-2.39-1-.77-2.14-.16-2.58S106.89,241.43,107.59,242.42Z"/><polygon class="cls-26" points="71.05 212.01 62.9 216.72 60.1 215.11 68.25 210.4 71.05 212.01"/><path class="cls-27" d="M292.86,32.41c10.58.28,19,5.84,18.83,12.4S302.8,56.48,292.23,56.2s-19-5.84-18.83-12.4S282.29,32.13,292.86,32.41Z"/><path class="cls-28" d="M199,88c10.57.29,19,5.84,18.83,12.4s-8.89,11.67-19.46,11.39-19-5.84-18.84-12.4S188.41,87.74,199,88Z"/></g></g></svg>