<svg xmlns="http://www.w3.org/2000/svg" xmlns:xlink="http://www.w3.org/1999/xlink" viewBox="0 0 400 293.91"><defs><style>.cls-1{fill:#acd5ea;}.cls-1,.cls-11,.cls-12,.cls-2,.cls-3,.cls-4,.cls-5,.cls-6,.cls-7,.cls-8,.cls-9{fill-rule:evenodd;}.cls-2{fill:#414042;}.cls-3{fill:#808285;}.cls-4{fill:#58595b;}.cls-5{fill:#b1b3b6;}.cls-6{fill:url(#GradientFill_12);}.cls-7{fill:url(#GradientFill_13);}.cls-8{fill:#a7a9ac;}.cls-9{fill:#d1d3d4;}.cls-10{fill:#6d6e71;}.cls-11{fill:#e6e7e8;}.cls-12{fill:#90c440;}.cls-13{fill:#81806f;}</style><linearGradient id="GradientFill_12" x1="272.29" y1="-63.41" x2="126.83" y2="279.26" gradientUnits="userSpaceOnUse"><stop offset="0" stop-color="#d1d3d4"/><stop offset="0.68" stop-color="#e2e3e4"/><stop offset="0.83" stop-color="#fff"/><stop offset="1" stop-color="#fff"/></linearGradient><linearGradient id="GradientFill_13" x1="133" y1="243.88" x2="250.22" y2="-7.5" gradientUnits="userSpaceOnUse"><stop offset="0" stop-color="#fff"/><stop offset="0.1" stop-color="#fff"/><stop offset="0.38" stop-color="#e2e3e4"/><stop offset="1" stop-color="#bcbec0"/></linearGradient></defs><g id="Layer_2" data-name="Layer 2"><g id="HardDrives"><path class="cls-1" d="M3.41,192.51,217.66,70.86a43.82,43.82,0,0,1,44.24-.07l130.66,73.62a14.61,14.61,0,0,1,.05,25.43L179.32,290.9a21.91,21.91,0,0,1-22.13,0L3.43,204.24a6.74,6.74,0,0,1,0-11.73Z"/><polygon class="cls-2" points="13.09 201.34 45.03 182.85 16.42 172.63 8.81 195.35 13.09 201.34"/><polygon class="cls-2" points="127.87 266.77 127.87 249.05 152.5 236.91 152.03 253.65 127.87 266.77"/><polygon class="cls-2" points="6.39 179.78 127.87 249.05 139.84 241.96 16.91 175.71 6.39 179.78"/><polygon class="cls-3" points="127.87 249.05 127.87 266.77 75.27 236.79 75.27 226.61 73.2 223.35 15.28 191.34 13.09 192.24 13.09 201.34 6.39 197.52 6.39 179.78 127.87 249.05"/><path class="cls-4" d="M64.83,138.55,215.9,52.77a42.2,42.2,0,0,1,42.58-.07l81,45.67h51.81v37.39A13.73,13.73,0,0,1,384.23,148L179,264.48a21,21,0,0,1-21.29,0L9.79,180.15a6.39,6.39,0,0,1-3.3-5.64v-36Z"/><path class="cls-3" d="M164.05,266.92a22,22,0,0,1-6.32-2.41L9.79,180.15a6.39,6.39,0,0,1-3.3-5.64v-36H30.63l133.42,76.66Z"/><path class="cls-2" d="M9.78,133.14,215.9,16.1A42.2,42.2,0,0,1,258.48,16L384.19,86.86a14.05,14.05,0,0,1,0,24.46L179,227.8a21.09,21.09,0,0,1-21.29,0L9.79,144.43a6.48,6.48,0,0,1,0-11.29Z"/><path class="cls-5" d="M9.78,128l206.12-117a42.2,42.2,0,0,1,42.58-.07L384.19,81.71a14.05,14.05,0,0,1,0,24.46L179,222.65a21.11,21.11,0,0,1-21.29,0L9.79,139.27a6.48,6.48,0,0,1,0-11.29Z"/><path class="cls-6" d="M9.78,122.84,215.9,5.8a42.2,42.2,0,0,1,42.58-.07L384.19,76.56a14.06,14.06,0,0,1,0,24.47L179,217.51a21.11,21.11,0,0,1-21.29,0L9.79,134.13a6.48,6.48,0,0,1,0-11.29Z"/><path class="cls-5" d="M64.79,106.14,79,98.06a21.06,21.06,0,0,1,20.47-.47,32.09,32.09,0,0,0,13.58,3.24c12.41.32,22.64-5.65,22.85-13.36a9.89,9.89,0,0,0-2.19-6.27,10.82,10.82,0,0,1,3.33-16L163.2,50.6,279,38.88c39.25,16.93,85,52.4,40.92,83.5a21,21,0,0,1-18.33,3.13,34.86,34.86,0,0,0-8.46-1.25c-12.4-.33-22.64,5.65-22.84,13.36a9,9,0,0,0,.46,3.08,10.72,10.72,0,0,1-4.92,12.8L182.07,201a17.82,17.82,0,0,1-18,0L135,184.69a10.81,10.81,0,0,1-1.8-17.55,10.67,10.67,0,0,0,4-7.68c.2-7.71-9.7-14.23-22.11-14.56-8.77-.23-16.46,2.69-20.28,7.15a10.73,10.73,0,0,1-13.52,2.38l-14.8-8.35a10.8,10.8,0,0,1-4.3-14.36,9.09,9.09,0,0,0,1-4,9.76,9.76,0,0,0-1.95-6,10.81,10.81,0,0,1,3.48-15.66Z"/><path class="cls-7" d="M64.79,102.63,79,94.56a21.06,21.06,0,0,1,20.47-.47,32.09,32.09,0,0,0,13.58,3.23c12.41.33,22.64-5.65,22.85-13.35a9.89,9.89,0,0,0-2.19-6.27,10.81,10.81,0,0,1,3.33-16L163.2,47.09,279,35.38c39.25,16.92,85,52.4,40.92,83.49A21,21,0,0,1,301.59,122a34.85,34.85,0,0,0-8.46-1.26c-12.4-.32-22.64,5.65-22.84,13.36a8.93,8.93,0,0,0,.46,3.08A10.74,10.74,0,0,1,265.83,150l-83.76,47.54a17.87,17.87,0,0,1-18,0L135,181.19a10.82,10.82,0,0,1-1.8-17.56,10.67,10.67,0,0,0,4-7.68c.2-7.71-9.7-14.23-22.11-14.55-8.77-.23-16.46,2.69-20.28,7.14a10.73,10.73,0,0,1-13.52,2.39l-14.8-8.35a10.81,10.81,0,0,1-4.3-14.36,9.09,9.09,0,0,0,1-4,9.73,9.73,0,0,0-1.95-6,10.82,10.82,0,0,1,3.48-15.67Z"/><path class="cls-2" d="M41.42,115c10.12.27,18.19,5.58,18,11.86S50.93,138,40.81,137.78s-18.18-5.59-18-11.87S31.3,114.75,41.42,115Z"/><path class="cls-3" d="M41.42,113.8c10.12.27,18.19,5.58,18,11.87s-8.51,11.16-18.63,10.89-18.18-5.58-18-11.86S31.3,113.54,41.42,113.8Z"/><path class="cls-2" d="M113,148.34c10.12.26,18.18,5.58,18,11.86s-8.51,11.16-18.63,10.89-18.19-5.58-18-11.86S102.9,148.07,113,148.34Z"/><path class="cls-3" d="M113,147.12c10.12.27,18.18,5.58,18,11.87s-8.51,11.16-18.63,10.89-18.19-5.58-18-11.87S102.9,146.85,113,147.12Z"/><path class="cls-2" d="M114.57,72.79c10.11.27,18.18,5.58,18,11.86S124.08,95.82,114,95.55,95.77,90,95.94,83.68,104.45,72.52,114.57,72.79Z"/><path class="cls-3" d="M114.57,71.57c10.11.27,18.18,5.59,18,11.87S124.08,94.6,114,94.33s-18.19-5.58-18-11.86S104.45,71.31,114.57,71.57Z"/><path class="cls-2" d="M219.14,14.55c10.12.27,18.19,5.58,18,11.86s-8.51,11.16-18.63,10.89-18.18-5.58-18-11.86S209,14.28,219.14,14.55Z"/><path class="cls-3" d="M219.14,13.33c10.12.27,18.19,5.58,18,11.87s-8.51,11.16-18.63,10.89-18.18-5.58-18-11.87S209,13.06,219.14,13.33Z"/><path class="cls-3" d="M292.1,140c-3.42.16-6.27-1.42-6.37-3.55s2.59-4,6-4.14,6.28,1.43,6.38,3.55S295.52,139.79,292.1,140Z"/><path class="cls-8" d="M292.06,139.14c-2.7.13-4.95-1.12-5-2.8s2-3.14,4.74-3.27,5,1.12,5,2.8S294.77,139,292.06,139.14Z"/><path class="cls-9" d="M292,138.69c-2.7.13-5-1.13-5-2.81s2.05-3.14,4.75-3.27,5,1.13,5,2.8S294.74,138.56,292,138.69Z"/><path class="cls-10" d="M293.8,137.21a.67.67,0,0,1-.38-.11l-3.76-2.41a.7.7,0,0,1-.22-1,.71.71,0,0,1,1-.22l3.77,2.42a.71.71,0,0,1,.21,1A.69.69,0,0,1,293.8,137.21Z"/><path class="cls-10" d="M290,137.08a.7.7,0,0,1-.61-.37.69.69,0,0,1,.28-1l3.92-2.15a.71.71,0,0,1,.68,1.24L290.29,137A.69.69,0,0,1,290,137.08Z"/><path class="cls-3" d="M170.31,214.14c-3.42.16-6.28-1.42-6.38-3.55s2.59-4,6-4.14,6.27,1.43,6.38,3.55S173.73,214,170.31,214.14Z"/><path class="cls-8" d="M170.27,213.33c-2.7.13-5-1.12-5-2.8s2.05-3.14,4.75-3.27,5,1.12,5,2.8S173,213.2,170.27,213.33Z"/><path class="cls-9" d="M170.25,212.88c-2.71.13-5-1.13-5-2.81s2-3.14,4.74-3.27,5,1.13,5,2.8S173,212.75,170.25,212.88Z"/><path class="cls-10" d="M172,211.4a.62.62,0,0,1-.37-.11l-3.77-2.41a.71.71,0,0,1,.76-1.19l3.76,2.42a.7.7,0,0,1,.21,1A.68.68,0,0,1,172,211.4Z"/><path class="cls-10" d="M168.16,211.27a.7.7,0,0,1-.34-1.32l3.92-2.15a.71.71,0,0,1,.68,1.24l-3.92,2.14A.72.72,0,0,1,168.16,211.27Z"/><path class="cls-3" d="M349.89,72.8c-3.42.17-6.27-1.42-6.37-3.54s2.58-4,6-4.15,6.28,1.43,6.38,3.55S353.31,72.64,349.89,72.8Z"/><path class="cls-8" d="M349.85,72c-2.7.13-5-1.13-5-2.81s2.05-3.14,4.75-3.27,5,1.13,5,2.8S352.55,71.87,349.85,72Z"/><path class="cls-9" d="M349.83,71.54c-2.7.13-5-1.13-5-2.8s2-3.15,4.75-3.28,5,1.13,5,2.81S352.53,71.41,349.83,71.54Z"/><path class="cls-10" d="M351.58,70.07a.63.63,0,0,1-.37-.12l-3.77-2.41a.7.7,0,1,1,.76-1.18L352,68.77a.7.7,0,0,1,.22,1A.72.72,0,0,1,351.58,70.07Z"/><path class="cls-10" d="M347.74,69.93a.67.67,0,0,1-.61-.37.69.69,0,0,1,.27-1l3.93-2.14A.7.7,0,0,1,352,67.7l-3.92,2.15A.81.81,0,0,1,347.74,69.93Z"/><path class="cls-11" d="M103,113.77l66.75-37.56a20.72,20.72,0,0,1,8.49-2.68l72.74-7.16A20.74,20.74,0,0,1,263.56,69l36.69,20.4a7.41,7.41,0,0,1,0,12.89L192.14,163.65a11.12,11.12,0,0,1-11.22,0L103,119.72a3.42,3.42,0,0,1,0-6Z"/><path class="cls-12" d="M119.78,104.31l89.89,49.4-17.53,9.94a11.12,11.12,0,0,1-11.22,0L103,119.72a3.42,3.42,0,0,1,0-6Z"/><path class="cls-12" d="M286.51,110.09,213.66,70l37.28-3.67A20.74,20.74,0,0,1,263.56,69l36.69,20.4a7.41,7.41,0,0,1,0,12.89Z"/><polygon class="cls-2" points="125.61 249.35 125.61 262.82 98.06 247.25 98.06 233.87 125.61 249.35"/><path class="cls-13" d="M121.13,255.39l4.48-2.64v1.69l-4.48,2.65v-1.7Zm0-5.73V248l.71-.42a.73.73,0,1,1,.74,1.26Zm-.71,7.85a.73.73,0,1,1-.74-1.26l1.45-.86v1.7l-.71.42Zm.71-9.55v1.7l-6.62,3.9v-1.69l6.62-3.91Zm-6.62-1.83v-1.69l.71-.42a.72.72,0,0,1,1,.26.74.74,0,0,1-.26,1Zm0-1.69v1.69L107.88,250v-1.69l6.63-3.91Zm0,7.43v1.69l-.71.42a.73.73,0,0,1-.75-1.25l1.46-.86Zm-6.63-9.26v-1.69l.72-.42a.73.73,0,1,1,.74,1.25Zm0-1.69v1.69l-7.32,4.32a.73.73,0,1,1-.75-1.25l8.07-4.76Zm0,7.43V250l-.7.42a.73.73,0,0,1-.75-1.26Z"/><path class="cls-13" d="M121.12,251.68a.73.73,0,1,1-.74-1.25l3.49-2.06,1.47.82-4.22,2.49Zm-16.58-14.2,1.47.83-4.75,2.8a.72.72,0,0,1-1-.26.74.74,0,0,1,.26-1l4-2.37Zm6.45,3.63,1.46.83-4.57,2.7a.74.74,0,0,1-1-.26.73.73,0,0,1,.26-1l3.85-2.27Zm6.44,3.63,1.47.83-4.4,2.59a.73.73,0,0,1-.74-1.26Z"/><polygon class="cls-2" points="96.15 232.87 96.15 246.34 80.66 237.59 80.66 224.2 96.15 232.87"/></g></g></svg>