<svg xmlns="http://www.w3.org/2000/svg" xmlns:xlink="http://www.w3.org/1999/xlink" viewBox="0 0 400 245.89"><defs><style>.cls-1{fill:#acd5ea;}.cls-1,.cls-10,.cls-100,.cls-101,.cls-102,.cls-103,.cls-104,.cls-105,.cls-106,.cls-107,.cls-108,.cls-109,.cls-11,.cls-110,.cls-111,.cls-112,.cls-113,.cls-114,.cls-115,.cls-116,.cls-12,.cls-13,.cls-14,.cls-15,.cls-16,.cls-17,.cls-18,.cls-19,.cls-2,.cls-20,.cls-21,.cls-22,.cls-23,.cls-24,.cls-25,.cls-26,.cls-27,.cls-28,.cls-29,.cls-3,.cls-30,.cls-31,.cls-32,.cls-33,.cls-34,.cls-35,.cls-36,.cls-37,.cls-38,.cls-39,.cls-40,.cls-41,.cls-42,.cls-43,.cls-44,.cls-45,.cls-46,.cls-48,.cls-49,.cls-5,.cls-50,.cls-51,.cls-52,.cls-53,.cls-54,.cls-55,.cls-56,.cls-57,.cls-58,.cls-59,.cls-6,.cls-60,.cls-61,.cls-62,.cls-63,.cls-64,.cls-65,.cls-66,.cls-67,.cls-68,.cls-69,.cls-7,.cls-70,.cls-71,.cls-72,.cls-73,.cls-74,.cls-75,.cls-76,.cls-77,.cls-78,.cls-79,.cls-8,.cls-80,.cls-81,.cls-82,.cls-83,.cls-84,.cls-85,.cls-86,.cls-87,.cls-88,.cls-89,.cls-9,.cls-90,.cls-91,.cls-92,.cls-93,.cls-94,.cls-95,.cls-96,.cls-97,.cls-98,.cls-99{fill-rule:evenodd;}.cls-2{fill:#0d3a4e;}.cls-3{fill:#397184;}.cls-4{fill:#639aa9;}.cls-5{fill:#649bad;}.cls-6{fill:url(#GradientFill_1);}.cls-7{fill:#7bab33;}.cls-8{fill:#5e8228;}.cls-9{fill:url(#GradientFill_2);}.cls-10{fill:#58595b;}.cls-11{fill:#414042;}.cls-12{fill:url(#GradientFill_1-2);}.cls-13{fill:#527320;}.cls-14{fill:#90c440;}.cls-15{fill:url(#GradientFill_2-2);}.cls-16{fill:url(#GradientFill_3);}.cls-17{fill:#231f20;}.cls-18{fill:url(#GradientFill_4);}.cls-19{fill:url(#GradientFill_4-2);}.cls-20{fill:url(#GradientFill_5);}.cls-21{fill:url(#GradientFill_5-2);}.cls-22{fill:url(#GradientFill_5-3);}.cls-23{fill:#a7a9ac;}.cls-24{fill:url(#GradientFill_6);}.cls-25,.cls-47{fill:#808285;}.cls-26{fill:#939598;}.cls-27{fill:url(#GradientFill_6-2);}.cls-28{fill:url(#GradientFill_1-3);}.cls-29{fill:url(#GradientFill_1-4);}.cls-30{fill:url(#GradientFill_1-5);}.cls-31{fill:url(#GradientFill_7);}.cls-32{fill:url(#GradientFill_8);}.cls-33{fill:#383431;}.cls-34{fill:url(#GradientFill_7-2);}.cls-35{fill:url(#GradientFill_8-2);}.cls-36{fill:url(#GradientFill_7-3);}.cls-37{fill:url(#GradientFill_6-3);}.cls-38{fill:#828487;}.cls-39{fill:url(#GradientFill_5-4);}.cls-40{fill:url(#GradientFill_3-2);}.cls-41{fill:url(#GradientFill_3-3);}.cls-42{fill:url(#GradientFill_3-4);}.cls-43{fill:url(#GradientFill_3-5);}.cls-44{fill:url(#GradientFill_3-6);}.cls-45{fill:url(#GradientFill_3-7);}.cls-46{fill:#6d6e71;}.cls-48{fill:url(#GradientFill_9);}.cls-49{fill:url(#GradientFill_5-5);}.cls-50{fill:url(#GradientFill_4-3);}.cls-51{fill:url(#GradientFill_5-6);}.cls-52{fill:url(#GradientFill_5-7);}.cls-53{fill:url(#GradientFill_5-8);}.cls-54{fill:url(#GradientFill_5-9);}.cls-55{fill:url(#GradientFill_4-4);}.cls-56{fill:url(#GradientFill_5-10);}.cls-57{fill:url(#GradientFill_4-5);}.cls-58{fill:url(#GradientFill_4-6);}.cls-59{fill:url(#GradientFill_4-7);}.cls-60{fill:url(#GradientFill_4-8);}.cls-61{fill:url(#GradientFill_10);}.cls-62{fill:url(#GradientFill_4-9);}.cls-63{fill:url(#GradientFill_4-10);}.cls-64{fill:url(#GradientFill_4-11);}.cls-65{fill:url(#GradientFill_4-12);}.cls-66{fill:url(#GradientFill_4-13);}.cls-67{fill:url(#GradientFill_4-14);}.cls-68{fill:url(#GradientFill_4-15);}.cls-69{fill:url(#GradientFill_4-16);}.cls-70{fill:url(#GradientFill_4-17);}.cls-71{fill:url(#GradientFill_4-18);}.cls-72{fill:url(#GradientFill_4-19);}.cls-73{fill:url(#GradientFill_4-20);}.cls-74{fill:url(#GradientFill_4-21);}.cls-75{fill:url(#GradientFill_4-22);}.cls-76{fill:url(#GradientFill_6-4);}.cls-77{fill:url(#GradientFill_6-5);}.cls-78{fill:url(#GradientFill_4-23);}.cls-79{fill:url(#GradientFill_4-24);}.cls-80{fill:url(#GradientFill_4-25);}.cls-81{fill:url(#GradientFill_4-26);}.cls-82{fill:url(#GradientFill_4-27);}.cls-83{fill:url(#GradientFill_4-28);}.cls-84{fill:url(#GradientFill_4-29);}.cls-85{fill:url(#GradientFill_4-30);}.cls-86{fill:url(#GradientFill_4-31);}.cls-87{fill:url(#GradientFill_4-32);}.cls-88{fill:url(#GradientFill_4-33);}.cls-89{fill:url(#GradientFill_10-2);}.cls-90{fill:url(#GradientFill_10-3);}.cls-91{fill:url(#GradientFill_10-4);}.cls-92{fill:url(#GradientFill_10-5);}.cls-93{fill:url(#GradientFill_6-6);}.cls-94{fill:url(#GradientFill_2-3);}.cls-95{fill:url(#GradientFill_4-34);}.cls-96{fill:url(#GradientFill_2-4);}.cls-97{fill:url(#GradientFill_2-5);}.cls-98{fill:url(#GradientFill_11);}.cls-99{fill:url(#GradientFill_2-6);}.cls-100{fill:url(#GradientFill_4-35);}.cls-101{fill:url(#GradientFill_4-36);}.cls-102{fill:url(#GradientFill_1-6);}.cls-103{fill:url(#GradientFill_2-7);}.cls-104{fill:url(#GradientFill_4-37);}.cls-105{fill:url(#GradientFill_4-38);}.cls-106{fill:url(#GradientFill_1-7);}.cls-107{fill:url(#GradientFill_4-39);}.cls-108{fill:url(#GradientFill_4-40);}.cls-109{fill:url(#GradientFill_2-8);}.cls-110{fill:url(#GradientFill_1-8);}.cls-111{fill:url(#GradientFill_2-9);}.cls-112{fill:url(#GradientFill_4-41);}.cls-113{fill:url(#GradientFill_4-42);}.cls-114{fill:url(#GradientFill_1-9);}.cls-115{fill:url(#GradientFill_4-43);}.cls-116{fill:url(#GradientFill_4-44);}</style><linearGradient id="GradientFill_1" x1="190.56" y1="62.05" x2="181.82" y2="124.2" gradientUnits="userSpaceOnUse"><stop offset="0" stop-color="#adc942"/><stop offset="0.58" stop-color="#adc942"/><stop offset="1" stop-color="#fff"/></linearGradient><linearGradient id="GradientFill_2" x1="180.13" y1="76.71" x2="179.28" y2="125.43" gradientUnits="userSpaceOnUse"><stop offset="0" stop-color="#808285"/><stop offset="0.5" stop-color="#808285"/><stop offset="1" stop-color="#e6e7e8"/></linearGradient><linearGradient id="GradientFill_1-2" x1="163.86" y1="-62.94" x2="120.42" y2="246.15" xlink:href="#GradientFill_1"/><linearGradient id="GradientFill_2-2" x1="165.62" y1="91.98" x2="164.81" y2="138.15" xlink:href="#GradientFill_2"/><linearGradient id="GradientFill_3" x1="219.79" y1="55.2" x2="218.93" y2="104.53" gradientUnits="userSpaceOnUse"><stop offset="0" stop-color="#808285"/><stop offset="0.77" stop-color="#808285"/><stop offset="1" stop-color="#e6e7e8"/></linearGradient><linearGradient id="GradientFill_4" x1="253.1" y1="81.61" x2="253.03" y2="85.66" gradientUnits="userSpaceOnUse"><stop offset="0" stop-color="#808285"/><stop offset="0.57" stop-color="#808285"/><stop offset="1" stop-color="#fff"/></linearGradient><linearGradient id="GradientFill_4-2" x1="246" y1="85.59" x2="245.93" y2="89.65" xlink:href="#GradientFill_4"/><linearGradient id="GradientFill_5" x1="275.81" y1="159.34" x2="275.45" y2="180.2" gradientUnits="userSpaceOnUse"><stop offset="0" stop-color="#808285"/><stop offset="0.57" stop-color="#808285"/><stop offset="1" stop-color="#e6e7e8"/></linearGradient><linearGradient id="GradientFill_5-2" x1="259.26" y1="168.82" x2="258.89" y2="189.68" xlink:href="#GradientFill_5"/><linearGradient id="GradientFill_5-3" x1="242.7" y1="178.31" x2="242.34" y2="199.17" xlink:href="#GradientFill_5"/><linearGradient id="GradientFill_6" x1="224.83" y1="188.97" x2="227.1" y2="207.47" gradientUnits="userSpaceOnUse"><stop offset="0" stop-color="#d1d3d4"/><stop offset="0.56" stop-color="#d1d3d4"/><stop offset="1" stop-color="#fff"/></linearGradient><linearGradient id="GradientFill_6-2" x1="208.25" y1="198.23" x2="210.57" y2="217.19" xlink:href="#GradientFill_6"/><linearGradient id="GradientFill_1-3" x1="186.03" y1="107.78" x2="172.81" y2="201.79" xlink:href="#GradientFill_1"/><linearGradient id="GradientFill_1-4" x1="224.37" y1="85.76" x2="200.17" y2="257.89" xlink:href="#GradientFill_1"/><linearGradient id="GradientFill_1-5" x1="173.13" y1="159.69" x2="168.31" y2="193.96" xlink:href="#GradientFill_1"/><linearGradient id="GradientFill_7" x1="292.7" y1="-113.31" x2="236.03" y2="289.88" gradientUnits="userSpaceOnUse"><stop offset="0" stop-color="#adc942"/><stop offset="0.79" stop-color="#adc942"/><stop offset="1" stop-color="#f3f5e6"/></linearGradient><linearGradient id="GradientFill_8" x1="274.87" y1="-85.69" x2="268.65" y2="270.71" gradientUnits="userSpaceOnUse"><stop offset="0" stop-color="#808285"/><stop offset="0.76" stop-color="#808285"/><stop offset="1" stop-color="#e6e7e8"/></linearGradient><linearGradient id="GradientFill_7-2" x1="307.47" y1="-104.91" x2="250.8" y2="298.28" xlink:href="#GradientFill_7"/><linearGradient id="GradientFill_8-2" x1="289.64" y1="-77.29" x2="283.42" y2="279.11" xlink:href="#GradientFill_8"/><linearGradient id="GradientFill_7-3" x1="322.23" y1="-96.51" x2="265.57" y2="306.69" xlink:href="#GradientFill_7"/><linearGradient id="GradientFill_6-3" x1="13.28" y1="97.29" x2="36.35" y2="144.59" xlink:href="#GradientFill_6"/><linearGradient id="GradientFill_5-4" x1="327.01" y1="97.54" x2="325.48" y2="184.78" xlink:href="#GradientFill_5"/><linearGradient id="GradientFill_3-2" x1="180.47" y1="-37.15" x2="177.89" y2="110.38" xlink:href="#GradientFill_3"/><linearGradient id="GradientFill_3-3" x1="160.01" y1="-161.44" x2="153.13" y2="232.41" xlink:href="#GradientFill_3"/><linearGradient id="GradientFill_3-4" x1="165.76" y1="-157.94" x2="158.87" y2="236.69" xlink:href="#GradientFill_3"/><linearGradient id="GradientFill_3-5" x1="171.51" y1="-154.54" x2="164.6" y2="241.03" xlink:href="#GradientFill_3"/><linearGradient id="GradientFill_3-6" x1="177.27" y1="-152.03" x2="170.32" y2="246.24" xlink:href="#GradientFill_3"/><linearGradient id="GradientFill_3-7" x1="154.55" y1="-162.65" x2="147.61" y2="235" xlink:href="#GradientFill_3"/><linearGradient id="GradientFill_9" x1="208.64" y1="11.87" x2="209.57" y2="22.47" gradientUnits="userSpaceOnUse"><stop offset="0" stop-color="#adc942"/><stop offset="0.63" stop-color="#adc942"/><stop offset="1" stop-color="#fff"/></linearGradient><linearGradient id="GradientFill_5-5" x1="247.39" y1="23.14" x2="247.16" y2="36.51" xlink:href="#GradientFill_5"/><linearGradient id="GradientFill_4-3" x1="259.19" y1="30.04" x2="258.96" y2="43.16" xlink:href="#GradientFill_4"/><linearGradient id="GradientFill_5-6" x1="270.98" y1="36.82" x2="270.76" y2="49.93" xlink:href="#GradientFill_5"/><linearGradient id="GradientFill_5-7" x1="282.78" y1="43.59" x2="282.55" y2="56.71" xlink:href="#GradientFill_5"/><linearGradient id="GradientFill_5-8" x1="238.16" y1="28.34" x2="237.93" y2="41.46" xlink:href="#GradientFill_5"/><linearGradient id="GradientFill_5-9" x1="249.96" y1="35.12" x2="249.73" y2="48.23" xlink:href="#GradientFill_5"/><linearGradient id="GradientFill_4-4" x1="261.76" y1="41.89" x2="261.53" y2="55.01" xlink:href="#GradientFill_4"/><linearGradient id="GradientFill_5-10" x1="273.55" y1="48.67" x2="273.33" y2="61.79" xlink:href="#GradientFill_5"/><linearGradient id="GradientFill_4-5" x1="174.47" y1="66.81" x2="174.4" y2="70.87" xlink:href="#GradientFill_4"/><linearGradient id="GradientFill_4-6" x1="186.53" y1="60.17" x2="186.46" y2="64.23" xlink:href="#GradientFill_4"/><linearGradient id="GradientFill_4-7" x1="198.6" y1="53.52" x2="198.53" y2="57.58" xlink:href="#GradientFill_4"/><linearGradient id="GradientFill_4-8" x1="210.66" y1="46.87" x2="210.59" y2="50.93" xlink:href="#GradientFill_4"/><linearGradient id="GradientFill_10" x1="156.07" y1="72.72" x2="155.5" y2="76.81" gradientUnits="userSpaceOnUse"><stop offset="0" stop-color="#adc942"/><stop offset="0.47" stop-color="#adc942"/><stop offset="1" stop-color="#fff"/></linearGradient><linearGradient id="GradientFill_4-9" x1="242" y1="44.09" x2="241.93" y2="48.15" xlink:href="#GradientFill_4"/><linearGradient id="GradientFill_4-10" x1="250.14" y1="48.82" x2="250.07" y2="52.88" xlink:href="#GradientFill_4"/><linearGradient id="GradientFill_4-11" x1="263.53" y1="145.95" x2="263.46" y2="150.01" xlink:href="#GradientFill_4"/><linearGradient id="GradientFill_4-12" x1="270.25" y1="150.28" x2="270.18" y2="154.34" xlink:href="#GradientFill_4"/><linearGradient id="GradientFill_4-13" x1="207.96" y1="181.93" x2="207.89" y2="185.99" xlink:href="#GradientFill_4"/><linearGradient id="GradientFill_4-14" x1="199.94" y1="186.59" x2="199.87" y2="190.65" xlink:href="#GradientFill_4"/><linearGradient id="GradientFill_4-15" x1="130.08" y1="167.61" x2="130.02" y2="170.89" xlink:href="#GradientFill_4"/><linearGradient id="GradientFill_4-16" x1="121.1" y1="181.08" x2="121.05" y2="184.36" xlink:href="#GradientFill_4"/><linearGradient id="GradientFill_4-17" x1="152.78" y1="179.92" x2="152.72" y2="183.2" xlink:href="#GradientFill_4"/><linearGradient id="GradientFill_4-18" x1="237.8" y1="169.84" x2="237.74" y2="173.12" xlink:href="#GradientFill_4"/><linearGradient id="GradientFill_4-19" x1="225.93" y1="121.42" x2="225.88" y2="124.7" xlink:href="#GradientFill_4"/><linearGradient id="GradientFill_4-20" x1="232.09" y1="124.66" x2="232.03" y2="127.94" xlink:href="#GradientFill_4"/><linearGradient id="GradientFill_4-21" x1="361.32" y1="107.61" x2="361.26" y2="110.89" xlink:href="#GradientFill_4"/><linearGradient id="GradientFill_4-22" x1="295.51" y1="159.62" x2="295.46" y2="162.9" xlink:href="#GradientFill_4"/><linearGradient id="GradientFill_6-4" x1="331.83" y1="90.06" x2="335.24" y2="97.05" xlink:href="#GradientFill_6"/><linearGradient id="GradientFill_6-5" x1="265.95" y1="62.28" x2="269.36" y2="69.27" xlink:href="#GradientFill_6"/><linearGradient id="GradientFill_4-23" x1="368.56" y1="94.58" x2="368.45" y2="101.13" xlink:href="#GradientFill_4"/><linearGradient id="GradientFill_4-24" x1="373.63" y1="97.54" x2="373.51" y2="104.1" xlink:href="#GradientFill_4"/><linearGradient id="GradientFill_4-25" x1="309.11" y1="99.84" x2="308.92" y2="110.7" xlink:href="#GradientFill_4"/><linearGradient id="GradientFill_4-26" x1="298.66" y1="107.96" x2="298.59" y2="112.02" xlink:href="#GradientFill_4"/><linearGradient id="GradientFill_4-27" x1="319.57" y1="106.1" x2="319.38" y2="116.97" xlink:href="#GradientFill_4"/><linearGradient id="GradientFill_4-28" x1="309.12" y1="114.22" x2="309.05" y2="118.28" xlink:href="#GradientFill_4"/><linearGradient id="GradientFill_4-29" x1="288.77" y1="111.01" x2="288.58" y2="121.87" xlink:href="#GradientFill_4"/><linearGradient id="GradientFill_4-30" x1="279.7" y1="118.16" x2="279.63" y2="122.22" xlink:href="#GradientFill_4"/><linearGradient id="GradientFill_4-31" x1="271.96" y1="122.43" x2="271.89" y2="126.49" xlink:href="#GradientFill_4"/><linearGradient id="GradientFill_4-32" x1="286.42" y1="122.48" x2="286.35" y2="126.54" xlink:href="#GradientFill_4"/><linearGradient id="GradientFill_4-33" x1="301.5" y1="161.65" x2="301.38" y2="168.2" xlink:href="#GradientFill_4"/><linearGradient id="GradientFill_10-2" x1="46.5" y1="124.23" x2="45.92" y2="128.39" xlink:href="#GradientFill_10"/><linearGradient id="GradientFill_10-3" x1="40.14" y1="128.04" x2="39.56" y2="132.19" xlink:href="#GradientFill_10"/><linearGradient id="GradientFill_10-4" x1="53.08" y1="128.4" x2="52.5" y2="132.56" xlink:href="#GradientFill_10"/><linearGradient id="GradientFill_10-5" x1="46.72" y1="132.2" x2="46.13" y2="136.36" xlink:href="#GradientFill_10"/><linearGradient id="GradientFill_6-6" x1="126.6" y1="167.23" x2="149.67" y2="214.53" xlink:href="#GradientFill_6"/><linearGradient id="GradientFill_2-3" x1="161.58" y1="184.16" x2="160.95" y2="220.59" xlink:href="#GradientFill_2"/><linearGradient id="GradientFill_4-34" x1="174.67" y1="211.52" x2="174.61" y2="214.8" xlink:href="#GradientFill_4"/><linearGradient id="GradientFill_2-4" x1="184.46" y1="209.34" x2="184.27" y2="220.2" xlink:href="#GradientFill_2"/><linearGradient id="GradientFill_2-5" x1="191.38" y1="219.46" x2="191.27" y2="226.01" xlink:href="#GradientFill_2"/><linearGradient id="GradientFill_11" x1="65.99" y1="129.1" x2="65.36" y2="165.53" gradientUnits="userSpaceOnUse"><stop offset="0" stop-color="#808285"/><stop offset="0.75" stop-color="#808285"/><stop offset="1" stop-color="#e6e7e8"/></linearGradient><linearGradient id="GradientFill_2-6" x1="88.94" y1="142.66" x2="88.3" y2="179.1" xlink:href="#GradientFill_2"/><linearGradient id="GradientFill_4-35" x1="98.54" y1="72.38" x2="98.47" y2="76.44" xlink:href="#GradientFill_4"/><linearGradient id="GradientFill_4-36" x1="106.79" y1="76.96" x2="106.72" y2="81.02" xlink:href="#GradientFill_4"/><linearGradient id="GradientFill_1-6" x1="147.69" y1="-53.69" x2="104.25" y2="255.4" xlink:href="#GradientFill_1"/><linearGradient id="GradientFill_2-7" x1="149.14" y1="101.39" x2="148.33" y2="147.55" xlink:href="#GradientFill_2"/><linearGradient id="GradientFill_4-37" x1="82.27" y1="81.47" x2="82.2" y2="85.53" xlink:href="#GradientFill_4"/><linearGradient id="GradientFill_4-38" x1="90.52" y1="86.05" x2="90.45" y2="90.11" xlink:href="#GradientFill_4"/><linearGradient id="GradientFill_1-7" x1="131.53" y1="-44.45" x2="88.09" y2="264.64" xlink:href="#GradientFill_1"/><linearGradient id="GradientFill_4-39" x1="66" y1="90.9" x2="65.93" y2="94.96" xlink:href="#GradientFill_4"/><linearGradient id="GradientFill_4-40" x1="74.25" y1="95.48" x2="74.18" y2="99.54" xlink:href="#GradientFill_4"/><linearGradient id="GradientFill_2-8" x1="132.66" y1="110.79" x2="131.85" y2="156.96" xlink:href="#GradientFill_2"/><linearGradient id="GradientFill_1-8" x1="115.36" y1="-35.2" x2="71.92" y2="273.89" xlink:href="#GradientFill_1"/><linearGradient id="GradientFill_2-9" x1="116.18" y1="120.2" x2="115.37" y2="166.36" xlink:href="#GradientFill_2"/><linearGradient id="GradientFill_4-41" x1="49.73" y1="99.53" x2="49.66" y2="103.59" xlink:href="#GradientFill_4"/><linearGradient id="GradientFill_4-42" x1="57.98" y1="104.11" x2="57.91" y2="108.17" xlink:href="#GradientFill_4"/><linearGradient id="GradientFill_1-9" x1="99.19" y1="-25.95" x2="55.75" y2="283.14" xlink:href="#GradientFill_1"/><linearGradient id="GradientFill_4-43" x1="90.21" y1="142.39" x2="90.14" y2="146.44" xlink:href="#GradientFill_4"/><linearGradient id="GradientFill_4-44" x1="65.06" y1="130.57" x2="65" y2="133.85" xlink:href="#GradientFill_4"/></defs><g id="Layer_2" data-name="Layer 2"><g id="MotherBoard"><path class="cls-1" d="M4.11,130.32l196.56-112a12.69,12.69,0,0,1,12.88,0L396.61,122.25c4,2.25,4.69,7.1.89,9.26L200.09,244.13a12.71,12.71,0,0,1-12.89,0L2.47,139.18a4.91,4.91,0,0,1-.15-8.43Z"/><path class="cls-2" d="M4.64,124,199.28,13.08a12.61,12.61,0,0,1,12.76,0L393.31,116h3.88v4.82a4.41,4.41,0,0,1-2.28,3.93L198.71,236.67a12.61,12.61,0,0,1-12.77,0L3,132.74a4.39,4.39,0,0,1-2.28-3.92v-5.34h3.9Z"/><path class="cls-3" d="M3,120.12,199.28,8.31A12.59,12.59,0,0,1,212,8.3L394.91,112.11a4.52,4.52,0,0,1,0,7.85L198.71,231.9a12.61,12.61,0,0,1-12.77,0L3,128a4.52,4.52,0,0,1,0-7.85Z"/><path class="cls-4" d="M253.77,152.61a.51.51,0,0,1-.29-.08l-10.34-6a2.51,2.51,0,0,1,0-4.37L303,108.39a.58.58,0,0,1,.57,1l-59.8,33.78a1.36,1.36,0,0,0,0,2.36l10.34,6a.57.57,0,0,1,.21.79A.56.56,0,0,1,253.77,152.61Z"/><path class="cls-4" d="M108.6,176.78a.56.56,0,0,1-.5-.29.57.57,0,0,1,.21-.79l5.16-3a1.31,1.31,0,0,0,.68-1.18,1.28,1.28,0,0,0-.69-1.17L53.67,136.55a.58.58,0,1,1,.57-1L114,169.33a2.52,2.52,0,0,1,0,4.37l-5.17,3A.6.6,0,0,1,108.6,176.78Z"/><path class="cls-4" d="M338.16,126.06a.59.59,0,0,1-.51-.28.59.59,0,0,1,.21-.8l39.3-22.76a.59.59,0,0,1,.8.21.58.58,0,0,1-.22.79L338.45,126A.65.65,0,0,1,338.16,126.06Z"/><path class="cls-4" d="M300.79,167.48a.67.67,0,0,1-.29-.08l-10.34-6a2.51,2.51,0,0,1,0-4.37L344,126.69a.58.58,0,0,1,.57,1l-53.8,30.34a1.36,1.36,0,0,0,0,2.35l10.35,6a.58.58,0,0,1-.3,1.09Z"/><path class="cls-4" d="M328,121.86a.58.58,0,0,1-.29-1.08l10.34-6a1.33,1.33,0,0,0,.68-1.18,1.31,1.31,0,0,0-.69-1.18L278.28,78.65a.58.58,0,0,1,.57-1l59.79,33.78a2.52,2.52,0,0,1,0,4.37l-10.35,6A.51.51,0,0,1,328,121.86Z"/><path class="cls-4" d="M234.08,205.63a7.09,7.09,0,0,1-3.49-.94L154,161.6a.58.58,0,0,1,.57-1l76.55,43.09a5.78,5.78,0,0,0,5.85,0l1.89-1.09a1.3,1.3,0,0,0,.67-1.18,1.28,1.28,0,0,0-.68-1.17L165.07,159a.58.58,0,1,1,.57-1l73.81,41.23a2.53,2.53,0,0,1,0,4.38l-1.89,1.09A7,7,0,0,1,234.08,205.63Z"/><path class="cls-4" d="M304.21,137.37a7,7,0,0,1-3.49-1l-62.53-35.64a.58.58,0,1,1,.57-1l62.54,35.64a5.71,5.71,0,0,0,5.84,0L343,114.63a1.34,1.34,0,0,0,.67-1.18,1.31,1.31,0,0,0-.69-1.18L283.18,78.49a.58.58,0,1,1,.57-1l59.79,33.78a2.52,2.52,0,0,1,0,4.37L307.73,136.4A7.08,7.08,0,0,1,304.21,137.37Z"/><path class="cls-4" d="M175.88,152.88a7,7,0,0,1-3.51-1l-1.89-1.1a2.52,2.52,0,0,1,0-4.37l73.81-41.23a.58.58,0,0,1,.57,1l-73.82,41.24a1.36,1.36,0,0,0,0,2.35l1.89,1.09a5.78,5.78,0,0,0,5.85,0l76.55-43.09a.58.58,0,0,1,.57,1l-76.55,43.09A7.09,7.09,0,0,1,175.88,152.88Z"/><path class="cls-4" d="M187.25,101.82a7,7,0,0,1-3.51-1l-1.89-1.1a2.44,2.44,0,0,1-1.25-2.19,2.47,2.47,0,0,1,1.28-2.18l73.81-41.23a.58.58,0,0,1,.57,1L182.45,96.41a1.29,1.29,0,0,0-.69,1.17,1.31,1.31,0,0,0,.68,1.18l1.88,1.09a5.78,5.78,0,0,0,5.85,0l76.55-43.09a.58.58,0,1,1,.57,1l-76.55,43.09A7.07,7.07,0,0,1,187.25,101.82Z"/><path class="cls-4" d="M321.47,90.6a7.14,7.14,0,0,1-3.49-.94L241.43,46.57a.58.58,0,0,1-.22-.79.57.57,0,0,1,.79-.22l76.55,43.09a5.78,5.78,0,0,0,5.85,0l1.88-1.09a1.33,1.33,0,0,0,.68-1.18,1.31,1.31,0,0,0-.69-1.17L252.46,44a.59.59,0,0,1-.23-.79.58.58,0,0,1,.79-.22l73.82,41.23a2.51,2.51,0,0,1,1.28,2.18,2.47,2.47,0,0,1-1.26,2.19L325,89.63A6.92,6.92,0,0,1,321.47,90.6Z"/><path class="cls-4" d="M62.71,148.45a7,7,0,0,1-3.52-1L23.34,126.71a2.52,2.52,0,0,1,0-4.37l93.77-52.85a.58.58,0,0,1,.57,1L23.94,123.35a1.31,1.31,0,0,0-.69,1.18,1.33,1.33,0,0,0,.68,1.18l35.84,20.76a5.73,5.73,0,0,0,5.85,0L188,76.69a.58.58,0,0,1,.58,1L66.19,147.5A7,7,0,0,1,62.71,148.45Z"/><path class="cls-4" d="M95.16,165.8a7,7,0,0,1-3.52-1L55.8,144.06a2.51,2.51,0,0,1,0-4.37l97.32-55a.58.58,0,0,1,.57,1l-97.32,55a1.35,1.35,0,0,0,0,2.35l35.84,20.77a5.76,5.76,0,0,0,5.85,0l62.53-35.63a.56.56,0,0,1,.79.21.57.57,0,0,1-.21.79L98.64,164.85A7,7,0,0,1,95.16,165.8Z"/><path class="cls-4" d="M118.24,169.06a7.08,7.08,0,0,1-3.52-1L78.88,147.32a2.51,2.51,0,0,1,0-4.37L172.67,90.1a.59.59,0,0,1,.79.22.57.57,0,0,1-.22.79L79.47,144a1.31,1.31,0,0,0-.69,1.18,1.33,1.33,0,0,0,.68,1.18l35.84,20.76a5.73,5.73,0,0,0,5.85,0l62.53-35.64a.57.57,0,0,1,.79.22.58.58,0,0,1-.21.79l-62.54,35.64A7,7,0,0,1,118.24,169.06Z"/><path class="cls-4" d="M180.33,207.69a7.14,7.14,0,0,1-3.55-1L125.8,178a2.45,2.45,0,0,1-1.26-2.2,2.43,2.43,0,0,1,1.27-2.17l59.8-33.79a.58.58,0,0,1,.57,1l-59.8,33.79a1.36,1.36,0,0,0,0,2.35l51,28.68a5.78,5.78,0,0,0,5.85,0l24.55-14.24a.58.58,0,1,1,.58,1l-24.55,14.24A6.85,6.85,0,0,1,180.33,207.69Z"/><path class="cls-4" d="M310.69,154.1a7.11,7.11,0,0,1-3.49-.95l-76.55-43.08a.58.58,0,0,1,.57-1l76.55,43.09a5.78,5.78,0,0,0,5.85,0L315.5,151a1.36,1.36,0,0,0,0-2.36l-73.82-41.23a.58.58,0,1,1,.57-1l73.81,41.23a2.47,2.47,0,0,1,1.28,2.18,2.44,2.44,0,0,1-1.25,2.19l-1.89,1.09A7,7,0,0,1,310.69,154.1Z"/><path class="cls-4" d="M344.46,143.52a7.11,7.11,0,0,1-3.5-1l-62.53-35.64a.58.58,0,1,1,.57-1l62.54,35.64a5.69,5.69,0,0,0,5.84,0L389.18,117a1.33,1.33,0,0,0,.68-1.18,1.3,1.3,0,0,0-.69-1.17l-22.78-12.88a.58.58,0,1,1,.57-1l22.78,12.87a2.52,2.52,0,0,1,0,4.37L348,142.54A6.93,6.93,0,0,1,344.46,143.52Z"/><path class="cls-4" d="M226.68,93.53a7,7,0,0,1-3.49-.94L160.66,57a.58.58,0,1,1,.58-1l62.53,35.64a5.76,5.76,0,0,0,5.85,0l35.84-20.77a1.36,1.36,0,0,0,0-2.35L215.76,40.49a.58.58,0,1,1,.57-1l49.69,28a2.51,2.51,0,0,1,0,4.37L230.2,92.56A7,7,0,0,1,226.68,93.53Z"/><path class="cls-4" d="M157.83,144.48a.57.57,0,0,1-.5-.29.59.59,0,0,1,.21-.79L268.07,79.51a1.35,1.35,0,0,0,0-2.35l-59.8-33.79a.58.58,0,1,1,.57-1l59.8,33.78a2.51,2.51,0,0,1,0,4.37l-110.53,63.9A.59.59,0,0,1,157.83,144.48Z"/><path class="cls-4" d="M200.63,159.35a7,7,0,0,1-3.48-.94l-62.53-35.64a.59.59,0,0,1-.22-.8.58.58,0,0,1,.79-.21l62.53,35.64a5.75,5.75,0,0,0,5.85,0l35.84-20.77a1.35,1.35,0,0,0,0-2.35l-49.68-27.95a.58.58,0,1,1,.57-1l49.68,28a2.52,2.52,0,0,1,0,4.37l-35.85,20.76A6.92,6.92,0,0,1,200.63,159.35Z"/><path class="cls-4" d="M208.32,181.41a7,7,0,0,1-3.47-.95l-62.53-35.64a.57.57,0,0,1-.22-.79.57.57,0,0,1,.79-.21l62.54,35.63a5.76,5.76,0,0,0,5.85,0L258,152.75a1.31,1.31,0,0,0,.68-1.18,1.33,1.33,0,0,0-.69-1.17l-77.47-43.79a.58.58,0,1,1,.57-1l77.47,43.79a2.51,2.51,0,0,1,0,4.37l-46.75,26.68A7.22,7.22,0,0,1,208.32,181.41Z"/><path class="cls-4" d="M154,203.61a7,7,0,0,1-3.52-1l-35.84-20.76a2.47,2.47,0,0,1-1.26-2.19,2.44,2.44,0,0,1,1.28-2.18l59.79-33.79a.58.58,0,1,1,.58,1l-59.8,33.79a1.35,1.35,0,0,0,0,2.35l35.84,20.77a5.75,5.75,0,0,0,5.85,0L219.48,166a.58.58,0,0,1,.79.21.59.59,0,0,1-.21.8l-62.54,35.64A7,7,0,0,1,154,203.61Z"/><path class="cls-4" d="M237.85,170.66a7,7,0,0,1-3.49-.95l-62.53-35.64a.58.58,0,1,1,.58-1l62.53,35.64a5.73,5.73,0,0,0,5.85,0l35.84-20.77a1.31,1.31,0,0,0,.68-1.18,1.33,1.33,0,0,0-.69-1.17l-49.69-27.95a.58.58,0,1,1,.57-1l49.69,28a2.51,2.51,0,0,1,0,4.37l-35.84,20.77A7.08,7.08,0,0,1,237.85,170.66Z"/><path class="cls-4" d="M176.44,215.47a.56.56,0,0,1-.5-.29.57.57,0,0,1,.21-.79l110.53-63.9a1.36,1.36,0,0,0,0-2.35l-59.79-33.79a.58.58,0,1,1,.57-1l59.79,33.79a2.52,2.52,0,0,1,0,4.37L176.73,215.39A.6.6,0,0,1,176.44,215.47Z"/><path class="cls-4" d="M244.43,179.44a6.88,6.88,0,0,1-3.48-.95l-62.54-35.63a.59.59,0,0,1-.21-.8.57.57,0,0,1,.79-.21l62.53,35.64a5.76,5.76,0,0,0,5.85,0l84.42-48.82a1.31,1.31,0,0,0,.68-1.18,1.33,1.33,0,0,0-.69-1.17L272,92.51a.58.58,0,1,1,.57-1l59.8,33.79a2.51,2.51,0,0,1,0,4.37L248,178.47A7,7,0,0,1,244.43,179.44Z"/><path class="cls-4" d="M313.22,136a7,7,0,0,1-3.49-1L247.2,99.37a.58.58,0,1,1,.58-1L310.31,134a5.76,5.76,0,0,0,5.85,0L352,113.21a1.28,1.28,0,0,0,.67-1.18,1.3,1.3,0,0,0-.68-1.17l-59.8-33.79a.58.58,0,0,1,.57-1l59.8,33.79a2.51,2.51,0,0,1,0,4.37L316.74,135A7.08,7.08,0,0,1,313.22,136Z"/><path class="cls-4" d="M301.94,164.13a.59.59,0,0,1-.51-.29.58.58,0,0,1,.22-.79l70.45-40.76a1.28,1.28,0,0,0,.67-1.18,1.29,1.29,0,0,0-.69-1.17L312.29,86.15a.58.58,0,1,1,.57-1l59.8,33.79a2.51,2.51,0,0,1,0,4.37l-70.45,40.75A.51.51,0,0,1,301.94,164.13Z"/><path class="cls-5" d="M288.62,180.59l-82.88,47.27a2.11,2.11,0,0,1-2.13,0l-11.16-6.63a.69.69,0,0,1-.35-.63.69.69,0,0,1,.38-.62L277,172.11l11.7,7.27a.68.68,0,0,1,.32.61A.71.71,0,0,1,288.62,180.59Z"/><path class="cls-5" d="M354.49,142.77l-44.43,25.6a2.09,2.09,0,0,1-2.12,0l-9.52-5.44a.7.7,0,0,1,0-1.24l46-26.2,10,6.08a.66.66,0,0,1,.32.61A.69.69,0,0,1,354.49,142.77Z"/><path class="cls-5" d="M121.92,163.84l66.72-38.16a2.71,2.71,0,0,1,2.75,0L253,161a1,1,0,0,1,.49.85.94.94,0,0,1-.49.84l-66.71,38.2a2.71,2.71,0,0,1-2.75,0l-61.65-35.32a1,1,0,0,1,0-1.69Z"/><path class="cls-5" d="M177.19,81.55l42.24-24.06a2.69,2.69,0,0,1,2.74,0l39.35,22.34a.93.93,0,0,1,.5.84,1,1,0,0,1-.49.85L219.3,105.6a2.71,2.71,0,0,1-2.74,0L177.2,83.24a1,1,0,0,1-.5-.84A1,1,0,0,1,177.19,81.55Z"/><path class="cls-5" d="M212.77,34.28,274.12,69.1a2.2,2.2,0,0,0,2.22,0L293.1,60a.74.74,0,0,0,0-1.3l-63-35.43L212.73,33a.7.7,0,0,0-.33.64A.7.7,0,0,0,212.77,34.28Z"/><path class="cls-5" d="M232.38,40.4,148.87,87.78a3,3,0,0,1-3,0l-32-18.27a1,1,0,0,1-.5-.89,1,1,0,0,1,.53-.87l85.78-48.23,32.76,19.17a1,1,0,0,1,.45.87A1,1,0,0,1,232.38,40.4Z"/><path class="cls-5" d="M338.56,91.2l-80.21,46.06a3,3,0,0,1-3,0l-35.82-20.49a1,1,0,0,1,0-1.77L302,68.09l36.59,21.39a.94.94,0,0,1,.46.87A1,1,0,0,1,338.56,91.2Z"/><path class="cls-5" d="M145,143.77l-3.37,1.92a1.85,1.85,0,0,1-1.86,0l-12.29-7.1a.62.62,0,0,1,0-1.09l4.78-2.44L145,142.71a.63.63,0,0,1,.28.54A.61.61,0,0,1,145,143.77Z"/><path class="cls-5" d="M161.41,134.31,158,136.22a1.82,1.82,0,0,1-1.86,0l-12.28-7.11a.6.6,0,0,1-.31-.55.62.62,0,0,1,.33-.54l4.78-2.43,12.75,7.66a.57.57,0,0,1,.28.54A.6.6,0,0,1,161.41,134.31Z"/><path class="cls-5" d="M177.85,124.85l-3.38,1.91a1.82,1.82,0,0,1-1.86,0l-12.28-7.11a.61.61,0,0,1-.31-.55.6.6,0,0,1,.33-.54l4.78-2.44,12.75,7.66a.59.59,0,0,1,.28.54A.62.62,0,0,1,177.85,124.85Z"/><path class="cls-5" d="M203.48,110.53l-12.35,7a3,3,0,0,1-3,0L168.2,106a1,1,0,0,1,0-1.76l14.61-7.87,20.69,12.42a1,1,0,0,1,.46.87A1,1,0,0,1,203.48,110.53Z"/><path class="cls-5" d="M128.54,153.23l-3.38,1.92a1.82,1.82,0,0,1-1.86,0L111,148a.63.63,0,0,1-.32-.55A.63.63,0,0,1,111,147l4.77-2.44,12.76,7.66a.58.58,0,0,1,.28.54A.61.61,0,0,1,128.54,153.23Z"/><path class="cls-5" d="M137.76,148.15l-5.57,3.13a3,3,0,0,1-3,0L49,105.45a1,1,0,0,1-.51-.89,1,1,0,0,1,.54-.87l7.82-4,80.92,46.72a1,1,0,0,1,.46.87A1,1,0,0,1,137.76,148.15Z"/><path class="cls-5" d="M153.73,138.92l-5.57,3.13a3,3,0,0,1-3,0L65,96.22a1,1,0,0,1,0-1.76l7.83-4,80.92,46.72a.94.94,0,0,1,.45.86A1,1,0,0,1,153.73,138.92Z"/><path class="cls-5" d="M169.71,129.68l-5.57,3.14a3,3,0,0,1-3,0L81,87a1,1,0,0,1,0-1.76l7.82-4L169.76,128a.94.94,0,0,1,.45.87A1,1,0,0,1,169.71,129.68Z"/><path class="cls-5" d="M185.68,120.45l-5.57,3.14a3,3,0,0,1-3,0L97,77.76a1,1,0,0,1-.5-.89A1,1,0,0,1,97,76l7.83-4,80.92,46.71a1,1,0,0,1,.45.87A1,1,0,0,1,185.68,120.45Z"/><path class="cls-5" d="M121.78,157.38l-5.57,3.13a3,3,0,0,1-3,0L33.06,114.68a1,1,0,0,1,0-1.76l7.82-4,80.92,46.72a1,1,0,0,1,.45.87A1,1,0,0,1,121.78,157.38Z"/><path class="cls-5" d="M38.71,135.44l-4.82,2.72a3,3,0,0,1-3,0L11.11,126.7a1,1,0,0,1,0-1.75l7.07-3.55,20.55,12.33a1,1,0,0,1-.06,1.71Z"/><polygon class="cls-6" points="169.98 86.31 197.63 102.4 202.44 99.63 174.43 83.79 169.98 86.31"/><polygon class="cls-7" points="170.01 96.59 197.66 112.68 197.63 102.4 169.98 86.31 170.01 96.59"/><polygon class="cls-8" points="197.63 102.4 202.44 99.63 202.44 109.92 197.66 112.68 197.63 102.4"/><polygon class="cls-9" points="161.98 95.14 189.63 111.23 197.43 106.73 169.41 90.9 161.98 95.14"/><polygon class="cls-10" points="162.01 101.19 189.66 117.28 189.63 111.23 161.98 95.14 162.01 101.19"/><polygon class="cls-11" points="189.63 111.23 197.43 106.73 197.43 112.79 189.66 117.28 189.63 111.23"/><polygon class="cls-12" points="98.55 70.32 179.25 116.38 185.76 112.63 104.76 66.78 98.55 70.32"/><polygon class="cls-7" points="98.57 77.37 179.27 123.43 179.25 116.38 98.55 70.33 98.57 77.37"/><polygon class="cls-8" points="103.37 71.11 176.31 112.75 179.26 111.03 106.02 69.59 103.37 71.11"/><polygon class="cls-13" points="103.37 71.11 105.99 72.61 105.99 69.61 103.37 71.11"/><polygon class="cls-8" points="179.25 116.38 185.76 112.63 185.76 119.68 179.27 123.43 179.25 116.38"/><polygon class="cls-14" points="115.2 78.97 119.47 76.54 120.93 77.1 116.6 79.58 115.2 78.97"/><polygon class="cls-13" points="117.41 79.1 120.21 80.7 120.21 77.52 117.41 79.1"/><polygon class="cls-15" points="152.87 110.11 173.54 122.14 177.57 119.83 156.62 107.98 152.87 110.11"/><polygon class="cls-10" points="152.89 114.64 173.56 126.67 173.54 122.14 152.87 110.11 152.89 114.64"/><polygon class="cls-11" points="173.54 122.14 177.57 119.83 177.57 124.36 173.56 126.67 173.54 122.14"/><path class="cls-11" d="M178.65,81.55l40.78-23.23a2.62,2.62,0,0,1,2.65,0l38,21.57a.93.93,0,0,1,0,1.63l-40.76,23.26a2.64,2.64,0,0,1-2.66,0l-38-21.6a.93.93,0,0,1,0-1.63Z"/><path class="cls-16" d="M178.65,79.87l40.78-23.24a2.62,2.62,0,0,1,2.65,0l38,21.57a.93.93,0,0,1,0,1.63l-40.76,23.26a2.64,2.64,0,0,1-2.66,0l-38-21.59a.93.93,0,0,1-.48-.82A.91.91,0,0,1,178.65,79.87Z"/><path class="cls-14" d="M185.26,79.86l34.16-19.45a2.16,2.16,0,0,1,2.22,0l31.82,18.06a.77.77,0,0,1,.4.68.79.79,0,0,1-.4.69L219.32,99.32a2.22,2.22,0,0,1-2.23,0L185.26,81.23a.77.77,0,0,1-.4-.68A.79.79,0,0,1,185.26,79.86Z"/><path class="cls-10" d="M256.68,91.27a1.15,1.15,0,0,1,0,.19c0,1.24-1.68,2.21-3.69,2.15s-3.6-1.1-3.57-2.34V83.73h7.26v7.54Z"/><path class="cls-11" d="M256,92.72a4.53,4.53,0,0,1-3,.89,5.07,5.07,0,0,1-2.3-.58v-9.3H256Z"/><path class="cls-17" d="M254.47,93.46a5.36,5.36,0,0,1-1.47.15,4.54,4.54,0,0,1-.75-.07V83.73h2.22Z"/><path class="cls-10" d="M253.12,81.38c2,.05,3.61,1.11,3.57,2.35S255,85.94,253,85.89s-3.6-1.11-3.57-2.35S251.12,81.33,253.12,81.38Z"/><path class="cls-18" d="M253.11,81.66c1.76,0,3.15,1,3.13,2.06s-1.48,1.93-3.23,1.89-3.15-1-3.12-2.06S251.36,81.62,253.11,81.66Z"/><path class="cls-10" d="M249.59,95.26a1.15,1.15,0,0,1,0,.19c0,1.24-1.69,2.21-3.69,2.15s-3.6-1.1-3.57-2.34V87.72h7.26v7.54Z"/><path class="cls-11" d="M248.92,96.71a4.51,4.51,0,0,1-3,.89,5.07,5.07,0,0,1-2.3-.58v-9.3h5.31Z"/><path class="cls-17" d="M247.38,97.45a5.36,5.36,0,0,1-1.47.15,4.77,4.77,0,0,1-.76-.07V87.72h2.23Z"/><path class="cls-10" d="M246,85.37c2,0,3.6,1.11,3.57,2.35s-1.69,2.21-3.69,2.16-3.6-1.11-3.57-2.35S244,85.32,246,85.37Z"/><path class="cls-19" d="M246,85.65c1.75,0,3.15,1,3.12,2.06s-1.47,1.93-3.22,1.88-3.15-1-3.12-2S244.27,85.61,246,85.65Z"/><polygon class="cls-17" points="271.96 189.92 271.99 176.87 263.25 171.9 259.37 182.67 271.96 189.92"/><polygon class="cls-20" points="271.99 176.87 263.24 171.91 279.28 162.66 288.01 167.63 271.99 176.87"/><polygon class="cls-10" points="271.94 176.89 271.95 189.79 287.99 180.43 287.98 167.64 271.94 176.89"/><polygon class="cls-10" points="271.94 184.05 271.95 189.91 287.99 180.55 287.98 174.8 271.94 184.05"/><polygon class="cls-17" points="272.75 184.22 272.75 188.81 287.34 180.32 287.33 175.83 272.75 184.22"/><polygon class="cls-11" points="272.75 184.22 272.75 188.81 287.34 180.32 287.34 180.31 283.42 178.08 272.75 184.22"/><polygon class="cls-10" points="276.01 184.15 276.01 185.22 284.07 180.55 284.07 179.49 276.01 184.15"/><polygon class="cls-10" points="276.01 184.15 276.01 186.04 277.03 185.45 277.02 183.58 276.01 184.15"/><polygon class="cls-17" points="275.99 186 272.8 184.19 274.44 183.25 276 182.35 276 182.35 274.44 183.25 276 184.14 276 186 275.99 186"/><polygon class="cls-11" points="276.01 184.15 274.44 183.25 282.49 178.62 284.07 179.52 276.01 184.15"/><polygon class="cls-10" points="271.94 176.89 271.95 182.75 287.99 173.39 287.98 167.64 271.94 176.89"/><polygon class="cls-17" points="272.75 177.06 272.75 181.65 287.34 173.16 287.33 168.67 272.75 177.06"/><polygon class="cls-11" points="272.75 177.06 272.75 181.65 287.34 173.16 287.34 173.15 283.42 170.92 272.75 177.06"/><polygon class="cls-10" points="276.01 176.99 276.01 178.06 284.07 173.39 284.07 172.33 276.01 176.99"/><polygon class="cls-10" points="276.01 176.99 276.01 178.88 277.03 178.29 277.02 176.42 276.01 176.99"/><polygon class="cls-17" points="275.99 178.84 272.8 177.03 274.44 176.09 276 175.19 276 175.19 274.44 176.09 276 176.98 276 178.84 275.99 178.84"/><polygon class="cls-11" points="276.01 176.99 274.44 176.09 282.49 171.46 284.07 172.36 276.01 176.99"/><polygon class="cls-17" points="273.06 182.4 273.06 183.08 273.79 182.66 273.79 181.99 273.06 182.4"/><polygon class="cls-17" points="286.66 174.41 286.66 175.09 287.39 174.67 287.39 174 286.66 174.41"/><polygon class="cls-17" points="274.32 181.63 274.32 182.32 286.04 175.48 286.04 174.81 274.32 181.63"/><polygon class="cls-11" points="275.19 173.54 269.12 170.1 270.42 169.28 276.49 172.73 275.19 173.54"/><polygon class="cls-11" points="279.56 171.05 273.49 167.61 274.79 166.79 280.86 170.24 279.56 171.05"/><polygon class="cls-17" points="255.4 199.4 255.44 186.35 246.69 181.38 242.82 192.15 255.4 199.4"/><polygon class="cls-21" points="255.44 186.35 246.69 181.39 262.72 172.15 271.46 177.12 255.44 186.35"/><polygon class="cls-10" points="255.39 186.37 255.39 199.28 271.43 189.91 271.43 177.13 255.39 186.37"/><polygon class="cls-10" points="255.39 193.53 255.4 199.4 271.43 190.04 271.43 184.29 255.39 193.53"/><polygon class="cls-17" points="256.19 193.71 256.2 198.29 270.78 189.81 270.78 185.32 256.19 193.71"/><polygon class="cls-11" points="256.19 193.71 256.2 198.29 270.78 189.81 270.78 189.79 266.87 187.56 256.19 193.71"/><polygon class="cls-10" points="259.46 193.63 259.46 194.71 267.52 190.03 267.52 188.98 259.46 193.63"/><polygon class="cls-10" points="259.46 193.63 259.46 195.52 260.47 194.93 260.47 193.06 259.46 193.63"/><polygon class="cls-17" points="259.43 195.49 256.25 193.68 257.88 192.74 259.44 191.84 259.44 191.84 257.88 192.74 259.44 193.62 259.44 195.48 259.43 195.49"/><polygon class="cls-11" points="259.46 193.63 257.88 192.74 265.93 188.1 267.51 189 259.46 193.63"/><polygon class="cls-10" points="255.39 186.37 255.4 192.24 271.43 182.88 271.43 177.13 255.39 186.37"/><polygon class="cls-17" points="256.19 186.55 256.2 191.13 270.78 182.65 270.78 178.16 256.19 186.55"/><polygon class="cls-11" points="256.19 186.55 256.2 191.13 270.78 182.65 270.78 182.63 266.87 180.41 256.19 186.55"/><polygon class="cls-10" points="259.46 186.47 259.46 187.55 267.52 182.87 267.52 181.82 259.46 186.47"/><polygon class="cls-10" points="259.46 186.47 259.46 188.36 260.47 187.77 260.47 185.91 259.46 186.47"/><polygon class="cls-17" points="259.43 188.33 256.25 186.52 257.88 185.58 259.44 184.68 259.44 184.68 257.88 185.58 259.44 186.47 259.44 188.32 259.43 188.33"/><polygon class="cls-11" points="259.46 186.47 257.88 185.58 265.93 180.94 267.51 181.84 259.46 186.47"/><polygon class="cls-17" points="256.5 191.89 256.5 192.57 257.23 192.14 257.23 191.48 256.5 191.89"/><polygon class="cls-17" points="270.11 183.9 270.11 184.58 270.84 184.16 270.84 183.49 270.11 183.9"/><polygon class="cls-17" points="257.76 191.12 257.77 191.8 269.49 184.97 269.48 184.3 257.76 191.12"/><polygon class="cls-11" points="258.64 183.03 252.57 179.58 253.87 178.76 259.93 182.22 258.64 183.03"/><polygon class="cls-11" points="263.01 180.54 256.94 177.09 258.24 176.28 264.3 179.72 263.01 180.54"/><polygon class="cls-17" points="238.85 208.89 238.88 195.84 230.14 190.87 226.26 201.64 238.85 208.89"/><polygon class="cls-22" points="238.88 195.84 230.13 190.88 246.17 181.63 254.9 186.6 238.88 195.84"/><polygon class="cls-10" points="238.83 195.86 238.84 208.76 254.88 199.4 254.87 186.61 238.83 195.86"/><polygon class="cls-10" points="238.83 203.02 238.84 208.88 254.88 199.52 254.87 193.77 238.83 203.02"/><polygon class="cls-11" points="239.64 203.19 239.64 207.78 254.23 199.29 254.22 194.8 239.64 203.19"/><polygon class="cls-11" points="239.64 203.19 239.64 207.78 254.23 199.29 254.23 199.28 250.31 197.05 239.64 203.19"/><polygon class="cls-10" points="242.9 203.12 242.9 204.19 250.96 199.52 250.96 198.46 242.9 203.12"/><polygon class="cls-10" points="242.9 203.12 242.9 205.01 243.92 204.42 243.91 202.55 242.9 203.12"/><polygon class="cls-17" points="242.88 204.97 239.69 203.16 241.32 202.22 242.89 201.32 242.89 201.32 241.32 202.22 242.89 203.11 242.89 204.97 242.88 204.97"/><polygon class="cls-11" points="242.9 203.12 241.32 202.22 249.38 197.59 250.96 198.49 242.9 203.12"/><polygon class="cls-10" points="238.83 195.86 238.84 201.72 254.88 192.36 254.87 186.61 238.83 195.86"/><polygon class="cls-11" points="239.64 196.03 239.64 200.62 254.23 192.13 254.22 187.64 239.64 196.03"/><polygon class="cls-11" points="239.64 196.03 239.64 200.62 254.23 192.13 254.23 192.12 250.31 189.89 239.64 196.03"/><polygon class="cls-10" points="242.9 195.96 242.9 197.03 250.96 192.36 250.96 191.3 242.9 195.96"/><polygon class="cls-10" points="242.9 195.96 242.9 197.85 243.92 197.26 243.91 195.39 242.9 195.96"/><polygon class="cls-17" points="242.88 197.81 239.69 196 241.32 195.06 242.89 194.16 242.89 194.16 241.32 195.06 242.89 195.95 242.89 197.81 242.88 197.81"/><polygon class="cls-11" points="242.9 195.96 241.32 195.06 249.38 190.43 250.96 191.33 242.9 195.96"/><polygon class="cls-17" points="239.95 201.37 239.95 202.05 240.68 201.63 240.68 200.96 239.95 201.37"/><polygon class="cls-17" points="253.55 193.38 253.55 194.06 254.28 193.64 254.28 192.97 253.55 193.38"/><polygon class="cls-17" points="241.21 200.61 241.21 201.29 252.93 194.45 252.93 193.79 241.21 200.61"/><polygon class="cls-11" points="242.08 192.51 236.01 189.07 237.31 188.25 243.38 191.7 242.08 192.51"/><polygon class="cls-11" points="246.45 190.02 240.38 186.58 241.69 185.76 247.75 189.21 246.45 190.02"/><polygon class="cls-23" points="222.29 218.37 222.33 205.33 213.58 200.35 209.71 211.12 222.29 218.37"/><polygon class="cls-24" points="222.33 205.33 213.58 200.36 229.61 191.12 238.35 196.09 222.33 205.33"/><polygon class="cls-25" points="222.28 205.34 222.28 218.25 238.32 208.88 238.31 196.1 222.28 205.34"/><polygon class="cls-25" points="222.28 212.5 222.28 218.37 238.32 209.01 238.31 203.26 222.28 212.5"/><polygon class="cls-11" points="223.08 212.68 223.09 217.26 237.67 208.78 237.67 204.29 223.08 212.68"/><polygon class="cls-10" points="223.08 212.68 223.09 217.26 237.67 208.78 237.67 208.76 233.76 206.53 223.08 212.68"/><polygon class="cls-25" points="226.35 212.6 226.35 213.68 234.41 209 234.41 207.95 226.35 212.6"/><polygon class="cls-25" points="226.35 212.6 226.35 214.49 227.36 213.9 227.36 212.04 226.35 212.6"/><polygon class="cls-26" points="226.32 214.46 223.14 212.65 224.77 211.71 226.33 210.81 226.33 210.81 224.77 211.71 226.33 212.59 226.33 214.45 226.32 214.46"/><polygon class="cls-23" points="226.35 212.6 224.77 211.71 232.82 207.07 234.4 207.97 226.35 212.6"/><polygon class="cls-25" points="222.28 205.34 222.28 211.21 238.32 201.85 238.31 196.1 222.28 205.34"/><polygon class="cls-11" points="223.08 205.52 223.09 210.1 237.67 201.62 237.67 197.13 223.08 205.52"/><polygon class="cls-10" points="223.08 205.52 223.09 210.1 237.67 201.62 237.67 201.6 233.76 199.38 223.08 205.52"/><polygon class="cls-25" points="226.35 205.44 226.35 206.52 234.41 201.84 234.41 200.79 226.35 205.44"/><polygon class="cls-25" points="226.35 205.44 226.35 207.33 227.36 206.74 227.36 204.88 226.35 205.44"/><polygon class="cls-26" points="226.32 207.3 223.14 205.49 224.77 204.55 226.33 203.65 226.33 203.65 224.77 204.55 226.33 205.44 226.33 207.29 226.32 207.3"/><polygon class="cls-23" points="226.35 205.44 224.77 204.55 232.82 199.91 234.4 200.81 226.35 205.44"/><polygon class="cls-11" points="223.39 210.86 223.39 211.54 224.12 211.11 224.12 210.45 223.39 210.86"/><polygon class="cls-11" points="237 202.87 237 203.55 237.73 203.13 237.73 202.46 237 202.87"/><polygon class="cls-11" points="224.66 210.09 224.66 210.77 236.38 203.94 236.37 203.27 224.66 210.09"/><polygon class="cls-25" points="225.53 202 219.46 198.55 220.76 197.74 226.82 201.19 225.53 202"/><polygon class="cls-25" points="229.9 199.51 223.83 196.06 225.13 195.25 231.19 198.7 229.9 199.51"/><polygon class="cls-23" points="205.74 227.86 205.77 214.81 197.03 209.84 193.15 220.61 205.74 227.86"/><polygon class="cls-27" points="205.77 214.81 197.03 209.85 213.06 200.6 221.79 205.57 205.77 214.81"/><polygon class="cls-25" points="205.72 214.83 205.73 227.73 221.76 218.37 221.76 205.58 205.72 214.83"/><polygon class="cls-25" points="205.72 221.99 205.73 227.85 221.77 218.49 221.76 212.74 205.72 221.99"/><polygon class="cls-11" points="206.53 222.16 206.53 226.75 221.12 218.26 221.11 213.77 206.53 222.16"/><polygon class="cls-10" points="206.53 222.16 206.53 226.75 221.12 218.26 221.12 218.25 217.2 216.02 206.53 222.16"/><polygon class="cls-25" points="209.79 222.09 209.79 223.17 217.85 218.49 217.85 217.43 209.79 222.09"/><polygon class="cls-25" points="209.79 222.09 209.79 223.98 210.81 223.39 210.81 221.52 209.79 222.09"/><polygon class="cls-26" points="209.77 223.94 206.58 222.13 208.22 221.19 209.78 220.29 209.78 220.29 208.22 221.19 209.78 222.08 209.78 223.94 209.77 223.94"/><polygon class="cls-23" points="209.79 222.09 208.22 221.19 216.27 216.56 217.85 217.46 209.79 222.09"/><polygon class="cls-25" points="205.72 214.83 205.73 220.69 221.77 211.33 221.76 205.58 205.72 214.83"/><polygon class="cls-11" points="206.53 215 206.53 219.59 221.12 211.1 221.11 206.61 206.53 215"/><polygon class="cls-10" points="206.53 215 206.53 219.59 221.12 211.1 221.12 211.09 217.2 208.86 206.53 215"/><polygon class="cls-25" points="209.79 214.93 209.79 216.01 217.85 211.33 217.85 210.27 209.79 214.93"/><polygon class="cls-25" points="209.79 214.93 209.79 216.82 210.81 216.23 210.81 214.36 209.79 214.93"/><polygon class="cls-26" points="209.77 216.78 206.58 214.97 208.22 214.03 209.78 213.13 209.78 213.13 208.22 214.03 209.78 214.92 209.78 216.78 209.77 216.78"/><polygon class="cls-23" points="209.79 214.93 208.22 214.03 216.27 209.4 217.85 210.3 209.79 214.93"/><polygon class="cls-11" points="206.84 220.34 206.84 221.02 207.57 220.6 207.57 219.93 206.84 220.34"/><polygon class="cls-11" points="220.44 212.35 220.44 213.04 221.17 212.61 221.17 211.95 220.44 212.35"/><polygon class="cls-11" points="208.1 219.58 208.1 220.26 219.82 213.42 219.82 212.76 208.1 219.58"/><polygon class="cls-25" points="208.97 211.48 202.9 208.04 204.2 207.22 210.27 210.67 208.97 211.48"/><polygon class="cls-25" points="213.34 208.99 207.27 205.55 208.57 204.73 214.64 208.18 213.34 208.99"/><path class="cls-8" d="M127.09,160.67l2.19-1.25v-1.35h2.37l55.73-31.75a4.1,4.1,0,0,1,4.16,0l38.62,21.93h6.26v3.55l11.06,6.28H252v3.44h0a1.42,1.42,0,0,1-.74,1.26l-64.07,36.55a4.12,4.12,0,0,1-4.17,0l-59.73-33.94a1.45,1.45,0,0,1-.74-1.28h0v-3.44Z"/><path class="cls-7" d="M127.09,160.67l2.19-1.25v-1.35h2.37l37.45-21.34h14.63v62.92a4.44,4.44,0,0,1-.71-.32l-59.73-33.94a1.45,1.45,0,0,1-.74-1.28h0v-3.44Z"/><polygon class="cls-13" points="236.42 148.24 236.42 149.82 172.58 186.34 172.58 191.62 167.98 189.41 167.98 187.23 236.42 148.24"/><path class="cls-28" d="M123.29,159.28l64.09-36.51a4.1,4.1,0,0,1,4.16,0l44.88,25.48-68.44,39-44.69-25.39a1.45,1.45,0,0,1-.74-1.28A1.42,1.42,0,0,1,123.29,159.28Z"/><path class="cls-29" d="M240.88,147.35l10.37,9.31a1.71,1.71,0,0,1,.75,1.28,1.45,1.45,0,0,1-.74,1.28l-64.07,36.55c-1.33.76-3,1-4.17,0l-10.58-9.44Z"/><polygon class="cls-7" points="177.46 131.36 218.8 154.69 202.34 163.53 165 142.59 177.46 131.36"/><polygon class="cls-8" points="126.88 163.89 165 142.59 177.46 131.36 134.66 155.61 126.88 163.89"/><polygon class="cls-8" points="132.22 166.88 170.33 145.58 182.79 134.35 139.99 158.6 132.22 166.88"/><polygon class="cls-8" points="137.55 169.88 175.67 148.57 188.13 137.34 145.32 161.59 137.55 169.88"/><polygon class="cls-8" points="142.89 172.87 181 151.56 193.46 140.34 150.66 164.59 142.89 172.87"/><polygon class="cls-8" points="148.22 175.86 186.34 154.55 198.79 143.33 155.99 167.58 148.22 175.86"/><polygon class="cls-8" points="153.56 178.85 191.67 157.54 204.13 146.32 161.33 170.57 153.56 178.85"/><polygon class="cls-8" points="158.89 181.84 197.01 160.53 209.47 149.31 166.66 173.56 158.89 181.84"/><polygon class="cls-8" points="164.23 184.83 202.34 163.53 214.8 152.3 172 176.55 164.23 184.83"/><path class="cls-30" d="M215,152.2l-41.08,23.37v-1.84l39.44-22.44,1.64.91Zm-41.08,17.33,35.71-20.31-1.64-.9-34.07,19.37v1.84Zm0-6,30.34-17.24-1.64-.91-28.7,16.31v1.84Zm0-6,25-14.18-1.64-.91-23.33,13.25v1.84Zm0-6,19.6-11.13-1.64-.9-18,10.19v1.84Zm0-6v-1.84l12.59-7.14,1.64.91-14.23,8.07Zm0-6,8.86-5-1.64-.9-7.22,4.09v1.84Zm0-6v-1.84l2.28-1.29,1.64.91Zm0,42.19-2.28,1.3L170,176l3.92-2.24v1.84Zm0-44v1.84l-39.27,22.23-1.67-.9,40.94-23.17Zm0,6-35.65,20.2,1.64.91,34-19.27v-1.84Zm0,6-30.36,17.22,1.64.91,28.72-16.29v-1.84Zm0,6-25.07,14.23,1.64.9,23.43-13.29v-1.84Zm0,6v1.84l-18.14,10.3-1.64-.91,19.78-11.23Zm0,6v1.84l-12.86,7.31-1.64-.91,14.5-8.24Zm0,6-9.21,5.24,1.64.9,7.57-4.3Z"/><polygon class="cls-7" points="134.64 155.61 126.9 163.89 125.14 162.89 133 154.71 134.64 155.61"/><polygon class="cls-7" points="139.92 158.65 132.18 166.93 130.43 165.93 138.28 157.74 139.92 158.65"/><polygon class="cls-7" points="145.21 161.69 137.47 169.96 135.72 168.97 143.57 160.78 145.21 161.69"/><polygon class="cls-7" points="150.5 164.72 142.76 173 141 172 148.86 163.82 150.5 164.72"/><polygon class="cls-7" points="155.79 167.76 148.05 176.04 146.29 175.04 154.15 166.85 155.79 167.76"/><polygon class="cls-7" points="161.07 170.8 153.34 179.07 151.58 178.08 159.43 169.89 161.07 170.8"/><polygon class="cls-7" points="166.36 173.84 158.62 182.11 156.87 181.11 164.72 172.93 166.36 173.84"/><polygon class="cls-7" points="171.65 176.87 163.91 185.15 162.16 184.15 170.01 175.97 171.65 176.87"/><polygon class="cls-31" points="307.98 67.04 227.29 113.1 220.77 109.35 301.77 63.5 307.98 67.04"/><polygon class="cls-8" points="307.96 74.09 227.26 120.15 227.28 113.1 307.98 67.04 307.96 74.09"/><polygon class="cls-13" points="303.16 67.83 230.22 109.47 227.27 107.75 300.51 66.31 303.16 67.83"/><polygon class="cls-7" points="303.16 67.83 300.54 69.33 300.54 66.33 303.16 67.83"/><polygon class="cls-7" points="227.28 113.1 220.77 109.35 220.77 116.4 227.26 120.15 227.28 113.1"/><polygon class="cls-32" points="315.37 71.25 234.67 117.31 228.15 113.55 309.16 67.7 315.37 71.25"/><polygon class="cls-33" points="315.35 78.29 234.64 124.35 234.67 117.3 315.37 71.25 315.35 78.29"/><polygon class="cls-11" points="310.55 72.03 237.6 113.67 234.66 111.95 307.89 70.51 310.55 72.03"/><polygon class="cls-10" points="310.55 72.03 307.93 73.53 307.93 70.53 310.55 72.03"/><polygon class="cls-10" points="234.67 117.3 228.15 113.55 228.15 120.6 234.64 124.35 234.67 117.3"/><polygon class="cls-34" points="322.75 75.45 242.06 121.51 235.54 117.75 316.54 71.9 322.75 75.45"/><polygon class="cls-8" points="322.73 82.49 242.03 128.55 242.05 121.5 322.75 75.45 322.73 82.49"/><polygon class="cls-13" points="317.93 76.24 244.99 117.87 242.04 116.15 315.28 74.72 317.93 76.24"/><polygon class="cls-7" points="317.93 76.24 315.31 77.73 315.31 74.73 317.93 76.24"/><polygon class="cls-7" points="242.05 121.5 235.54 117.75 235.54 124.8 242.03 128.55 242.05 121.5"/><polygon class="cls-35" points="330.14 79.65 249.44 125.71 242.92 121.95 323.93 76.1 330.14 79.65"/><polygon class="cls-11" points="330.11 86.69 249.41 132.75 249.44 125.7 330.14 79.65 330.11 86.69"/><polygon class="cls-11" points="325.31 80.44 252.37 122.07 249.42 120.35 322.66 78.92 325.31 80.44"/><polygon class="cls-10" points="325.31 80.44 322.7 81.93 322.7 78.93 325.31 80.44"/><polygon class="cls-10" points="249.44 125.7 242.92 121.95 242.92 129 249.41 132.75 249.44 125.7"/><polygon class="cls-36" points="337.52 83.85 256.82 129.91 250.31 126.15 331.31 80.3 337.52 83.85"/><polygon class="cls-8" points="337.5 90.89 256.8 136.95 256.82 129.91 337.52 83.85 337.5 90.89"/><polygon class="cls-13" points="332.7 84.64 259.75 126.27 256.81 124.55 330.05 83.12 332.7 84.64"/><polygon class="cls-7" points="332.7 84.64 330.08 86.13 330.08 83.13 332.7 84.64"/><polygon class="cls-7" points="256.82 129.91 250.31 126.15 250.31 133.21 256.8 136.95 256.82 129.91"/><polygon class="cls-14" points="276.97 83.92 272.7 81.49 271.23 82.05 275.56 84.52 276.97 83.92"/><polygon class="cls-7" points="274.75 84.05 271.95 85.64 271.96 82.47 274.75 84.05"/><polygon class="cls-25" points="284.37 88.1 280.1 85.66 278.64 86.23 282.97 88.7 284.37 88.1"/><polygon class="cls-14" points="291.77 92.27 287.5 89.84 286.04 90.4 290.37 92.87 291.77 92.27"/><polygon class="cls-25" points="299.18 96.44 294.91 94.01 293.44 94.57 297.77 97.05 299.18 96.44"/><polygon class="cls-14" points="306.58 100.62 302.31 98.18 300.84 98.75 305.18 101.22 306.58 100.62"/><polygon class="cls-10" points="282.16 88.22 279.36 89.82 279.36 86.64 282.16 88.22"/><polygon class="cls-7" points="289.56 92.39 286.76 93.99 286.76 90.81 289.56 92.39"/><polygon class="cls-10" points="296.96 96.57 294.16 98.17 294.17 94.99 296.96 96.57"/><polygon class="cls-7" points="304.36 100.74 301.57 102.34 301.57 99.16 304.36 100.74"/><polygon class="cls-37" points="11.55 116.58 32.23 128.62 38.06 125.25 17.11 113.41 11.55 116.58"/><polygon class="cls-23" points="11.57 126.1 32.25 138.13 32.23 128.61 11.55 116.58 11.57 126.1"/><polygon class="cls-10" points="15.87 117.29 30.79 126.05 33.42 124.5 18.24 115.93 15.87 117.29"/><polygon class="cls-11" points="15.87 117.29 18.21 118.63 18.21 115.94 15.87 117.29"/><polygon class="cls-38" points="32.23 128.61 38.06 125.25 38.06 134.78 32.25 138.13 32.23 128.61"/><polygon class="cls-39" points="353.83 131.28 309.17 157.07 298.66 151.02 343.3 125.23 353.83 131.28"/><polygon class="cls-11" points="353.79 142.63 309.13 168.43 309.16 157.07 353.83 131.28 353.79 142.63"/><polygon class="cls-10" points="309.16 157.07 298.66 151.02 298.66 162.39 309.12 168.42 309.16 157.07"/><polygon class="cls-11" points="308.39 150.97 304.5 153.21 300.68 151 304.55 148.76 308.39 150.97"/><polygon class="cls-11" points="313.26 153.73 309.38 155.97 305.55 153.77 309.43 151.53 313.26 153.73"/><polygon class="cls-11" points="313.16 148.15 309.28 150.39 305.45 148.19 309.33 145.95 313.16 148.15"/><polygon class="cls-11" points="317.94 145.34 314.06 147.58 310.23 145.37 314.1 143.13 317.94 145.34"/><polygon class="cls-11" points="322.71 142.52 318.83 144.77 315 142.56 318.88 140.32 322.71 142.52"/><polygon class="cls-11" points="327.49 139.71 323.61 141.95 319.78 139.75 323.65 137.51 327.49 139.71"/><polygon class="cls-11" points="332.26 136.9 328.38 139.14 324.55 136.93 328.43 134.69 332.26 136.9"/><polygon class="cls-11" points="337.04 134.08 333.16 136.32 329.33 134.12 333.2 131.88 337.04 134.08"/><polygon class="cls-11" points="341.81 131.27 337.93 133.51 334.1 131.31 337.98 129.07 341.81 131.27"/><polygon class="cls-11" points="346.59 128.45 342.71 130.7 338.88 128.49 342.75 126.25 346.59 128.45"/><polygon class="cls-11" points="318.04 150.92 314.15 153.16 310.32 150.95 314.2 148.72 318.04 150.92"/><polygon class="cls-11" points="322.81 148.1 318.93 150.35 315.1 148.14 318.98 145.9 322.81 148.1"/><polygon class="cls-11" points="327.59 145.29 323.7 147.53 319.88 145.33 323.75 143.09 327.59 145.29"/><polygon class="cls-11" points="332.36 142.47 328.48 144.72 324.65 142.51 328.53 140.27 332.36 142.47"/><polygon class="cls-11" points="337.14 139.66 333.25 141.91 329.43 139.7 333.3 137.46 337.14 139.66"/><polygon class="cls-11" points="341.91 136.85 338.03 139.09 334.2 136.88 338.08 134.65 341.91 136.85"/><polygon class="cls-11" points="346.69 134.03 342.81 136.28 338.98 134.07 342.85 131.83 346.69 134.03"/><polygon class="cls-11" points="351.46 131.22 347.58 133.46 343.75 131.26 347.63 129.02 351.46 131.22"/><path class="cls-10" d="M120.4,54.42l2.37-1.35V51.62h2.56l40.43-23h15.8L147.13,87.46,116.31,70a1.59,1.59,0,0,1-.81-1.38h0V54.42Z"/><polygon class="cls-11" points="242.91 18.83 242.91 33.72 147.13 87.46 147.13 73.2 242.91 18.83"/><path class="cls-40" d="M116.31,52.92,209.53,0l33.33,18.86L147.13,73.2,116.31,55.69a1.59,1.59,0,0,1,0-2.77Z"/><polygon class="cls-10" points="174.78 22.79 201.96 37.88 184.37 47.83 161.33 34.91 174.78 22.79"/><polygon class="cls-11" points="120.19 57.91 161.33 34.91 174.78 22.79 128.57 48.97 120.19 57.91"/><polygon class="cls-11" points="125.94 61.14 167.09 38.14 180.54 26.02 134.33 52.2 125.94 61.14"/><polygon class="cls-11" points="131.7 64.37 172.85 41.37 186.3 29.25 140.09 55.43 131.7 64.37"/><polygon class="cls-11" points="137.46 67.59 178.61 44.6 192.06 32.48 145.85 58.66 137.46 67.59"/><polygon class="cls-11" points="143.22 70.82 184.37 47.82 197.82 35.7 151.61 61.88 143.22 70.82"/><polygon class="cls-41" points="180.54 26.02 134.33 52.2 132.49 51.27 178.77 25.04 180.54 26.02"/><polygon class="cls-42" points="186.34 29.23 139.97 55.52 138.2 54.55 184.57 28.25 186.34 29.23"/><polygon class="cls-43" points="192.14 32.44 145.68 58.8 143.91 57.83 190.37 31.46 192.14 32.44"/><polygon class="cls-44" points="197.94 35.65 151.39 62.08 149.62 61.1 196.16 34.67 197.94 35.65"/><polygon class="cls-45" points="175.41 22.6 128.55 48.97 126.78 47.99 173.63 21.62 175.41 22.6"/><polygon class="cls-46" points="128.55 48.97 120.2 57.9 118.3 56.83 126.78 47.99 128.55 48.97"/><polygon class="cls-46" points="134.26 52.25 125.91 61.18 124.01 60.1 132.49 51.27 134.26 52.25"/><polygon class="cls-46" points="139.97 55.52 131.62 64.46 129.72 63.38 138.2 54.55 139.97 55.52"/><polygon class="cls-46" points="145.68 58.8 137.32 67.74 135.43 66.66 143.91 57.83 145.68 58.8"/><polygon class="cls-46" points="151.39 62.08 143.03 71.02 141.14 69.94 149.62 61.1 151.39 62.08"/><path class="cls-11" d="M209.4,7c9.77.26,17.56,5.39,17.4,11.46s-8.22,10.77-18,10.51-17.56-5.39-17.4-11.45S199.63,6.77,209.4,7Z"/><path class="cls-11" d="M209.38,7.85c9,.24,16.25,5,16.1,10.6s-7.6,10-16.64,9.73-16.25-5-16.1-10.6S200.34,7.61,209.38,7.85Z"/><path class="cls-47" d="M221.54,11.6c-1.13.81-2.5,1.66-4,2.53-1.85,1.08-3.9,2.19-5.92,3.25,2.24,0,4.55,0,6.68-.05a32.63,32.63,0,0,0,6.93-.77,6.58,6.58,0,0,1,.24,1.6,34.86,34.86,0,0,1-7.12.77c-2.12.07-4.42.08-6.65.05,1.58.83,3.16,1.62,4.68,2.34l0,0c2.24,1.07,4.35,2,6.15,2.69a12.63,12.63,0,0,1-1.51,1.13c-1.61-.66-3.42-1.46-5.31-2.36l-.05,0c-1.83-.87-3.76-1.84-5.7-2.88.82,2,1.67,4,2.52,5.77.35.76.7,1.5,1,2.21-.55.08-1.11.15-1.69.21-.27-.57-.55-1.15-.82-1.75-.91-1.95-1.83-4.05-2.7-6.2-1,2.09-1.89,4.17-2.69,6.13h0c-.21.52-.41,1-.61,1.54-.55-.1-1.08-.21-1.6-.34.23-.59.47-1.2.73-1.81h0c.75-1.85,1.59-3.78,2.48-5.7-1.85,1-3.65,2-5.34,3-1.26.76-2.46,1.49-3.55,2.2a13.87,13.87,0,0,1-1.43-1c1.26-.83,2.67-1.7,4.16-2.59s3.08-1.79,4.72-2.68c-1.83,0-3.63.05-5.34.13-2.57.11-4.94.28-6.89.51a6.6,6.6,0,0,1-.26-1.58c2-.24,4.45-.43,7.09-.54,1.73-.07,3.56-.12,5.42-.13-2-1.07-4-2.14-5.94-3.08-1.48-.72-2.87-1.35-4.09-1.82a11.84,11.84,0,0,1,1.41-1.17c1.05.44,2.19,1,3.38,1.54,2.21,1.08,4.59,2.34,6.85,3.58-.94-2.36-2-4.83-3-7-.14-.32-.29-.63-.43-.93.54-.12,1.08-.21,1.65-.29l.25.55c1.06,2.35,2.14,5,3.13,7.48,1.14-2.39,2.33-4.94,3.32-7.3.11-.25.21-.5.31-.75.55.07,1.1.16,1.63.27-.14.36-.3.73-.45,1.1-.93,2.2-2,4.59-3.12,6.87,2.2-1.14,4.49-2.37,6.56-3.57,1.23-.72,2.37-1.42,3.34-2.09A15.79,15.79,0,0,1,221.54,11.6Z"/><path class="cls-8" d="M209.25,12.76c4.67.12,8.4,2.58,8.33,5.48s-3.94,5.16-8.61,5-8.41-2.58-8.33-5.49S204.57,12.63,209.25,12.76Z"/><path class="cls-48" d="M209.23,12.64c4,.11,7.24,2.22,7.17,4.73S213,21.81,209,21.7s-7.24-2.22-7.17-4.72S205.2,12.54,209.23,12.64Z"/><path class="cls-11" d="M188.12,79.86,219.41,62a2,2,0,0,1,2,0L250.6,78.59a.72.72,0,0,1,0,1.25L219.32,97.68a2,2,0,0,1-2,0L188.12,81.12a.73.73,0,0,1,0-1.26Z"/><polygon class="cls-49" points="238.02 29 248.75 35.12 256.52 30.64 245.82 24.52 238.02 29"/><polygon class="cls-10" points="238.05 37.4 248.78 43.52 248.75 35.12 238.02 29 238.05 37.4"/><polygon class="cls-11" points="248.75 35.12 256.52 30.64 256.52 39.05 248.78 43.52 248.75 35.12"/><polygon class="cls-50" points="249.82 35.77 260.54 41.9 268.32 37.41 257.62 31.3 249.82 35.77"/><polygon class="cls-10" points="249.85 44.18 260.57 50.3 260.55 41.9 249.82 35.77 249.85 44.18"/><polygon class="cls-11" points="260.55 41.89 268.32 37.41 268.32 45.83 260.58 50.3 260.55 41.89"/><polygon class="cls-51" points="261.62 42.55 272.34 48.67 280.12 44.19 269.42 38.08 261.62 42.55"/><polygon class="cls-10" points="261.65 50.96 272.37 57.08 272.35 48.67 261.62 42.55 261.65 50.96"/><polygon class="cls-11" points="272.35 48.67 280.12 44.19 280.12 52.61 272.38 57.08 272.35 48.67"/><polygon class="cls-52" points="273.42 49.33 284.14 55.45 291.92 50.97 281.21 44.85 273.42 49.33"/><polygon class="cls-10" points="273.45 57.73 284.17 63.85 284.14 55.45 273.42 49.33 273.45 57.73"/><polygon class="cls-11" points="284.15 55.45 291.92 50.97 291.92 59.38 284.17 63.85 284.15 55.45"/><polygon class="cls-53" points="228.8 34.07 239.51 40.2 247.29 35.71 236.59 29.6 228.8 34.07"/><polygon class="cls-10" points="228.82 42.48 239.55 48.6 239.52 40.19 228.79 34.07 228.82 42.48"/><polygon class="cls-11" points="239.52 40.19 247.29 35.71 247.29 44.13 239.55 48.6 239.52 40.19"/><polygon class="cls-54" points="240.59 40.85 251.31 46.97 259.09 42.49 248.39 36.38 240.59 40.85"/><polygon class="cls-10" points="240.62 49.25 251.35 55.37 251.32 46.97 240.59 40.85 240.62 49.25"/><polygon class="cls-11" points="251.32 46.97 259.09 42.49 259.09 50.9 251.35 55.37 251.32 46.97"/><polygon class="cls-55" points="252.39 47.63 263.11 53.75 270.89 49.27 260.19 43.15 252.39 47.63"/><polygon class="cls-10" points="252.42 56.03 263.14 62.15 263.12 53.75 252.39 47.63 252.42 56.03"/><polygon class="cls-11" points="263.12 53.75 270.89 49.27 270.89 57.68 263.15 62.15 263.12 53.75"/><polygon class="cls-56" points="264.19 54.4 274.91 60.52 282.69 56.04 271.99 49.93 264.19 54.4"/><polygon class="cls-10" points="264.22 62.81 274.94 68.93 274.92 60.52 264.19 54.4 264.22 62.81"/><polygon class="cls-11" points="274.92 60.52 282.69 56.04 282.69 64.46 274.94 68.93 274.92 60.52"/><path class="cls-5" d="M174.51,73.88c2.45.06,4.4,1.35,4.36,2.87s-2.06,2.69-4.51,2.63S170,78,170,76.51,172.07,73.81,174.51,73.88Z"/><path class="cls-5" d="M186.55,67.23c2.44.06,4.39,1.35,4.35,2.86s-2.05,2.7-4.5,2.64-4.39-1.35-4.35-2.87S184.1,67.16,186.55,67.23Z"/><path class="cls-5" d="M198.58,60.68c2.45.07,4.4,1.35,4.36,2.87s-2.06,2.7-4.5,2.63-4.4-1.34-4.36-2.86S196.14,60.62,198.58,60.68Z"/><path class="cls-5" d="M210.62,54c2.44.07,4.39,1.35,4.35,2.87s-2.05,2.7-4.5,2.63-4.39-1.35-4.35-2.86S208.17,54,210.62,54Z"/><path class="cls-10" d="M178.06,76.48c0,.06,0,.12,0,.18,0,1.25-1.69,2.22-3.69,2.16s-3.6-1.1-3.57-2.34V68.94h7.26v7.54Z"/><path class="cls-11" d="M177.39,77.93a4.51,4.51,0,0,1-3,.89,5.07,5.07,0,0,1-2.3-.58v-9.3h5.31Z"/><path class="cls-17" d="M175.85,78.67a5.77,5.77,0,0,1-1.47.15,6.13,6.13,0,0,1-.76-.07V68.94h2.23Z"/><path class="cls-10" d="M174.5,66.59c2,0,3.6,1.1,3.57,2.35s-1.69,2.21-3.69,2.16-3.6-1.11-3.57-2.35S172.49,66.54,174.5,66.59Z"/><path class="cls-57" d="M174.49,66.87c1.75,0,3.15,1,3.12,2.06s-1.47,1.93-3.22,1.88-3.15-1-3.12-2S172.74,66.82,174.49,66.87Z"/><path class="cls-10" d="M190.12,69.83a1.15,1.15,0,0,1,0,.19c0,1.25-1.69,2.21-3.69,2.15s-3.6-1.1-3.57-2.34V62.29h7.26v7.54Z"/><path class="cls-11" d="M189.45,71.28a4.51,4.51,0,0,1-3,.89,5.07,5.07,0,0,1-2.3-.58v-9.3h5.31Z"/><path class="cls-17" d="M187.91,72a5.36,5.36,0,0,1-1.47.15,4.77,4.77,0,0,1-.76-.07V62.29h2.23Z"/><path class="cls-10" d="M186.56,59.94c2,.06,3.6,1.11,3.57,2.35s-1.69,2.21-3.69,2.16-3.6-1.11-3.57-2.35S184.55,59.89,186.56,59.94Z"/><path class="cls-58" d="M186.55,60.22c1.75.05,3.15,1,3.12,2.06s-1.47,1.93-3.22,1.89-3.15-1-3.12-2.06S184.8,60.18,186.55,60.22Z"/><path class="cls-10" d="M202.18,63.18a1.21,1.21,0,0,1,0,.19c0,1.25-1.68,2.22-3.69,2.16s-3.6-1.11-3.57-2.35V55.64h7.26v7.54Z"/><path class="cls-11" d="M201.51,64.64a4.56,4.56,0,0,1-3,.89,5.2,5.2,0,0,1-2.3-.58V55.64h5.31Z"/><path class="cls-17" d="M200,65.37a5.76,5.76,0,0,1-1.47.16,6.31,6.31,0,0,1-.76-.08V55.64H200Z"/><path class="cls-10" d="M198.62,53.3c2,.05,3.6,1.1,3.57,2.35s-1.69,2.21-3.69,2.15-3.6-1.1-3.57-2.35S196.62,53.24,198.62,53.3Z"/><path class="cls-59" d="M198.61,53.58c1.75,0,3.15,1,3.12,2.05s-1.47,1.94-3.22,1.89-3.15-1-3.12-2.06S196.86,53.53,198.61,53.58Z"/><path class="cls-10" d="M214.24,56.54a1.09,1.09,0,0,1,0,.18c0,1.25-1.68,2.22-3.69,2.16s-3.6-1.1-3.57-2.34V49h7.26v7.54Z"/><path class="cls-11" d="M213.58,58a4.55,4.55,0,0,1-3,.89,5.07,5.07,0,0,1-2.3-.58V49h5.32Z"/><path class="cls-17" d="M212,58.73a5.36,5.36,0,0,1-1.47.15,6.31,6.31,0,0,1-.76-.07V49H212Z"/><path class="cls-10" d="M210.68,46.65c2,.05,3.6,1.1,3.57,2.35s-1.68,2.21-3.69,2.16S207,50.05,207,48.81,208.68,46.6,210.68,46.65Z"/><path class="cls-60" d="M210.67,46.93c1.76,0,3.15,1,3.12,2.06s-1.47,1.93-3.22,1.88-3.15-1-3.12-2S208.92,46.89,210.67,46.93Z"/><path class="cls-5" d="M155.89,83.35c2.45.06,4.4,1.35,4.36,2.87s-2.06,2.69-4.5,2.63-4.4-1.35-4.36-2.87S153.45,83.28,155.89,83.35Z"/><path class="cls-7" d="M159.4,85.82c.19,1.81-2.43,2.38-3.68,2.35-2-.06-3.6-1.11-3.57-2.35v-11h7.26Z"/><path class="cls-8" d="M158.74,87.27a4.94,4.94,0,0,1-3,.9,4.62,4.62,0,0,1-2.3-.58V74.86h5.32Z"/><path class="cls-13" d="M157.2,88a6.62,6.62,0,0,1-1.48.16,5.19,5.19,0,0,1-.75-.08V74.86h2.23Z"/><path class="cls-7" d="M155.84,72.51c2,0,3.61,1.11,3.57,2.35s-1.68,2.21-3.69,2.16-3.6-1.11-3.57-2.35S153.84,72.46,155.84,72.51Z"/><path class="cls-61" d="M155.84,72.79c1.75,0,3.15,1,3.12,2.06s-1.48,1.93-3.23,1.88-3.15-1-3.12-2S154.08,72.75,155.84,72.79Z"/><path class="cls-5" d="M241.9,51.12c2.45.06,4.4,1.35,4.36,2.86s-2.06,2.7-4.5,2.64-4.4-1.35-4.36-2.87S239.46,51.05,241.9,51.12Z"/><path class="cls-5" d="M250,56c2.44.06,4.39,1.35,4.35,2.87s-2.05,2.69-4.5,2.63-4.39-1.35-4.35-2.87S247.57,55.92,250,56Z"/><path class="cls-10" d="M245.58,53.76a1.09,1.09,0,0,1,0,.18c0,1.25-1.68,2.22-3.69,2.16s-3.6-1.1-3.57-2.34V46.22h7.26v7.54Z"/><path class="cls-11" d="M244.92,55.21a4.53,4.53,0,0,1-3,.89,5.07,5.07,0,0,1-2.3-.58v-9.3h5.32Z"/><path class="cls-17" d="M243.37,56a5.77,5.77,0,0,1-1.47.15,6,6,0,0,1-.75-.07V46.22h2.22Z"/><path class="cls-10" d="M242,43.87c2,.05,3.61,1.1,3.57,2.35s-1.68,2.21-3.69,2.16-3.6-1.11-3.57-2.35S240,43.82,242,43.87Z"/><path class="cls-62" d="M242,44.15c1.76.05,3.16,1,3.13,2.06s-1.48,1.93-3.23,1.88-3.15-1-3.12-2.05S240.26,44.11,242,44.15Z"/><path class="cls-10" d="M253.73,58.49a1.08,1.08,0,0,1,0,.18c0,1.25-1.68,2.22-3.69,2.16s-3.6-1.1-3.56-2.34V51h7.25v7.54Z"/><path class="cls-11" d="M253.06,59.94a4.53,4.53,0,0,1-3,.89,5,5,0,0,1-2.29-.58V51h5.31Z"/><path class="cls-17" d="M251.52,60.68a5.47,5.47,0,0,1-1.48.15,6,6,0,0,1-.75-.07V51h2.23Z"/><path class="cls-10" d="M250.16,48.6c2,0,3.61,1.11,3.57,2.35s-1.68,2.21-3.68,2.16-3.61-1.11-3.57-2.35S248.16,48.55,250.16,48.6Z"/><path class="cls-63" d="M250.16,48.88c1.75,0,3.15,1,3.12,2.06s-1.48,1.93-3.23,1.88-3.15-1-3.12-2S248.41,48.84,250.16,48.88Z"/><path class="cls-5" d="M298.62,115.14c2.45.06,4.4,1.35,4.36,2.86s-2.06,2.7-4.5,2.64-4.4-1.35-4.36-2.87S296.18,115.07,298.62,115.14Z"/><path class="cls-5" d="M263.68,153.27c2.45.06,4.4,1.35,4.36,2.86s-2.06,2.7-4.5,2.64-4.4-1.35-4.36-2.87S261.24,153.2,263.68,153.27Z"/><path class="cls-10" d="M267.12,155.62a1.09,1.09,0,0,1,0,.18c0,1.25-1.69,2.22-3.69,2.16s-3.6-1.1-3.57-2.34v-7.54h7.26v7.54Z"/><path class="cls-11" d="M266.45,157.07a4.51,4.51,0,0,1-3,.89,5.07,5.07,0,0,1-2.3-.58v-9.3h5.31Z"/><path class="cls-17" d="M264.91,157.81a5.77,5.77,0,0,1-1.47.15,6.31,6.31,0,0,1-.76-.07v-9.81h2.23Z"/><path class="cls-10" d="M263.56,145.73c2,.05,3.6,1.1,3.57,2.35s-1.69,2.21-3.69,2.16-3.6-1.11-3.57-2.35S261.56,145.67,263.56,145.73Z"/><path class="cls-64" d="M263.55,146c1.75.05,3.15,1,3.12,2.06S265.2,150,263.45,150s-3.15-1-3.12-2S261.8,146,263.55,146Z"/><path class="cls-5" d="M270.4,157.59c2.45.07,4.4,1.35,4.36,2.87s-2.06,2.7-4.51,2.63-4.39-1.35-4.35-2.87S268,157.53,270.4,157.59Z"/><path class="cls-10" d="M273.84,159.94c0,.06,0,.12,0,.19,0,1.25-1.69,2.21-3.69,2.15s-3.6-1.1-3.57-2.34V152.4h7.26v7.54Z"/><path class="cls-11" d="M273.17,161.39a4.51,4.51,0,0,1-3,.89,5.07,5.07,0,0,1-2.3-.58v-9.3h5.31Z"/><path class="cls-17" d="M271.63,162.13a5.36,5.36,0,0,1-1.47.15,4.77,4.77,0,0,1-.76-.07V152.4h2.23Z"/><path class="cls-10" d="M270.28,150.05c2,.06,3.6,1.11,3.57,2.35s-1.69,2.21-3.69,2.16-3.6-1.11-3.57-2.35S268.27,150,270.28,150.05Z"/><path class="cls-65" d="M270.27,150.34c1.75,0,3.15,1,3.12,2s-1.47,1.93-3.22,1.89-3.15-1-3.12-2.06S268.52,150.29,270.27,150.34Z"/><path class="cls-5" d="M208.11,189.25c2.45.06,4.39,1.35,4.35,2.87s-2.05,2.69-4.5,2.63-4.39-1.35-4.35-2.87S205.67,189.18,208.11,189.25Z"/><path class="cls-10" d="M211.55,191.6c0,.06,0,.12,0,.18,0,1.25-1.69,2.22-3.69,2.16s-3.6-1.1-3.57-2.34v-7.54h7.26v7.54Z"/><path class="cls-11" d="M210.88,193.05a4.51,4.51,0,0,1-3,.89,5.07,5.07,0,0,1-2.3-.58v-9.3h5.31Z"/><path class="cls-17" d="M209.34,193.79a5.77,5.77,0,0,1-1.47.15,6.13,6.13,0,0,1-.76-.07v-9.81h2.23Z"/><path class="cls-10" d="M208,181.71c2,0,3.6,1.1,3.57,2.35s-1.69,2.21-3.69,2.16-3.6-1.11-3.57-2.35S206,181.66,208,181.71Z"/><path class="cls-66" d="M208,182c1.75,0,3.15,1,3.12,2.06s-1.47,1.93-3.22,1.88-3.15-1-3.12-2.05S206.23,182,208,182Z"/><path class="cls-5" d="M200.09,193.91c2.45.06,4.4,1.35,4.36,2.87s-2.06,2.69-4.51,2.63-4.39-1.35-4.35-2.87S197.65,193.84,200.09,193.91Z"/><path class="cls-10" d="M203.53,196.26a1.09,1.09,0,0,1,0,.18c0,1.25-1.69,2.22-3.69,2.16s-3.6-1.1-3.57-2.34v-7.54h7.26v7.54Z"/><path class="cls-11" d="M202.86,197.71a4.51,4.51,0,0,1-3,.89,5.07,5.07,0,0,1-2.3-.58v-9.3h5.31Z"/><path class="cls-17" d="M201.32,198.45a5.77,5.77,0,0,1-1.47.15,6.31,6.31,0,0,1-.76-.07v-9.81h2.23Z"/><path class="cls-10" d="M200,186.37c2,0,3.6,1.1,3.57,2.35s-1.69,2.21-3.69,2.16-3.6-1.11-3.57-2.35S198,186.32,200,186.37Z"/><path class="cls-67" d="M200,186.65c1.75,0,3.15,1,3.12,2.06s-1.47,1.93-3.22,1.88-3.15-1-3.12-2.05S198.21,186.6,200,186.65Z"/><path class="cls-5" d="M130.12,170.84c1.88,0,3.37,1,3.34,2.2s-1.57,2.07-3.45,2-3.37-1-3.34-2.2S128.25,170.79,130.12,170.84Z"/><path class="cls-10" d="M133,173c.09.86-1.8,1.7-3,1.67-1.62,0-2.9-.95-2.88-1.67v-3.64H133Z"/><path class="cls-11" d="M132.44,173.85a4.07,4.07,0,0,1-4.3.32v-4.84h4.3Z"/><path class="cls-17" d="M131.19,174.52a4.2,4.2,0,0,1-1.8.06v-5.25h1.8Z"/><path class="cls-10" d="M130.1,167.43c1.62,0,2.91.89,2.89,1.9s-1.37,1.79-3,1.74-2.91-.89-2.88-1.9S128.48,167.38,130.1,167.43Z"/><path class="cls-68" d="M130.09,167.66c1.42,0,2.55.78,2.53,1.66s-1.19,1.56-2.61,1.52-2.55-.78-2.52-1.66S128.68,167.62,130.09,167.66Z"/><path class="cls-5" d="M121.15,184.31c1.87.05,3.36,1,3.33,2.2s-1.57,2.06-3.45,2-3.37-1-3.33-2.2S119.27,184.26,121.15,184.31Z"/><path class="cls-10" d="M124,186.44c.09.86-1.8,1.7-3,1.67-1.62,0-2.89-1-2.88-1.67v-3.65H124Z"/><path class="cls-11" d="M123.46,187.32a4.05,4.05,0,0,1-4.29.32v-4.85h4.29Z"/><path class="cls-17" d="M122.22,188a4.25,4.25,0,0,1-1.81.06v-5.26h1.81Z"/><path class="cls-10" d="M121.12,180.9c1.62,0,2.92.89,2.89,1.9s-1.36,1.78-3,1.74-2.92-.89-2.89-1.9S119.5,180.85,121.12,180.9Z"/><path class="cls-69" d="M121.12,181.12c1.41,0,2.54.79,2.52,1.67s-1.19,1.56-2.61,1.52-2.55-.78-2.52-1.66S119.7,181.09,121.12,181.12Z"/><path class="cls-5" d="M152.82,183.15c1.88,0,3.37,1,3.34,2.2s-1.58,2.07-3.45,2-3.37-1-3.34-2.2S151,183.1,152.82,183.15Z"/><path class="cls-10" d="M155.68,185.29c.09.86-1.81,1.69-3,1.66-1.62,0-2.9-.94-2.89-1.66v-3.65h5.87Z"/><path class="cls-11" d="M155.14,186.16a4.09,4.09,0,0,1-4.3.33v-4.85h4.3Z"/><path class="cls-17" d="M153.89,186.83a4.2,4.2,0,0,1-1.8.07v-5.26h1.8Z"/><path class="cls-10" d="M152.8,179.74c1.62,0,2.91.89,2.88,1.9s-1.36,1.79-3,1.74-2.91-.89-2.89-1.9S151.18,179.7,152.8,179.74Z"/><path class="cls-70" d="M152.79,180c1.42,0,2.55.78,2.53,1.66s-1.2,1.56-2.61,1.53-2.55-.79-2.53-1.67S151.37,179.93,152.79,180Z"/><path class="cls-5" d="M237.84,173.07c1.88.05,3.37,1,3.34,2.2s-1.58,2.07-3.45,2-3.37-1-3.34-2.2S236,173,237.84,173.07Z"/><path class="cls-10" d="M240.7,175.2c.09.86-1.81,1.7-3,1.67-1.62,0-2.9-1-2.89-1.67v-3.65h5.88Z"/><path class="cls-11" d="M240.16,176.08a4.07,4.07,0,0,1-4.3.32v-4.85h4.3Z"/><path class="cls-17" d="M238.91,176.75a4.2,4.2,0,0,1-1.8.06v-5.26h1.8Z"/><path class="cls-10" d="M237.82,169.66c1.62,0,2.91.89,2.89,1.9s-1.37,1.78-3,1.74-2.91-.89-2.89-1.9S236.2,169.61,237.82,169.66Z"/><path class="cls-71" d="M237.81,169.88c1.42,0,2.55.79,2.53,1.67s-1.19,1.56-2.61,1.52-2.55-.78-2.53-1.66S236.4,169.85,237.81,169.88Z"/><path class="cls-5" d="M226,124.65c1.87,0,3.37,1,3.34,2.2s-1.58,2.07-3.46,2-3.36-1-3.33-2.2S224.1,124.6,226,124.65Z"/><path class="cls-10" d="M228.83,126.79c.09.86-1.8,1.69-3,1.66-1.62,0-2.89-.95-2.88-1.66v-3.65h5.87Z"/><path class="cls-11" d="M228.29,127.66A4.05,4.05,0,0,1,224,128v-4.84h4.29Z"/><path class="cls-17" d="M227.05,128.33a4.25,4.25,0,0,1-1.81.07v-5.26h1.81Z"/><path class="cls-10" d="M226,121.24c1.62,0,2.92.89,2.89,1.9s-1.36,1.79-3,1.74S222.94,124,223,123,224.33,121.2,226,121.24Z"/><path class="cls-72" d="M226,121.47c1.41,0,2.54.78,2.52,1.66s-1.19,1.56-2.61,1.53-2.54-.79-2.52-1.67S224.53,121.43,226,121.47Z"/><path class="cls-5" d="M232.14,127.89c1.87,0,3.36,1,3.33,2.2s-1.57,2.06-3.45,2-3.37-1-3.33-2.2S230.26,127.84,232.14,127.89Z"/><path class="cls-10" d="M235,130c.09.86-1.8,1.7-3,1.67-1.62,0-2.89-.95-2.88-1.67v-3.65H235Z"/><path class="cls-11" d="M234.45,130.9a4.05,4.05,0,0,1-4.29.32v-4.85h4.29Z"/><path class="cls-17" d="M233.2,131.57a4.2,4.2,0,0,1-1.8.06v-5.26h1.8Z"/><path class="cls-10" d="M232.11,124.48c1.62,0,2.92.89,2.89,1.9s-1.36,1.78-3,1.74-2.91-.89-2.88-1.9S230.49,124.43,232.11,124.48Z"/><path class="cls-73" d="M232.11,124.7c1.41,0,2.54.79,2.52,1.67s-1.19,1.56-2.61,1.52-2.55-.78-2.52-1.66S230.69,124.67,232.11,124.7Z"/><path class="cls-5" d="M361.36,110.84c1.87,0,3.37,1,3.34,2.2s-1.58,2.06-3.45,2-3.37-1-3.34-2.19S359.48,110.79,361.36,110.84Z"/><path class="cls-10" d="M364.21,113c.1.86-1.8,1.7-3,1.67-1.63,0-2.9-1-2.89-1.67v-3.65h5.87Z"/><path class="cls-11" d="M363.68,113.84a4,4,0,0,1-4.3.33v-4.85h4.3Z"/><path class="cls-17" d="M362.43,114.51a4.05,4.05,0,0,1-1.8.07v-5.26h1.8Z"/><path class="cls-10" d="M361.34,107.42c1.62,0,2.91.9,2.88,1.9s-1.36,1.79-3,1.75-2.92-.89-2.89-1.9S359.71,107.38,361.34,107.42Z"/><path class="cls-74" d="M361.33,107.65c1.42,0,2.55.78,2.52,1.66s-1.19,1.57-2.61,1.53-2.54-.78-2.52-1.66S359.91,107.61,361.33,107.65Z"/><path class="cls-5" d="M295.56,162.85c1.87.05,3.37,1,3.33,2.2s-1.57,2.07-3.45,2-3.36-1-3.33-2.2S293.68,162.8,295.56,162.85Z"/><path class="cls-10" d="M298.41,165c.09.86-1.8,1.69-3,1.66-1.62,0-2.89-1-2.88-1.66v-3.65h5.87Z"/><path class="cls-11" d="M297.87,165.86a4.05,4.05,0,0,1-4.29.32v-4.84h4.29Z"/><path class="cls-17" d="M296.63,166.53a4.25,4.25,0,0,1-1.81.07v-5.26h1.81Z"/><path class="cls-10" d="M295.53,159.44c1.62,0,2.92.89,2.89,1.9s-1.36,1.79-3,1.74-2.92-.89-2.89-1.9S293.91,159.4,295.53,159.44Z"/><path class="cls-75" d="M295.53,159.67c1.41,0,2.54.78,2.52,1.66s-1.19,1.56-2.61,1.53-2.54-.79-2.52-1.67S294.11,159.63,295.53,159.67Z"/><path class="cls-5" d="M290.71,63.29c1.87.05,3.37,1,3.34,2.2s-1.58,2.07-3.45,2-3.37-1-3.34-2.2S288.83,63.24,290.71,63.29Z"/><path class="cls-10" d="M293.56,65.43c.09.86-1.8,1.7-3,1.66-1.63,0-2.9-.94-2.89-1.66V61.78h5.87Z"/><path class="cls-11" d="M293,66.3a4.07,4.07,0,0,1-4.3.33V61.78H293Z"/><path class="cls-17" d="M291.78,67A4.21,4.21,0,0,1,290,67V61.78h1.8Z"/><path class="cls-10" d="M290.68,59.88c1.63,0,2.92.89,2.89,1.9s-1.36,1.79-3,1.75-2.92-.9-2.89-1.91S289.06,59.84,290.68,59.88Z"/><path class="cls-25" d="M290.68,60.11c1.42,0,2.55.78,2.52,1.66s-1.19,1.56-2.61,1.53-2.54-.79-2.52-1.67S289.26,60.07,290.68,60.11Z"/><path class="cls-5" d="M338.72,97.82l-5,2.85a1.86,1.86,0,0,1-1.92,0l-3.22-1.85a.64.64,0,0,1,0-1.13L335,94.29l3.71,2.43a.62.62,0,0,1,.29.56A.66.66,0,0,1,338.72,97.82Z"/><polygon class="cls-76" points="338.21 93.14 332.79 96.24 328.85 93.97 334.27 90.88 338.21 93.14"/><polygon class="cls-38" points="338.19 97.39 332.77 100.49 332.78 96.24 338.21 93.14 338.19 97.39"/><polygon class="cls-23" points="332.78 96.24 328.85 93.97 328.85 98.23 332.77 100.49 332.78 96.24"/><path class="cls-5" d="M272.84,70l-5,2.85a1.88,1.88,0,0,1-1.93,0L262.69,71a.62.62,0,0,1-.32-.57.63.63,0,0,1,.34-.56l6.45-3.39,3.71,2.43a.6.6,0,0,1,.29.56A.62.62,0,0,1,272.84,70Z"/><polygon class="cls-77" points="272.33 65.36 266.91 68.46 262.98 66.19 268.39 63.1 272.33 65.36"/><polygon class="cls-38" points="272.32 69.61 266.89 72.71 266.91 68.46 272.33 65.36 272.32 69.61"/><polygon class="cls-23" points="266.91 68.46 262.98 66.19 262.98 70.45 266.89 72.71 266.91 68.46"/><path class="cls-5" d="M378.77,105l-5,2.85a1.91,1.91,0,0,1-1.93,0L368.62,106a.63.63,0,0,1-.32-.57.63.63,0,0,1,.34-.56l6.46-3.39,3.7,2.43a.64.64,0,0,1,.3.56A.64.64,0,0,1,378.77,105Z"/><path class="cls-5" d="M373.84,102.05l-5,2.85a1.9,1.9,0,0,1-1.93,0L363.69,103a.65.65,0,0,1,0-1.13l6.46-3.39,3.7,2.43a.64.64,0,0,1,.3.56A.64.64,0,0,1,373.84,102.05Z"/><polygon class="cls-78" points="373.19 97.44 367.76 100.53 363.83 98.27 369.24 95.17 373.19 97.44"/><polygon class="cls-11" points="373.17 101.69 367.75 104.78 367.76 100.53 373.19 97.44 373.17 101.69"/><polygon class="cls-10" points="367.76 100.53 363.83 98.27 363.83 102.52 367.75 104.78 367.76 100.53"/><polygon class="cls-79" points="378.25 100.4 372.83 103.5 368.89 101.23 374.31 98.14 378.25 100.4"/><polygon class="cls-11" points="378.24 104.65 372.81 107.75 372.82 103.5 378.25 100.4 378.24 104.65"/><polygon class="cls-10" points="372.82 103.5 368.89 101.23 368.89 105.49 372.81 107.75 372.82 103.5"/><path class="cls-5" d="M327.87,118.68l-8.18,4.66a3.07,3.07,0,0,1-3.14,0l-5.27-3a1.05,1.05,0,0,1,0-1.85l10.54-5.54,6.06,4a1,1,0,0,1,.48.92A1,1,0,0,1,327.87,118.68Z"/><path class="cls-5" d="M318,112.47l-8.18,4.66a3.07,3.07,0,0,1-3.14,0l-5.27-3a1.05,1.05,0,0,1-.53-.93,1,1,0,0,1,.57-.91L312,106.7l6.06,4a1,1,0,0,1,.48.91A1,1,0,0,1,318,112.47Z"/><polygon class="cls-80" points="316.77 104.58 307.79 109.71 301.27 105.95 310.24 100.83 316.77 104.58"/><polygon class="cls-11" points="316.75 111.62 307.76 116.75 307.78 109.71 316.77 104.58 316.75 111.62"/><polygon class="cls-10" points="307.78 109.7 301.27 105.95 301.27 113 307.76 116.75 307.78 109.7"/><path class="cls-10" d="M302.24,117.62a1.21,1.21,0,0,1,0,.19c0,1.25-1.68,2.22-3.69,2.16s-3.6-1.11-3.57-2.35v-7.54h7.26v7.54Z"/><path class="cls-11" d="M301.58,119.08a4.59,4.59,0,0,1-3,.89,5.2,5.2,0,0,1-2.3-.58v-9.31h5.32Z"/><path class="cls-17" d="M300,119.81a5.76,5.76,0,0,1-1.47.16,5.94,5.94,0,0,1-.75-.08v-9.81H300Z"/><path class="cls-10" d="M298.68,107.73c2,.06,3.61,1.11,3.57,2.35s-1.68,2.22-3.69,2.16-3.6-1.1-3.57-2.35S296.68,107.68,298.68,107.73Z"/><path class="cls-81" d="M298.68,108c1.75,0,3.15,1,3.12,2s-1.48,1.94-3.23,1.89-3.15-1-3.12-2.06S296.92,108,298.68,108Z"/><polygon class="cls-82" points="327.23 110.84 318.24 115.97 311.73 112.22 320.7 107.09 327.23 110.84"/><polygon class="cls-11" points="327.21 117.89 318.22 123.02 318.24 115.97 327.23 110.84 327.21 117.89"/><polygon class="cls-10" points="318.24 115.97 311.73 112.22 311.73 119.27 318.22 123.02 318.24 115.97"/><path class="cls-5" d="M309.26,121.54c2.45.07,4.4,1.35,4.36,2.87s-2.06,2.69-4.5,2.63-4.4-1.35-4.36-2.87S306.82,121.48,309.26,121.54Z"/><path class="cls-10" d="M312.7,123.89a1.09,1.09,0,0,1,0,.18c0,1.25-1.68,2.22-3.69,2.16s-3.6-1.1-3.57-2.34v-7.54h7.26v7.54Z"/><path class="cls-11" d="M312,125.34a4.55,4.55,0,0,1-3,.89,5.07,5.07,0,0,1-2.3-.58v-9.3H312Z"/><path class="cls-17" d="M310.49,126.08a5.36,5.36,0,0,1-1.47.15,6.31,6.31,0,0,1-.76-.07v-9.81h2.23Z"/><path class="cls-10" d="M309.14,114c2,0,3.6,1.11,3.57,2.35s-1.68,2.21-3.69,2.16-3.6-1.11-3.57-2.35S307.14,114,309.14,114Z"/><path class="cls-83" d="M309.13,114.28c1.76,0,3.15,1,3.12,2.06s-1.47,1.93-3.22,1.88-3.15-1-3.12-2S307.38,114.24,309.13,114.28Z"/><path class="cls-5" d="M297,123.29,288.85,128a3.09,3.09,0,0,1-3.15,0l-5.26-3a1,1,0,0,1-.53-.94,1,1,0,0,1,.56-.91L291,117.52l6.06,4a1,1,0,0,1,.48.92A1,1,0,0,1,297,123.29Z"/><polygon class="cls-84" points="296.43 115.75 287.44 120.88 280.93 117.12 289.9 112 296.43 115.75"/><polygon class="cls-11" points="296.41 122.79 287.42 127.92 287.44 120.88 296.43 115.75 296.41 122.79"/><polygon class="cls-10" points="287.44 120.88 280.93 117.12 280.93 124.18 287.42 127.92 287.44 120.88"/><path class="cls-5" d="M279.85,125.47c2.44.07,4.39,1.35,4.35,2.87s-2.05,2.7-4.5,2.63-4.39-1.35-4.35-2.87S277.4,125.41,279.85,125.47Z"/><path class="cls-10" d="M283.29,127.82a1.2,1.2,0,0,1,0,.19c0,1.25-1.68,2.21-3.69,2.15s-3.59-1.1-3.56-2.34v-7.54h7.25v7.54Z"/><path class="cls-11" d="M282.62,129.27a4.53,4.53,0,0,1-3,.89,5.06,5.06,0,0,1-2.29-.58v-9.3h5.31Z"/><path class="cls-17" d="M281.08,130a5.39,5.39,0,0,1-1.48.15,4.54,4.54,0,0,1-.75-.07v-9.81h2.23Z"/><path class="cls-10" d="M279.73,117.93c2,0,3.6,1.11,3.56,2.35s-1.68,2.21-3.68,2.16-3.61-1.11-3.57-2.35S277.72,117.88,279.73,117.93Z"/><path class="cls-85" d="M279.72,118.21c1.75.05,3.15,1,3.12,2.06s-1.47,1.93-3.23,1.89-3.15-1-3.12-2.06S278,118.17,279.72,118.21Z"/><path class="cls-5" d="M272.11,129.75c2.44.07,4.39,1.35,4.35,2.87s-2,2.69-4.5,2.63-4.39-1.35-4.35-2.87S269.66,129.68,272.11,129.75Z"/><path class="cls-10" d="M275.55,132.1a1.08,1.08,0,0,1,0,.18c0,1.25-1.68,2.22-3.69,2.16s-3.59-1.1-3.56-2.34v-7.54h7.25v7.54Z"/><path class="cls-11" d="M274.88,133.55a4.53,4.53,0,0,1-3,.89,5.06,5.06,0,0,1-2.29-.58v-9.3h5.31Z"/><path class="cls-17" d="M273.34,134.29a5.39,5.39,0,0,1-1.48.15,6,6,0,0,1-.75-.07v-9.81h2.23Z"/><path class="cls-10" d="M272,122.21c2,.05,3.6,1.11,3.57,2.35s-1.69,2.21-3.69,2.16-3.61-1.11-3.57-2.35S270,122.16,272,122.21Z"/><path class="cls-86" d="M272,122.49c1.75.05,3.15,1,3.12,2.06s-1.47,1.93-3.23,1.88-3.15-1-3.12-2.05S270.23,122.45,272,122.49Z"/><path class="cls-5" d="M286.57,129.8c2.44.06,4.39,1.35,4.35,2.86s-2.05,2.7-4.5,2.64-4.39-1.35-4.35-2.87S284.12,129.73,286.57,129.8Z"/><path class="cls-10" d="M290,132.14a1.28,1.28,0,0,1,0,.19c0,1.25-1.68,2.22-3.69,2.16s-3.6-1.11-3.56-2.35V124.6H290v7.54Z"/><path class="cls-11" d="M289.34,133.6a4.59,4.59,0,0,1-3,.89,5.12,5.12,0,0,1-2.29-.58V124.6h5.31Z"/><path class="cls-17" d="M287.8,134.34a5.9,5.9,0,0,1-1.48.15c-.26,0-.51,0-.75-.07V124.6h2.23Z"/><path class="cls-10" d="M286.44,122.26c2,0,3.61,1.1,3.57,2.35s-1.68,2.21-3.69,2.15-3.6-1.1-3.56-2.35S284.44,122.2,286.44,122.26Z"/><path class="cls-87" d="M286.44,122.54c1.75,0,3.15,1,3.12,2s-1.48,1.94-3.23,1.89-3.15-1-3.12-2S284.68,122.49,286.44,122.54Z"/><path class="cls-5" d="M306.64,169.14l-5,2.85a1.88,1.88,0,0,1-1.93,0l-3.22-1.85a.62.62,0,0,1-.32-.58.61.61,0,0,1,.34-.55l6.45-3.4,3.71,2.44a.65.65,0,0,1,0,1.1Z"/><polygon class="cls-88" points="306.12 164.51 300.69 167.6 296.76 165.34 302.17 162.24 306.12 164.51"/><polygon class="cls-11" points="306.1 168.76 300.68 171.85 300.69 167.6 306.12 164.51 306.1 168.76"/><polygon class="cls-10" points="300.69 167.6 296.76 165.34 296.76 169.59 300.68 171.85 300.69 167.6"/><path class="cls-5" d="M192.35,221.9l-7.78,4.44a2.94,2.94,0,0,1-3,0l-5-2.89a1,1,0,0,1-.5-.89,1,1,0,0,1,.54-.86l10-5.28,5.76,3.78a1,1,0,0,1,.46.87A1,1,0,0,1,192.35,221.9Z"/><path class="cls-5" d="M196.52,227l-5,2.85a1.86,1.86,0,0,1-1.92,0l-3.23-1.85a.65.65,0,0,1-.32-.57.62.62,0,0,1,.35-.56l6.45-3.39,3.71,2.43a.63.63,0,0,1,.29.56A.65.65,0,0,1,196.52,227Z"/><path class="cls-5" d="M39.94,138.85c2.33.06,4.19,1.28,4.15,2.73s-2,2.57-4.29,2.51-4.18-1.29-4.15-2.74S37.61,138.78,39.94,138.85Z"/><path class="cls-5" d="M52.85,139.11c2.33.06,4.19,1.28,4.15,2.73s-2,2.57-4.29,2.51-4.19-1.29-4.15-2.73S50.52,139.05,52.85,139.11Z"/><path class="cls-5" d="M46.54,142.9c2.33.06,4.18,1.29,4.15,2.73s-2,2.57-4.29,2.51-4.19-1.28-4.15-2.73S44.21,142.84,46.54,142.9Z"/><path class="cls-7" d="M49.83,137.37c.19,1.8-2.44,2.38-3.68,2.35-2-.06-3.6-1.11-3.57-2.35v-11h7.26Z"/><path class="cls-8" d="M49.16,138.82a4.91,4.91,0,0,1-3,.9,4.62,4.62,0,0,1-2.3-.58V126.41h5.31Z"/><path class="cls-13" d="M47.62,139.56a6.47,6.47,0,0,1-1.47.16,5.54,5.54,0,0,1-.76-.08V126.41h2.23Z"/><path class="cls-7" d="M46.27,124.06c2,0,3.6,1.11,3.57,2.35s-1.69,2.21-3.69,2.16-3.6-1.11-3.57-2.35S44.27,124,46.27,124.06Z"/><path class="cls-89" d="M46.26,124.34c1.76,0,3.15,1,3.12,2.06s-1.47,1.93-3.22,1.88-3.15-1-3.12-2S44.51,124.3,46.26,124.34Z"/><path class="cls-7" d="M43.47,141.17c.19,1.81-2.44,2.38-3.68,2.35-2-.06-3.6-1.11-3.57-2.35v-11h7.26Z"/><path class="cls-8" d="M42.8,142.63a4.91,4.91,0,0,1-3,.89,4.62,4.62,0,0,1-2.3-.58V130.21H42.8Z"/><path class="cls-13" d="M41.26,143.36a6.47,6.47,0,0,1-1.47.16,5.54,5.54,0,0,1-.76-.08V130.21h2.23Z"/><path class="cls-7" d="M39.91,127.86c2,0,3.6,1.11,3.57,2.35s-1.69,2.21-3.69,2.16-3.6-1.11-3.57-2.35S37.9,127.81,39.91,127.86Z"/><path class="cls-90" d="M39.9,128.14c1.75.05,3.15,1,3.12,2.06s-1.47,1.93-3.22,1.89-3.15-1-3.12-2.06S38.15,128.1,39.9,128.14Z"/><path class="cls-7" d="M56.41,141.53c.19,1.81-2.44,2.38-3.68,2.35-2-.06-3.6-1.11-3.57-2.35v-11h7.26Z"/><path class="cls-8" d="M55.74,143a4.93,4.93,0,0,1-3,.89,4.62,4.62,0,0,1-2.3-.58V130.57h5.31Z"/><path class="cls-13" d="M54.2,143.73a6.44,6.44,0,0,1-1.47.15,5.49,5.49,0,0,1-.76-.07V130.57H54.2Z"/><path class="cls-7" d="M52.85,128.22c2,.06,3.6,1.11,3.57,2.35s-1.69,2.21-3.69,2.16-3.6-1.11-3.57-2.35S50.84,128.17,52.85,128.22Z"/><path class="cls-91" d="M52.84,128.51c1.75,0,3.15,1,3.12,2.05s-1.47,1.93-3.23,1.89-3.14-1-3.12-2.06S51.09,128.46,52.84,128.51Z"/><path class="cls-7" d="M50.05,145.33c.19,1.81-2.44,2.38-3.69,2.35-2-.06-3.6-1.1-3.56-2.35v-11h7.25Z"/><path class="cls-8" d="M49.38,146.79a4.94,4.94,0,0,1-3,.89,4.58,4.58,0,0,1-2.29-.58V134.37h5.31Z"/><path class="cls-13" d="M47.84,147.53a6.52,6.52,0,0,1-1.48.15,4.23,4.23,0,0,1-.75-.07V134.37h2.23Z"/><path class="cls-7" d="M46.49,132c2,.06,3.6,1.11,3.56,2.35s-1.68,2.21-3.68,2.16-3.61-1.11-3.57-2.35S44.48,132,46.49,132Z"/><path class="cls-92" d="M46.48,132.31c1.75,0,3.15,1,3.12,2.05s-1.47,1.93-3.23,1.89-3.15-1-3.12-2.06S44.73,132.26,46.48,132.31Z"/><path class="cls-5" d="M152.29,200.47l-4.82,2.71a3,3,0,0,1-3,0l-19.79-11.45a1,1,0,0,1,0-1.76l7.07-3.55,20.54,12.34a1,1,0,0,1,.46.87A1,1,0,0,1,152.29,200.47Z"/><polygon class="cls-23" points="124.89 191.04 145.57 203.07 145.55 198.55 124.87 186.52 124.89 191.04"/><polygon class="cls-38" points="145.55 198.55 151.38 195.19 151.38 199.72 145.57 203.07 145.55 198.55"/><polygon class="cls-93" points="124.87 186.52 145.54 198.55 151.38 195.19 130.43 183.35 124.87 186.52"/><path class="cls-5" d="M175.16,213.48l-4.82,2.71a2.94,2.94,0,0,1-3,0l-19.78-11.44a1,1,0,0,1-.51-.89,1,1,0,0,1,.54-.87l7.07-3.55,20.55,12.34a1,1,0,0,1,.45.87A1,1,0,0,1,175.16,213.48Z"/><polygon class="cls-94" points="148.01 197.94 168.69 209.97 174.52 206.61 153.57 194.77 148.01 197.94"/><polygon class="cls-10" points="148.03 204.24 168.71 216.27 168.69 209.97 148.01 197.94 148.03 204.24"/><polygon class="cls-10" points="152.33 198.65 167.25 207.4 169.88 205.86 154.7 197.28 152.33 198.65"/><polygon class="cls-11" points="152.33 198.65 154.67 199.98 154.67 197.3 152.33 198.65"/><polygon class="cls-11" points="168.69 209.97 174.52 206.61 174.52 212.92 168.71 216.27 168.69 209.97"/><path class="cls-5" d="M174.71,214.75c1.87.05,3.37,1,3.34,2.2s-1.58,2.07-3.45,2-3.37-1-3.34-2.2S172.84,214.7,174.71,214.75Z"/><path class="cls-10" d="M177.57,216.88c.09.86-1.81,1.7-3,1.67-1.62,0-2.9-1-2.89-1.67v-3.65h5.87Z"/><path class="cls-11" d="M177,217.76a4.07,4.07,0,0,1-4.3.32v-4.85H177Z"/><path class="cls-17" d="M175.78,218.43a4.2,4.2,0,0,1-1.8.06v-5.26h1.8Z"/><path class="cls-10" d="M174.69,211.34c1.62,0,2.91.89,2.88,1.9s-1.36,1.78-3,1.74-2.91-.89-2.89-1.9S173.07,211.29,174.69,211.34Z"/><path class="cls-95" d="M174.68,211.56c1.42,0,2.55.79,2.52,1.67s-1.19,1.56-2.6,1.52-2.55-.78-2.53-1.66S173.26,211.53,174.68,211.56Z"/><polygon class="cls-96" points="192.12 214.08 183.13 219.21 176.61 215.46 185.59 210.33 192.12 214.08"/><polygon class="cls-11" points="192.1 221.13 183.11 226.26 183.13 219.21 192.12 214.08 192.1 221.13"/><polygon class="cls-10" points="183.13 219.21 176.61 215.46 176.61 222.51 183.1 226.25 183.13 219.21"/><polygon class="cls-97" points="196 222.32 190.58 225.41 186.65 223.15 192.06 220.05 196 222.32"/><polygon class="cls-11" points="195.99 226.57 190.56 229.66 190.58 225.41 196 222.32 195.99 226.57"/><polygon class="cls-10" points="190.58 225.41 186.65 223.15 186.65 227.4 190.56 229.66 190.58 225.41"/><path class="cls-5" d="M79.57,158.42l-4.82,2.71a2.94,2.94,0,0,1-3,0L52,149.68a1,1,0,0,1,0-1.76l7.07-3.55,20.55,12.34a1,1,0,0,1,.45.87A1,1,0,0,1,79.57,158.42Z"/><polygon class="cls-98" points="52.42 142.88 73.09 154.91 78.93 151.55 57.98 139.71 52.42 142.88"/><polygon class="cls-10" points="52.44 149.18 73.12 161.21 73.1 154.91 52.42 142.88 52.44 149.18"/><polygon class="cls-10" points="56.74 143.59 71.66 152.34 74.29 150.8 59.11 142.22 56.74 143.59"/><polygon class="cls-11" points="56.74 143.59 59.08 144.92 59.08 142.24 56.74 143.59"/><polygon class="cls-11" points="73.1 154.91 78.93 151.55 78.93 157.86 73.12 161.21 73.1 154.91"/><path class="cls-5" d="M102.52,172,97.7,174.7a3,3,0,0,1-3,0L74.92,163.24a1,1,0,0,1,0-1.75L82,157.94l20.54,12.34a1,1,0,0,1,.46.87A1,1,0,0,1,102.52,172Z"/><polygon class="cls-99" points="75.37 156.45 96.05 168.48 101.88 165.12 80.93 153.27 75.37 156.45"/><polygon class="cls-10" points="75.39 162.75 96.07 174.78 96.05 168.48 75.37 156.45 75.39 162.75"/><polygon class="cls-10" points="79.69 157.15 94.6 165.91 97.24 164.37 82.06 155.79 79.69 157.15"/><polygon class="cls-11" points="79.69 157.15 82.03 158.49 82.03 155.81 79.69 157.15"/><polygon class="cls-11" points="96.05 168.48 101.88 165.12 101.88 171.43 96.07 174.78 96.05 168.48"/><path class="cls-5" d="M98.69,79.7c2.44.06,4.39,1.35,4.35,2.86s-2.05,2.7-4.5,2.64-4.39-1.35-4.35-2.87S96.25,79.63,98.69,79.7Z"/><path class="cls-10" d="M102.13,82c0,.07,0,.13,0,.19,0,1.25-1.69,2.22-3.69,2.16s-3.6-1.11-3.57-2.35V74.5h7.26V82Z"/><path class="cls-11" d="M101.46,83.5a4.58,4.58,0,0,1-3,.89,5.2,5.2,0,0,1-2.3-.58V74.5h5.31Z"/><path class="cls-17" d="M99.92,84.24a5.77,5.77,0,0,1-1.47.15c-.26,0-.52,0-.76-.07V74.5h2.23Z"/><path class="cls-10" d="M98.57,72.16c2,0,3.6,1.1,3.57,2.35s-1.69,2.21-3.69,2.15-3.6-1.1-3.57-2.35S96.56,72.1,98.57,72.16Z"/><path class="cls-100" d="M98.56,72.44c1.75,0,3.15,1,3.12,2s-1.47,1.94-3.22,1.89-3.15-1-3.13-2S96.81,72.39,98.56,72.44Z"/><path class="cls-5" d="M106.94,84.28c2.44.06,4.39,1.34,4.35,2.86s-2.05,2.7-4.5,2.64-4.39-1.35-4.35-2.87S104.49,84.21,106.94,84.28Z"/><path class="cls-10" d="M110.38,86.62a1.2,1.2,0,0,1,0,.19c0,1.25-1.68,2.22-3.69,2.16s-3.6-1.11-3.56-2.35V79.08h7.25v7.54Z"/><path class="cls-11" d="M109.71,88.08a4.59,4.59,0,0,1-3,.89,5.16,5.16,0,0,1-2.29-.58V79.08h5.31Z"/><path class="cls-17" d="M108.17,88.82a5.9,5.9,0,0,1-1.48.15c-.26,0-.51,0-.75-.07V79.08h2.23Z"/><path class="cls-10" d="M106.81,76.74c2,.05,3.61,1.1,3.57,2.35s-1.68,2.21-3.68,2.15-3.61-1.1-3.57-2.35S104.81,76.68,106.81,76.74Z"/><path class="cls-101" d="M106.81,77c1.75,0,3.15,1,3.12,2S108.45,81,106.7,81s-3.15-1-3.12-2S105.06,77,106.81,77Z"/><polygon class="cls-102" points="82.38 79.57 163.08 125.63 169.6 121.87 88.59 76.03 82.38 79.57"/><polygon class="cls-7" points="82.41 86.62 163.11 132.67 163.08 125.63 82.38 79.57 82.41 86.62"/><polygon class="cls-8" points="87.21 80.36 160.15 122 163.09 120.27 89.86 78.84 87.21 80.36"/><polygon class="cls-13" points="87.21 80.36 89.82 81.85 89.82 78.86 87.21 80.36"/><polygon class="cls-8" points="163.08 125.63 169.6 121.88 169.6 128.93 163.11 132.67 163.08 125.63"/><polygon class="cls-14" points="99.03 88.22 103.3 85.78 104.77 86.35 100.44 88.82 99.03 88.22"/><polygon class="cls-13" points="101.25 88.34 104.05 89.94 104.04 86.76 101.25 88.34"/><polygon class="cls-103" points="136.39 119.52 157.06 131.55 161.09 129.23 140.14 117.39 136.39 119.52"/><polygon class="cls-10" points="136.41 124.04 157.08 136.07 157.06 131.55 136.39 119.52 136.41 124.04"/><polygon class="cls-11" points="157.06 131.55 161.09 129.23 161.09 133.76 157.08 136.07 157.06 131.55"/><path class="cls-5" d="M82.42,88.79c2.44.07,4.39,1.35,4.35,2.87s-2,2.69-4.5,2.63-4.39-1.35-4.35-2.87S80,88.73,82.42,88.79Z"/><path class="cls-10" d="M85.86,91.14c0,.06,0,.12,0,.19,0,1.24-1.69,2.21-3.7,2.15s-3.59-1.1-3.56-2.34V83.6h7.26v7.54Z"/><path class="cls-11" d="M85.19,92.59a4.53,4.53,0,0,1-3,.89,5.06,5.06,0,0,1-2.29-.58V83.6h5.31Z"/><path class="cls-17" d="M83.65,93.33a5.39,5.39,0,0,1-1.48.15,4.54,4.54,0,0,1-.75-.07V83.6h2.23Z"/><path class="cls-10" d="M82.3,81.25c2,0,3.6,1.11,3.57,2.35s-1.69,2.21-3.69,2.16-3.6-1.11-3.57-2.35S80.29,81.2,82.3,81.25Z"/><path class="cls-104" d="M82.29,81.53c1.75,0,3.15,1,3.12,2.06s-1.47,1.93-3.23,1.89-3.14-1-3.12-2.06S80.54,81.49,82.29,81.53Z"/><path class="cls-5" d="M90.67,93.37c2.44.07,4.39,1.35,4.35,2.87s-2,2.69-4.5,2.63S86.13,97.52,86.17,96,88.22,93.31,90.67,93.37Z"/><path class="cls-10" d="M94.1,95.72a1.15,1.15,0,0,1,0,.19c0,1.24-1.68,2.21-3.69,2.15s-3.6-1.1-3.56-2.34V88.18h7.25v7.54Z"/><path class="cls-11" d="M93.44,97.17a4.53,4.53,0,0,1-3,.89,5.07,5.07,0,0,1-2.3-.58v-9.3h5.32Z"/><path class="cls-17" d="M91.9,97.91a5.47,5.47,0,0,1-1.48.15,4.54,4.54,0,0,1-.75-.07V88.18H91.9Z"/><path class="cls-10" d="M90.54,85.83c2,0,3.61,1.11,3.57,2.35s-1.68,2.21-3.69,2.16-3.6-1.11-3.56-2.35S88.54,85.78,90.54,85.83Z"/><path class="cls-105" d="M90.54,86.11c1.75,0,3.15,1,3.12,2.06s-1.48,1.93-3.23,1.89-3.15-1-3.12-2.06S88.78,86.07,90.54,86.11Z"/><polygon class="cls-106" points="66.22 88.82 146.91 134.88 153.43 131.12 72.42 85.27 66.22 88.82"/><polygon class="cls-7" points="66.24 95.86 146.94 141.92 146.92 134.88 66.22 88.82 66.24 95.86"/><polygon class="cls-8" points="71.04 89.61 143.98 131.24 146.93 129.52 73.69 88.09 71.04 89.61"/><polygon class="cls-13" points="71.04 89.61 73.66 91.1 73.66 88.1 71.04 89.61"/><polygon class="cls-8" points="146.92 134.88 153.43 131.12 153.43 138.18 146.94 141.92 146.92 134.88"/><polygon class="cls-14" points="82.87 97.47 87.14 95.03 88.6 95.6 84.27 98.07 82.87 97.47"/><polygon class="cls-13" points="85.08 97.59 87.88 99.19 87.88 96.01 85.08 97.59"/><path class="cls-5" d="M66.15,98.22c2.44.06,4.39,1.34,4.35,2.86s-2,2.7-4.5,2.63-4.39-1.34-4.35-2.86S63.7,98.15,66.15,98.22Z"/><path class="cls-10" d="M69.59,100.56c0,.06,0,.13,0,.19,0,1.25-1.69,2.22-3.7,2.16s-3.59-1.11-3.56-2.35V93H69.6v7.54Z"/><path class="cls-11" d="M68.92,102a4.59,4.59,0,0,1-3,.89,5.19,5.19,0,0,1-2.29-.58V93h5.31Z"/><path class="cls-17" d="M67.38,102.75a5.38,5.38,0,0,1-1.48.16c-.26,0-.51,0-.75-.07V93h2.23Z"/><path class="cls-10" d="M66,90.68c2,0,3.6,1.1,3.57,2.35s-1.69,2.21-3.69,2.15-3.61-1.1-3.57-2.35S64,90.62,66,90.68Z"/><path class="cls-107" d="M66,91c1.75.05,3.15,1,3.12,2.05S67.67,95,65.91,94.9s-3.15-1-3.12-2.06S64.27,90.91,66,91Z"/><path class="cls-5" d="M74.4,102.8c2.44.06,4.39,1.34,4.35,2.86s-2,2.7-4.5,2.63-4.39-1.34-4.35-2.86S72,102.73,74.4,102.8Z"/><path class="cls-10" d="M77.83,105.14a1.21,1.21,0,0,1,0,.19c0,1.25-1.68,2.22-3.69,2.16s-3.6-1.11-3.56-2.35V97.6h7.25v7.54Z"/><path class="cls-11" d="M77.17,106.6a4.59,4.59,0,0,1-3,.89,5.12,5.12,0,0,1-2.29-.58V97.6h5.31Z"/><path class="cls-17" d="M75.63,107.34a5.42,5.42,0,0,1-2.23.07V97.6h2.23Z"/><path class="cls-10" d="M74.27,95.26c2,0,3.61,1.1,3.57,2.35s-1.68,2.21-3.69,2.15-3.6-1.1-3.56-2.35S72.27,95.2,74.27,95.26Z"/><path class="cls-108" d="M74.27,95.54c1.75,0,3.15,1,3.12,2s-1.48,1.94-3.23,1.89S71,98.51,71,97.42,72.51,95.49,74.27,95.54Z"/><polygon class="cls-109" points="119.91 128.92 140.58 140.95 144.61 138.63 123.66 126.79 119.91 128.92"/><polygon class="cls-10" points="119.93 133.44 140.6 145.47 140.58 140.95 119.91 128.92 119.93 133.44"/><polygon class="cls-11" points="140.58 140.95 144.61 138.63 144.61 143.16 140.6 145.47 140.58 140.95"/><polygon class="cls-110" points="50.05 98.06 130.75 144.13 137.26 140.37 56.26 94.52 50.05 98.06"/><polygon class="cls-7" points="50.07 105.11 130.77 151.17 130.75 144.12 50.05 98.06 50.07 105.11"/><polygon class="cls-8" points="54.87 98.85 127.82 140.49 130.76 138.77 57.52 97.33 54.87 98.85"/><polygon class="cls-13" points="54.87 98.85 57.49 100.35 57.49 97.35 54.87 98.85"/><polygon class="cls-8" points="130.75 144.12 137.26 140.37 137.26 147.42 130.77 151.17 130.75 144.12"/><polygon class="cls-14" points="66.7 106.72 70.97 104.28 72.44 104.84 68.11 107.32 66.7 106.72"/><polygon class="cls-13" points="68.92 106.84 71.71 108.44 71.71 105.26 68.92 106.84"/><polygon class="cls-111" points="103.42 138.33 124.1 150.36 128.13 148.04 107.18 136.19 103.42 138.33"/><polygon class="cls-10" points="103.44 142.85 124.12 154.88 124.1 150.36 103.42 138.33 103.44 142.85"/><polygon class="cls-11" points="124.1 150.36 128.13 148.04 128.13 152.57 124.12 154.88 124.1 150.36"/><path class="cls-5" d="M49.88,106.84c2.44.07,4.39,1.35,4.35,2.87s-2,2.7-4.5,2.63-4.39-1.35-4.35-2.86S47.43,106.78,49.88,106.84Z"/><path class="cls-10" d="M53.32,109.19a1.21,1.21,0,0,1,0,.19c0,1.25-1.68,2.21-3.69,2.16s-3.6-1.11-3.56-2.35v-7.54h7.25v7.54Z"/><path class="cls-11" d="M52.65,110.64a4.54,4.54,0,0,1-3,.9,5.19,5.19,0,0,1-2.29-.58v-9.31h5.31Z"/><path class="cls-17" d="M51.11,111.38a5.79,5.79,0,0,1-1.48.16,5.94,5.94,0,0,1-.75-.08v-9.81h2.23Z"/><path class="cls-10" d="M49.76,99.3c2,.06,3.6,1.11,3.56,2.35s-1.68,2.21-3.68,2.16-3.61-1.1-3.57-2.35S47.75,99.25,49.76,99.3Z"/><path class="cls-112" d="M49.75,99.59c1.75,0,3.15,1,3.12,2s-1.47,1.94-3.23,1.89-3.15-1-3.12-2.06S48,99.54,49.75,99.59Z"/><path class="cls-5" d="M58.13,111.42c2.44.07,4.39,1.35,4.35,2.87s-2.06,2.7-4.5,2.63-4.4-1.35-4.36-2.86S55.68,111.36,58.13,111.42Z"/><path class="cls-10" d="M61.56,113.77a1.21,1.21,0,0,1,0,.19c0,1.25-1.68,2.21-3.69,2.16s-3.6-1.11-3.57-2.35v-7.54h7.26v7.54Z"/><path class="cls-11" d="M60.9,115.22a4.54,4.54,0,0,1-3,.9,5.2,5.2,0,0,1-2.3-.58v-9.31H60.9Z"/><path class="cls-17" d="M59.35,116a5.76,5.76,0,0,1-1.47.16,5.94,5.94,0,0,1-.75-.08v-9.81h2.22Z"/><path class="cls-10" d="M58,103.88c2,.06,3.6,1.11,3.57,2.35s-1.68,2.21-3.69,2.16-3.6-1.1-3.57-2.35S56,103.83,58,103.88Z"/><path class="cls-113" d="M58,104.17c1.76,0,3.15,1,3.13,2s-1.48,1.94-3.23,1.89-3.15-1-3.12-2.06S56.24,104.12,58,104.17Z"/><polygon class="cls-114" points="33.88 107.31 114.58 153.37 121.1 149.61 40.09 103.77 33.88 107.31"/><polygon class="cls-7" points="33.91 114.36 114.61 160.41 114.58 153.37 33.88 107.31 33.91 114.36"/><polygon class="cls-8" points="38.71 108.1 111.65 149.74 114.6 148.01 41.36 106.58 38.71 108.1"/><polygon class="cls-13" points="38.71 108.1 41.32 109.59 41.32 106.6 38.71 108.1"/><polygon class="cls-8" points="114.59 153.37 121.1 149.62 121.1 156.67 114.61 160.41 114.59 153.37"/><polygon class="cls-14" points="50.54 115.96 54.8 113.53 56.27 114.09 51.94 116.56 50.54 115.96"/><polygon class="cls-13" points="52.75 116.08 55.55 117.68 55.54 114.5 52.75 116.08"/><path class="cls-5" d="M90.36,149.7c2.44.07,4.39,1.35,4.35,2.87s-2,2.7-4.5,2.63-4.39-1.35-4.35-2.87S87.91,149.64,90.36,149.7Z"/><path class="cls-10" d="M93.8,152.05a1.2,1.2,0,0,1,0,.19c0,1.24-1.68,2.21-3.69,2.15s-3.59-1.1-3.56-2.34v-7.54H93.8v7.54Z"/><path class="cls-11" d="M93.13,153.5a4.53,4.53,0,0,1-3,.89,5.06,5.06,0,0,1-2.29-.58v-9.3h5.31Z"/><path class="cls-17" d="M91.59,154.24a5.39,5.39,0,0,1-1.48.15,4.54,4.54,0,0,1-.75-.07v-9.81h2.23Z"/><path class="cls-10" d="M90.24,142.16c2,.05,3.6,1.11,3.57,2.35s-1.69,2.21-3.69,2.16-3.61-1.11-3.57-2.35S88.23,142.11,90.24,142.16Z"/><path class="cls-115" d="M90.23,142.44c1.75.05,3.15,1,3.12,2.06s-1.47,1.93-3.23,1.89-3.15-1-3.12-2.06S88.48,142.4,90.23,142.44Z"/><path class="cls-5" d="M65.1,133.8c1.87,0,3.37,1,3.34,2.2s-1.58,2.06-3.45,2-3.37-1-3.34-2.19S63.22,133.75,65.1,133.8Z"/><path class="cls-10" d="M68,135.93c.09.86-1.81,1.7-3,1.67-1.62,0-2.9-.95-2.89-1.67v-3.65H68Z"/><path class="cls-11" d="M67.42,136.8a4,4,0,0,1-4.3.33v-4.85h4.3Z"/><path class="cls-17" d="M66.17,137.47a4.05,4.05,0,0,1-1.8.07v-5.26h1.8Z"/><path class="cls-10" d="M65.08,130.38c1.62.05,2.91.9,2.88,1.9s-1.36,1.79-3,1.75-2.92-.9-2.89-1.9S63.45,130.34,65.08,130.38Z"/><path class="cls-116" d="M65.07,130.61c1.42,0,2.55.78,2.52,1.66s-1.19,1.57-2.6,1.53-2.55-.78-2.53-1.66S63.65,130.57,65.07,130.61Z"/><path class="cls-46" d="M188.5,81.33l31-17.67a2,2,0,0,1,2,0L250.32,80l-31,17.68a2,2,0,0,1-2,0Z"/></g></g></svg>