<svg width="255" height="37" viewBox="0 0 255 37" fill="none" xmlns="http://www.w3.org/2000/svg">
<path d="M66.6 29L66.57 16.4L60.39 26.78H58.2L52.05 16.67V29H47.49V8H51.51L59.37 21.05L67.11 8H71.1L71.16 29H66.6ZM76.1423 8H81.0023V29H76.1423V8ZM96.0361 29.36C93.8961 29.36 91.9561 28.9 90.2161 27.98C88.4961 27.04 87.1361 25.75 86.1361 24.11C85.1561 22.45 84.6661 20.58 84.6661 18.5C84.6661 16.42 85.1561 14.56 86.1361 12.92C87.1361 11.26 88.4961 9.97 90.2161 9.05C91.9561 8.11 93.9061 7.64 96.0661 7.64C97.8861 7.64 99.5261 7.96 100.986 8.6C102.466 9.24 103.706 10.16 104.706 11.36L101.586 14.24C100.166 12.6 98.4061 11.78 96.3061 11.78C95.0061 11.78 93.8461 12.07 92.8261 12.65C91.8061 13.21 91.0061 14 90.4261 15.02C89.8661 16.04 89.5861 17.2 89.5861 18.5C89.5861 19.8 89.8661 20.96 90.4261 21.98C91.0061 23 91.8061 23.8 92.8261 24.38C93.8461 24.94 95.0061 25.22 96.3061 25.22C98.4061 25.22 100.166 24.39 101.586 22.73L104.706 25.61C103.706 26.83 102.466 27.76 100.986 28.4C99.5061 29.04 97.8561 29.36 96.0361 29.36ZM121.368 29L117.318 23.15H117.078H112.848V29H107.988V8H117.078C118.938 8 120.548 8.31 121.908 8.93C123.288 9.55 124.348 10.43 125.088 11.57C125.828 12.71 126.198 14.06 126.198 15.62C126.198 17.18 125.818 18.53 125.058 19.67C124.318 20.79 123.258 21.65 121.878 22.25L126.588 29H121.368ZM121.278 15.62C121.278 14.44 120.898 13.54 120.138 12.92C119.378 12.28 118.268 11.96 116.808 11.96H112.848V19.28H116.808C118.268 19.28 119.378 18.96 120.138 18.32C120.898 17.68 121.278 16.78 121.278 15.62ZM140.219 29.36C138.039 29.36 136.069 28.89 134.309 27.95C132.569 27.01 131.199 25.72 130.199 24.08C129.219 22.42 128.729 20.56 128.729 18.5C128.729 16.44 129.219 14.59 130.199 12.95C131.199 11.29 132.569 9.99 134.309 9.05C136.069 8.11 138.039 7.64 140.219 7.64C142.399 7.64 144.359 8.11 146.099 9.05C147.839 9.99 149.209 11.29 150.209 12.95C151.209 14.59 151.709 16.44 151.709 18.5C151.709 20.56 151.209 22.42 150.209 24.08C149.209 25.72 147.839 27.01 146.099 27.95C144.359 28.89 142.399 29.36 140.219 29.36ZM140.219 25.22C141.459 25.22 142.579 24.94 143.579 24.38C144.579 23.8 145.359 23 145.919 21.98C146.499 20.96 146.789 19.8 146.789 18.5C146.789 17.2 146.499 16.04 145.919 15.02C145.359 14 144.579 13.21 143.579 12.65C142.579 12.07 141.459 11.78 140.219 11.78C138.979 11.78 137.859 12.07 136.859 12.65C135.859 13.21 135.069 14 134.489 15.02C133.929 16.04 133.649 17.2 133.649 18.5C133.649 19.8 133.929 20.96 134.489 21.98C135.069 23 135.859 23.8 136.859 24.38C137.859 24.94 138.979 25.22 140.219 25.22Z" fill="black"/>
<path d="M162.081 29.18C160.521 29.18 159.021 28.93 157.581 28.43C156.161 27.93 155.061 27.27 154.281 26.45L155.151 24.74C155.911 25.5 156.921 26.12 158.181 26.6C159.441 27.06 160.741 27.29 162.081 27.29C163.961 27.29 165.371 26.95 166.311 26.27C167.251 25.57 167.721 24.67 167.721 23.57C167.721 22.73 167.461 22.06 166.941 21.56C166.441 21.06 165.821 20.68 165.081 20.42C164.341 20.14 163.311 19.84 161.991 19.52C160.411 19.12 159.151 18.74 158.211 18.38C157.271 18 156.461 17.43 155.781 16.67C155.121 15.91 154.791 14.88 154.791 13.58C154.791 12.52 155.071 11.56 155.631 10.7C156.191 9.82 157.051 9.12 158.211 8.6C159.371 8.08 160.811 7.82 162.531 7.82C163.731 7.82 164.901 7.99 166.041 8.33C167.201 8.65 168.201 9.1 169.041 9.68L168.291 11.45C167.411 10.87 166.471 10.44 165.471 10.16C164.471 9.86 163.491 9.71 162.531 9.71C160.691 9.71 159.301 10.07 158.361 10.79C157.441 11.49 156.981 12.4 156.981 13.52C156.981 14.36 157.231 15.04 157.731 15.56C158.251 16.06 158.891 16.45 159.651 16.73C160.431 16.99 161.471 17.28 162.771 17.6C164.311 17.98 165.551 18.36 166.491 18.74C167.451 19.1 168.261 19.66 168.921 20.42C169.581 21.16 169.911 22.17 169.911 23.45C169.911 24.51 169.621 25.48 169.041 26.36C168.481 27.22 167.611 27.91 166.431 28.43C165.251 28.93 163.801 29.18 162.081 29.18ZM178.535 9.92H171.155V8H188.135V9.92H180.755V29H178.535V9.92ZM200.569 29.18C198.489 29.18 196.599 28.72 194.899 27.8C193.219 26.86 191.899 25.58 190.939 23.96C189.999 22.34 189.529 20.52 189.529 18.5C189.529 16.48 189.999 14.66 190.939 13.04C191.899 11.42 193.219 10.15 194.899 9.23C196.599 8.29 198.489 7.82 200.569 7.82C202.649 7.82 204.519 8.28 206.179 9.2C207.859 10.12 209.179 11.4 210.139 13.04C211.099 14.66 211.579 16.48 211.579 18.5C211.579 20.52 211.099 22.35 210.139 23.99C209.179 25.61 207.859 26.88 206.179 27.8C204.519 28.72 202.649 29.18 200.569 29.18ZM200.569 27.2C202.229 27.2 203.729 26.83 205.069 26.09C206.409 25.33 207.459 24.29 208.219 22.97C208.979 21.63 209.359 20.14 209.359 18.5C209.359 16.86 208.979 15.38 208.219 14.06C207.459 12.72 206.409 11.68 205.069 10.94C203.729 10.18 202.229 9.8 200.569 9.8C198.909 9.8 197.399 10.18 196.039 10.94C194.699 11.68 193.639 12.72 192.859 14.06C192.099 15.38 191.719 16.86 191.719 18.5C191.719 20.14 192.099 21.63 192.859 22.97C193.639 24.29 194.699 25.33 196.039 26.09C197.399 26.83 198.909 27.2 200.569 27.2ZM230.895 29L226.095 22.25C225.555 22.31 224.995 22.34 224.415 22.34H218.775V29H216.555V8H224.415C227.095 8 229.195 8.64 230.715 9.92C232.235 11.2 232.995 12.96 232.995 15.2C232.995 16.84 232.575 18.23 231.735 19.37C230.915 20.49 229.735 21.3 228.195 21.8L233.325 29H230.895ZM224.355 20.45C226.435 20.45 228.025 19.99 229.125 19.07C230.225 18.15 230.775 16.86 230.775 15.2C230.775 13.5 230.225 12.2 229.125 11.3C228.025 10.38 226.435 9.92 224.355 9.92H218.775V20.45H224.355ZM253.084 27.08V29H238.234V8H252.634V9.92H240.454V17.39H251.314V19.28H240.454V27.08H253.084Z" fill="#17D7A0"/>
<path d="M28.4615 12.0994V8.53601H6.53729V11.678H11.3272C11.367 11.3592 11.5269 11.0674 11.7742 10.8623C12.0216 10.6571 12.3379 10.554 12.6586 10.5739C12.9794 10.5939 13.2805 10.7353 13.5006 10.9695C13.7206 11.2037 13.8432 11.513 13.8432 11.8343C13.8432 12.1557 13.7206 12.465 13.5006 12.6992C13.2805 12.9333 12.9794 13.0748 12.6586 13.0947C12.3379 13.1146 12.0216 13.0115 11.7742 12.8064C11.5269 12.6013 11.367 12.3095 11.3272 11.9906H6.53729V14.0161H10.2739V14.3287H6.53729V18.651H15.6752C15.6883 18.651 16.5798 18.6635 17.1687 18.0884C17.5219 17.7427 17.7013 17.2519 17.7013 16.628V14.7663C17.3823 14.7265 17.0904 14.5666 16.8851 14.3191C16.6799 14.0716 16.5767 13.7552 16.5966 13.4343C16.6165 13.1134 16.7581 12.8121 16.9924 12.5919C17.2267 12.3717 17.5361 12.2491 17.8576 12.2491C18.1792 12.2491 18.4886 12.3717 18.7229 12.5919C18.9572 12.8121 19.0987 13.1134 19.1186 13.4343C19.1386 13.7552 19.0354 14.0716 18.8301 14.3191C18.6249 14.5666 18.333 14.7265 18.0139 14.7663V16.6287C18.0139 17.3413 17.8026 17.9084 17.3888 18.3166C16.7473 18.9417 15.8446 18.9686 15.6946 18.9686H6.53729V21.7031H17.4038C17.4435 21.3838 17.6035 21.0918 17.8511 20.8864C18.0987 20.681 18.4153 20.5778 18.7364 20.5977C19.0575 20.6176 19.3589 20.7592 19.5792 20.9936C19.7995 21.2281 19.9222 21.5376 19.9222 21.8593C19.9222 22.181 19.7995 22.4906 19.5792 22.725C19.3589 22.9595 19.0575 23.1011 18.7364 23.121C18.4153 23.1409 18.0987 23.0377 17.8511 22.8323C17.6035 22.6269 17.4435 22.3349 17.4038 22.0156H6.53729V23.8498H14.0542C14.0767 23.8498 15.754 23.9292 15.754 25.921V30.4634H20.6302V27.1063H20.9428V30.4634H22.6457V26.2286C22.3268 26.1888 22.0351 26.0289 21.8299 25.7816C21.6248 25.5342 21.5217 25.2179 21.5416 24.8972C21.5615 24.5764 21.703 24.2753 21.9372 24.0552C22.1713 23.8352 22.4806 23.7126 22.802 23.7126C23.1234 23.7126 23.4326 23.8352 23.6668 24.0552C23.901 24.2753 24.0424 24.5764 24.0624 24.8972C24.0823 25.2179 23.9792 25.5342 23.774 25.7816C23.5689 26.0289 23.2772 26.1888 22.9583 26.2286V30.4634H24.5212V27.9571H24.8337V30.4634H28.4597V15.674H23.671C23.6312 15.9929 23.4713 16.2847 23.224 16.4898C22.9766 16.695 22.6603 16.7981 22.3396 16.7781C22.0188 16.7582 21.7177 16.6168 21.4976 16.3826C21.2776 16.1484 21.155 15.8391 21.155 15.5178C21.155 15.1964 21.2776 14.8871 21.4976 14.6529C21.7177 14.4188 22.0188 14.2773 22.3396 14.2574C22.6603 14.2374 22.9766 14.3406 23.224 14.5457C23.4713 14.7508 23.6312 15.0426 23.671 15.3615H28.4597V12.4126H24.9519V12.1L28.4615 12.0994Z" fill="#393939"/>
<path d="M10.2739 27.5064C9.96625 27.5065 9.66925 27.394 9.4389 27.1902C9.20856 26.9863 9.06081 26.7052 9.02354 26.3998H6.53729V30.4634H15.4414V25.9216C15.4414 24.2287 14.1067 24.1649 14.0492 24.1637H6.53729V26.0879H9.02604C9.05671 25.8474 9.1561 25.6208 9.3123 25.4354C9.4685 25.2499 9.67487 25.1135 9.90667 25.0424C10.1385 24.9713 10.3859 24.9686 10.6192 25.0346C10.8525 25.1005 11.0618 25.2324 11.2221 25.4144C11.3823 25.5963 11.4867 25.8206 11.5226 26.0604C11.5586 26.3002 11.5246 26.5452 11.4248 26.7662C11.325 26.9872 11.1635 27.1746 10.9598 27.3061C10.7561 27.4376 10.5188 27.5076 10.2764 27.5076L10.2739 27.5064Z" fill="#393939"/>
<path d="M35 11.0441V10.1064H31.2809V7.77894C31.2809 7.23279 31.064 6.70901 30.6778 6.32282C30.2916 5.93664 29.7678 5.71968 29.2217 5.71968H26.8955V2H25.9577V5.71968H23.9197V2H22.982V5.71968H20.9427V2H20.005V5.71968H17.9695V2H17.0318V5.71968H14.9937V2H14.056V5.71968H12.0193V2H11.0815V5.71968H9.04351V2H8.10578V5.71968H5.77832C5.50792 5.71968 5.24017 5.77295 4.99037 5.87644C4.74056 5.97994 4.51359 6.13163 4.32242 6.32286C4.13125 6.51409 3.97962 6.74111 3.87621 6.99095C3.77279 7.24078 3.7196 7.50855 3.71968 7.77894V10.1045H0V11.0423H3.71968V13.0778H0V14.0155H3.71968V16.051H0V16.9887H3.71968V19.0249H0V19.9626H3.71968V22.005H0V22.9427H3.71968V24.9789H0V25.9166H3.71968V27.9521H0V28.8898H3.71968V31.2154C3.71968 31.7614 3.93657 32.285 4.32264 32.6711C4.70871 33.0572 5.23233 33.2741 5.77832 33.2741H8.1039V36.9938H9.04164V33.2741H11.0778V36.9938H12.0155V33.2741H14.0504V36.9938H14.9881V33.2741H17.0243V36.9938H17.962V33.2741H20.005V36.9938H20.9427V33.2741H22.9807V36.9938H23.9185V33.2741H25.9546V36.9938H26.8923V33.2741H29.2186C29.489 33.2742 29.7567 33.221 30.0066 33.1175C30.2564 33.0141 30.4834 32.8625 30.6746 32.6713C30.8659 32.4802 31.0176 32.2532 31.1211 32.0034C31.2246 31.7536 31.2778 31.4858 31.2778 31.2154V28.8898H34.9969V27.9521H31.2809V25.9216H35V24.9839H31.2809V22.9459H35V22.005H31.2809V19.9701H35V19.0324H31.2809V16.995H35V16.0573H31.2809V14.0199H35V13.0821H31.2809V11.0441H35ZM29.0879 31.0891H5.91085V7.9121H29.0879V31.0891Z" fill="#17D7A0"/>
<path d="M22.4256 14.2531C22.1823 14.2519 21.9438 14.3211 21.7388 14.4523C21.5339 14.5835 21.3712 14.7711 21.2704 14.9926C21.1695 15.2141 21.1348 15.46 21.1705 15.7007C21.2061 15.9414 21.3105 16.1667 21.4711 16.3495C21.6318 16.5323 21.8418 16.6648 22.076 16.731C22.3101 16.7972 22.5584 16.7944 22.791 16.7229C23.0236 16.6513 23.2305 16.5141 23.387 16.3277C23.5434 16.1413 23.6427 15.9136 23.6728 15.6722H28.4615V15.3596H23.6728C23.6357 15.0547 23.4884 14.774 23.2587 14.5702C23.029 14.3663 22.7327 14.2536 22.4256 14.2531Z" fill="#17D7A0"/>
<path d="M9.02604 26.0879H6.53729V26.4005H9.02604C9.06581 26.7194 9.22567 27.0111 9.47304 27.2162C9.72042 27.4214 10.0367 27.5245 10.3574 27.5046C10.6782 27.4846 10.9793 27.3432 11.1994 27.109C11.4194 26.8748 11.542 26.5655 11.542 26.2442C11.542 25.9228 11.4194 25.6135 11.1994 25.3793C10.9793 25.1452 10.6782 25.0037 10.3574 24.9838C10.0367 24.9639 9.72042 25.067 9.47304 25.2721C9.22567 25.4773 9.06581 25.769 9.02604 26.0879Z" fill="#17D7A0"/>
<path d="M17.1687 18.0909C16.5798 18.6679 15.6883 18.6579 15.6752 18.6535H6.53729V18.9661H15.6915C15.8415 18.9661 16.7442 18.9398 17.3856 18.3141C17.8014 17.9077 18.0108 17.3407 18.0108 16.6261V14.7663C18.3298 14.7265 18.6217 14.5666 18.827 14.3191C19.0323 14.0716 19.1354 13.7552 19.1155 13.4343C19.0956 13.1133 18.9541 12.8121 18.7198 12.5919C18.4855 12.3717 18.176 12.2491 17.8545 12.2491C17.533 12.2491 17.2235 12.3717 16.9892 12.5919C16.7549 12.8121 16.6134 13.1133 16.5935 13.4343C16.5736 13.7552 16.6767 14.0716 16.882 14.3191C17.0872 14.5666 17.3791 14.7265 17.6982 14.7663V16.6286C17.7013 17.2538 17.5219 17.7452 17.1687 18.0909Z" fill="#17D7A0"/>
<path d="M6.53729 21.703V22.0156H17.4038C17.3952 21.9639 17.3897 21.9117 17.3875 21.8593C17.3898 21.8068 17.3952 21.7544 17.4038 21.7024L6.53729 21.703Z" fill="#17D7A0"/>
<path d="M15.754 30.4634V25.9216C15.754 23.9299 14.0767 23.8511 14.0542 23.8505H6.53729V24.163H14.0492C14.1067 24.163 15.4414 24.2256 15.4414 25.921V30.4634H15.754Z" fill="#17D7A0"/>
<path d="M22.6481 30.4634H22.9607V26.2285C22.8576 26.2501 22.7512 26.2501 22.6481 26.2285V30.4634Z" fill="#17D7A0"/>
<path d="M20.9452 27.1063H20.6314V30.4634H20.9452V27.1063Z" fill="#17D7A0"/>
<path d="M24.8368 27.9571H24.5236V30.4633H24.8368V27.9571Z" fill="#17D7A0"/>
<path d="M28.4621 12.0994H24.9518V12.4126H28.4621V12.0994Z" fill="#17D7A0"/>
<path d="M6.53729 11.6805V11.9931H11.3272C11.3186 11.941 11.3133 11.8884 11.3116 11.8356C11.3133 11.7832 11.3186 11.731 11.3272 11.6793L6.53729 11.6805Z" fill="#17D7A0"/>
<path d="M10.2739 14.0199H6.53729V14.3324H10.2739V14.0199Z" fill="#17D7A0"/>
<path d="M29.0879 31.0891V7.91208H5.91083V31.0891H29.0879ZM6.53723 26.4005V8.53849H28.4615V30.4633H6.53723V26.4005Z" fill="#17D7A0"/>
<path d="M11.3272 11.6806C11.3185 11.7322 11.3133 11.7845 11.3116 11.8368C11.3133 11.8896 11.3185 11.9423 11.3272 11.9944C11.367 12.3134 11.5269 12.6053 11.7744 12.8106C12.0219 13.0159 12.3383 13.119 12.6592 13.0991C12.9802 13.0792 13.2814 12.9376 13.5016 12.7034C13.7218 12.4691 13.8444 12.1596 13.8444 11.8381C13.8444 11.5166 13.7218 11.2071 13.5016 10.9728C13.2814 10.7385 12.9802 10.597 12.6592 10.5771C12.3383 10.5572 12.0219 10.6603 11.7744 10.8656C11.5269 11.0708 11.367 11.3627 11.3272 11.6818V11.6806Z" fill="#17D7A0"/>
<path d="M17.4037 21.703C17.3951 21.755 17.3897 21.8074 17.3875 21.86C17.3897 21.9123 17.3951 21.9645 17.4037 22.0162C17.4435 22.3351 17.6033 22.6269 17.8507 22.832C18.0981 23.0372 18.4144 23.1403 18.7351 23.1203C19.0559 23.1004 19.3569 22.959 19.577 22.7248C19.7971 22.4906 19.9196 22.1813 19.9196 21.86C19.9196 21.5386 19.7971 21.2293 19.577 20.9951C19.3569 20.761 19.0559 20.6195 18.7351 20.5996C18.4144 20.5796 18.0981 20.6828 17.8507 20.8879C17.6033 21.093 17.4435 21.3848 17.4037 21.7037V21.703Z" fill="#17D7A0"/>
<path d="M21.541 24.982C21.5417 25.2891 21.6546 25.5853 21.8586 25.8149C22.0625 26.0445 22.3433 26.1916 22.6482 26.2285C22.7513 26.2501 22.8577 26.2501 22.9608 26.2285C23.2014 26.1977 23.428 26.0981 23.6134 25.9417C23.7988 25.7853 23.9352 25.5787 24.006 25.3467C24.0769 25.1146 24.0793 24.8671 24.013 24.6338C23.9467 24.4004 23.8144 24.1912 23.6321 24.0312C23.4497 23.8712 23.2251 23.7672 22.9851 23.7317C22.7451 23.6962 22.5 23.7307 22.2792 23.8311C22.0583 23.9315 21.8712 24.0935 21.7401 24.2976C21.6091 24.5018 21.5397 24.7394 21.5404 24.982H21.541Z" fill="#17D7A0"/>
</svg>
